SplineFontDB: 3.2
FontName: Titillium-Regular
FullName: Titillium Regular
FamilyName: Titillium
Weight: Regular
Copyright: Copyright (c) 2008-2011 by Accademia di Belle Arti di Urbino and others. All rights reserved.
Version: 57.000
ItalicAngle: 0
UnderlinePosition: -110
UnderlineWidth: 30
Ascent: 750
Descent: 250
InvalidEm: 0
sfntRevision: 0x00010000
LayerCount: 2
Layer: 0 0 "Zur+APwA-ck" 1
Layer: 1 0 "Zeichen" 0
XUID: [1021 1010 -703601740 6571]
StyleMap: 0x0040
FSType: 8
OS2Version: 3
OS2_WeightWidthSlopeOnly: 0
OS2_UseTypoMetrics: 0
CreationTime: 1339467516
ModificationTime: 1577951767
PfmFamily: 81
TTFWeight: 400
TTFWidth: 5
LineGap: 200
VLineGap: 0
Panose: 0 0 5 0 0 0 0 0 0 0
OS2TypoAscent: 750
OS2TypoAOffset: 0
OS2TypoDescent: -250
OS2TypoDOffset: 0
OS2TypoLinegap: 200
OS2WinAscent: 1082
OS2WinAOffset: 0
OS2WinDescent: 285
OS2WinDOffset: 0
HheadAscent: 750
HheadAOffset: 0
HheadDescent: -250
HheadDOffset: 0
OS2SubXSize: 650
OS2SubYSize: 600
OS2SubXOff: 0
OS2SubYOff: 75
OS2SupXSize: 650
OS2SupYSize: 600
OS2SupXOff: 0
OS2SupYOff: 350
OS2StrikeYSize: 30
OS2StrikeYPos: 300
OS2CapHeight: 692
OS2XHeight: 500
OS2Vendor: 'UKWN'
OS2CodePages: 20000093.00000000
OS2UnicodeRanges: 00000007.00000001.00000000.00000000
Lookup: 1 0 0 "'locl' Localized Forms in Lateinisch lookup 0" { "'locl' Localized Forms in Lateinisch lookup 0 subtable"  } ['locl' ('DFLT' <'dflt' > 'latn' <'dflt' > ) ]
Lookup: 1 0 0 "'frac' Diagonal Fractions in Lateinisch lookup 1" { "'frac' Diagonal Fractions in Lateinisch lookup 1 subtable"  } ['frac' ('DFLT' <'dflt' > 'latn' <'dflt' > ) ]
Lookup: 6 0 0 "'frac' Diagonal Fractions in Lateinisch lookup 2" { "'frac' Diagonal Fractions in Lateinisch lookup 2 subtable"  } ['frac' ('DFLT' <'dflt' > 'latn' <'dflt' > ) ]
Lookup: 1 0 0 "'frac' Diagonal Fractions in Lateinisch lookup 3" { "'frac' Diagonal Fractions in Lateinisch lookup 3 subtable"  } ['frac' ('DFLT' <'dflt' > 'latn' <'dflt' > ) ]

StartChar: acute
Encoding: 180 180 2
Width: 268
Flags: MW
HStem: 591 149
VStem: 26 242<642 676>
LayerCount: 2
Fore
SplineSet
26 642 m 1
 242 740 l 1
 268 676 l 1
 47 591 l 1
 26 642 l 1
EndSplineSet
EndChar

StartChar: breve
Encoding: 728 728 3
Width: 236
Flags: MW
HStem: 586 56<104.5 158.5 104.5 176.5> 586 140<-17 176.5>
VStem: -17 297<726 726>
LayerCount: 2
Fore
SplineSet
-17 726 m 1x60
 44 726 l 1x60
 46 677 78 642 131 642 c 0xa0
 186 642 217 677 218 726 c 1
 280 726 l 1
 276 649 222 586 131 586 c 0
 41 586 -13 649 -17 726 c 1x60
EndSplineSet
EndChar

StartChar: caron
Encoding: 711 711 4
Width: 236
Flags: MW
HStem: 592 140<-17 106 -17 156>
VStem: -17 298<732 732>
LayerCount: 2
Fore
SplineSet
106 592 m 1
 -17 732 l 1
 57 732 l 1
 132 645 l 1
 206 732 l 1
 281 732 l 1
 156 592 l 1
 106 592 l 1
EndSplineSet
EndChar

StartChar: cedilla
Encoding: 184 184 5
Width: 263
Flags: MW
HStem: -217 52<106 125 97.5 156> -93 44<110 111 69 147>
VStem: 69 41<-49 1 -49 1 -49 1> 155 66<-141 -114.5>
LayerCount: 2
Fore
SplineSet
221 -127 m 0
 221 -190 184 -217 128 -217 c 0
 84 -217 42 -210 42 -210 c 1
 45 -162 l 1
 45 -162 84 -165 111 -165 c 0
 139 -165 155 -155 155 -127 c 0
 155 -102 139 -93 111 -93 c 2
 69 -93 l 1
 69 1 l 1
 110 1 l 1
 110 -49 l 1
 184 -49 221 -63 221 -127 c 0
EndSplineSet
EndChar

StartChar: circumflex
Encoding: 710 710 6
Width: 236
Flags: MW
HStem: 592 140<-19 155 -19 155 104 204 104 279>
VStem: -19 298<592 592>
LayerCount: 2
Fore
SplineSet
-19 592 m 1
 104 732 l 1
 155 732 l 1
 279 592 l 1
 204 592 l 1
 131 679 l 1
 56 592 l 1
 -19 592 l 1
EndSplineSet
EndChar

StartChar: commaaccent
Encoding: 63171 63171 7
Width: 170
Flags: MW
HStem: -285 207<23 138 64 88>
VStem: 23 115
LayerCount: 2
Fore
SplineSet
23 -285 m 1
 64 -78 l 1
 138 -78 l 1
 88 -285 l 1
 23 -285 l 1
EndSplineSet
EndChar

StartChar: dieresis
Encoding: 168 168 8
Width: 236
Flags: MW
HStem: 621 90<-12 60 -12 60 188 261>
VStem: -12 72<621 711 621 711> 188 73<621 711 621 711>
LayerCount: 2
Fore
SplineSet
-12 621 m 1
 -12 711 l 1
 60 711 l 1
 60 621 l 1
 -12 621 l 1
188 621 m 1
 188 711 l 1
 261 711 l 1
 261 621 l 1
 188 621 l 1
EndSplineSet
EndChar

StartChar: dotaccent
Encoding: 729 729 9
Width: 236
Flags: MW
HStem: 609 87<81 155 81 155>
VStem: 81 74<609 696 609 696>
LayerCount: 2
Fore
SplineSet
81 609 m 1
 81 696 l 1
 155 696 l 1
 155 609 l 1
 81 609 l 1
EndSplineSet
EndChar

StartChar: hungarumlaut
Encoding: 733 733 10
Width: 236
Flags: MW
HStem: 700 20G<148 148 341 341>
VStem: -51 392<624 720>
LayerCount: 2
Fore
SplineSet
142 624 m 1
 287 763 l 1
 341 720 l 1
 193 582 l 1
 142 624 l 1
-51 624 m 1
 94 762 l 1
 148 720 l 1
 1 582 l 1
 -51 624 l 1
EndSplineSet
EndChar

StartChar: grave
Encoding: 96 96 11
Width: 236
Flags: MW
HStem: 591 149
VStem: -1 242<642 676>
LayerCount: 2
Fore
SplineSet
25 740 m 1
 241 642 l 1
 220 591 l 1
 -1 676 l 1
 25 740 l 1
EndSplineSet
EndChar

StartChar: macron
Encoding: 175 175 12
Width: 236
Flags: MW
HStem: 624 59<-14 261 -14 261>
VStem: -14 275<624 683 624 683>
LayerCount: 2
Fore
SplineSet
-14 624 m 1
 -14 683 l 1
 261 683 l 1
 261 624 l 1
 -14 624 l 1
EndSplineSet
EndChar

StartChar: ogonek
Encoding: 731 731 13
Width: 450
Flags: MW
HStem: -206 61<290 297>
VStem: 188 73<-114.5 -89.5>
LayerCount: 2
Fore
SplineSet
332 1 m 1
 332 1 261 -69 261 -102 c 0
 261 -127 278 -145 302 -145 c 0
 316 -145 352 -139 352 -139 c 1
 359 -197 l 1
 359 -197 314 -206 280 -206 c 0
 228 -206 188 -173 188 -119 c 0
 188 -60 271 8 271 8 c 1
 332 1 l 1
EndSplineSet
EndChar

StartChar: ring
Encoding: 730 730 14
Width: 236
Flags: MW
HStem: 541 47<106.5 137.5 106.5 151> 701 48<106.5 137.5>
VStem: 18 49<629 660.5 629 674> 177 48<629 660.5>
LayerCount: 2
Fore
SplineSet
18 645 m 0
 18 703 63 749 122 749 c 0
 180 749 225 703 225 645 c 0
 225 586 180 541 122 541 c 0
 63 541 18 586 18 645 c 0
67 645 m 0
 67 613 91 588 122 588 c 0
 153 588 177 613 177 645 c 0
 177 676 153 701 122 701 c 0
 91 701 67 676 67 645 c 0
EndSplineSet
EndChar

StartChar: tilde
Encoding: 732 732 15
Width: 236
Flags: MW
HStem: 612 61<185 210.5 185 220> 659 60<49 77> 663 21G<286 286>
VStem: -30 316<663 667>
LayerCount: 2
Fore
SplineSet
269 711 m 1x90
 286 663 l 1x30
 286 663 240 612 200 612 c 0x90
 160 612 93 659 61 659 c 0
 37 659 -12 619 -12 619 c 1
 -30 667 l 1
 -30 667 20 719 61 719 c 0x50
 101 719 170 673 200 673 c 0
 221 673 269 711 269 711 c 1x90
EndSplineSet
EndChar

StartChar: A
Encoding: 65 65 16
Width: 596
Flags: MW
HStem: 0 21G<24 24 24 100 496 496 496 572> 178 69<167 429 167 446 150 429> 626 66<272 272 272 324>
VStem: 24 548<0 0>
LayerCount: 2
Fore
SplineSet
24 0 m 1
 214 692 l 1
 382 692 l 1
 572 0 l 1
 496 0 l 1
 446 178 l 1
 150 178 l 1
 100 0 l 1
 24 0 l 1
272 626 m 1
 167 247 l 1
 429 247 l 1
 324 626 l 1
 272 626 l 1
EndSplineSet
Position2: "'cpsp' Capital Spacing in Lateinisch lookup 0 subtable" dx=5 dy=0 dh=10 dv=0
EndChar

StartChar: Aacute
Encoding: 193 193 17
Width: 596
Flags: MW
HStem: 0 21G<24 24 24 100 496 496 496 572> 178 69<167 429 167 446 150 429> 626 66<272 272 272 324>
VStem: 24 548<0 0>
LayerCount: 2
Fore
SplineSet
24 0 m 1
 214 692 l 1
 382 692 l 1
 572 0 l 1
 496 0 l 1
 446 178 l 1
 150 178 l 1
 100 0 l 1
 24 0 l 1
272 626 m 1
 167 247 l 1
 429 247 l 1
 324 626 l 1
 272 626 l 1
186 831 m 1
 402 931 l 1
 428 865 l 1
 209 778 l 1
 186 831 l 1
EndSplineSet
Position2: "'cpsp' Capital Spacing in Lateinisch lookup 0 subtable" dx=5 dy=0 dh=10 dv=0
EndChar

StartChar: Abreve
Encoding: 258 258 18
Width: 596
Flags: MW
HStem: 0 21G<24 24 24 100 496 496 496 572> 178 69<167 429 167 446 150 429> 626 66<272 272 272 324> 787 56<272 320.5 272 342.5>
VStem: 24 548<0 0>
LayerCount: 2
Fore
SplineSet
24 0 m 1
 214 692 l 1
 382 692 l 1
 572 0 l 1
 496 0 l 1
 446 178 l 1
 150 178 l 1
 100 0 l 1
 24 0 l 1
272 626 m 1
 167 247 l 1
 429 247 l 1
 324 626 l 1
 272 626 l 1
139 918 m 1
 208 918 l 1
 210 873 248 843 296 843 c 0
 345 843 383 873 384 918 c 1
 454 918 l 1
 450 840 389 787 296 787 c 0
 203 787 143 840 139 918 c 1
EndSplineSet
Position2: "'cpsp' Capital Spacing in Lateinisch lookup 0 subtable" dx=5 dy=0 dh=10 dv=0
EndChar

StartChar: Acircumflex
Encoding: 194 194 19
Width: 596
Flags: MW
HStem: 0 21G<24 24 24 100 496 496 496 572> 178 69<167 429 167 446 150 429> 626 66<272 272 272 324> 791 135<130 329 130 329 264 379 264 463>
VStem: 24 548<0 0>
LayerCount: 2
Fore
SplineSet
24 0 m 1
 214 692 l 1
 382 692 l 1
 572 0 l 1
 496 0 l 1
 446 178 l 1
 150 178 l 1
 100 0 l 1
 24 0 l 1
272 626 m 1
 167 247 l 1
 429 247 l 1
 324 626 l 1
 272 626 l 1
130 791 m 1
 264 926 l 1
 329 926 l 1
 463 791 l 1
 379 791 l 1
 297 871 l 1
 214 791 l 1
 130 791 l 1
EndSplineSet
Position2: "'cpsp' Capital Spacing in Lateinisch lookup 0 subtable" dx=5 dy=0 dh=10 dv=0
EndChar

StartChar: Agrave
Encoding: 192 192 20
Width: 596
Flags: MW
HStem: 0 21G<24 24 24 100 496 496 496 572> 178 69<167 429 167 446 150 429> 626 66<272 272 272 324>
VStem: 24 548<0 0>
LayerCount: 2
Fore
SplineSet
24 0 m 1
 214 692 l 1
 382 692 l 1
 572 0 l 1
 496 0 l 1
 446 178 l 1
 150 178 l 1
 100 0 l 1
 24 0 l 1
272 626 m 1
 167 247 l 1
 429 247 l 1
 324 626 l 1
 272 626 l 1
189 931 m 1
 405 831 l 1
 382 778 l 1
 163 865 l 1
 189 931 l 1
EndSplineSet
Position2: "'cpsp' Capital Spacing in Lateinisch lookup 0 subtable" dx=5 dy=0 dh=10 dv=0
EndChar

StartChar: Adieresis
Encoding: 196 196 21
Width: 596
Flags: MW
HStem: 0 21G<24 24 24 100 496 496 496 572> 178 69<167 429 167 446 150 429> 626 66<272 272 272 324> 808 90<159 232 159 232 363 435>
VStem: 159 73<808 898 808 898> 363 72<808 898 808 898>
LayerCount: 2
Fore
SplineSet
24 0 m 1
 214 692 l 1
 382 692 l 1
 572 0 l 1
 496 0 l 1
 446 178 l 1
 150 178 l 1
 100 0 l 1
 24 0 l 1
272 626 m 1
 167 247 l 1
 429 247 l 1
 324 626 l 1
 272 626 l 1
159 808 m 1
 159 898 l 1
 232 898 l 1
 232 808 l 1
 159 808 l 1
363 808 m 1
 363 898 l 1
 435 898 l 1
 435 808 l 1
 363 808 l 1
EndSplineSet
Position2: "'cpsp' Capital Spacing in Lateinisch lookup 0 subtable" dx=5 dy=0 dh=10 dv=0
EndChar

StartChar: Amacron
Encoding: 256 256 22
Width: 596
Flags: MW
HStem: 0 21G<24 24 24 100 496 496 496 572> 178 69<167 429 167 446 150 429> 626 66<272 272 272 324> 812 58<141 452 141 452>
VStem: 24 548<0 0>
LayerCount: 2
Fore
SplineSet
24 0 m 1
 214 692 l 1
 382 692 l 1
 572 0 l 1
 496 0 l 1
 446 178 l 1
 150 178 l 1
 100 0 l 1
 24 0 l 1
272 626 m 1
 167 247 l 1
 429 247 l 1
 324 626 l 1
 272 626 l 1
141 812 m 1
 141 870 l 1
 452 870 l 1
 452 812 l 1
 141 812 l 1
EndSplineSet
Position2: "'cpsp' Capital Spacing in Lateinisch lookup 0 subtable" dx=5 dy=0 dh=10 dv=0
EndChar

StartChar: Aogonek
Encoding: 260 260 23
Width: 596
Flags: MW
HStem: -206 61<523 530> 0 21G<24 24 24 100 564 564 564 572> 178 69<167 429 167 446 150 429> 626 66<272 272 272 324>
VStem: 421 73<-114.5 -95>
LayerCount: 2
Fore
SplineSet
24 0 m 1
 214 692 l 1
 382 692 l 1
 572 0 l 1
 564 0 l 2
 561 -3 494 -70 494 -102 c 0
 494 -127 511 -145 535 -145 c 0
 549 -145 585 -139 585 -139 c 1
 592 -197 l 1
 592 -197 547 -206 513 -206 c 0
 461 -206 421 -173 421 -119 c 0
 421 -71 475 -17 496 1 c 1
 446 178 l 1
 150 178 l 1
 100 0 l 1
 24 0 l 1
272 626 m 1
 167 247 l 1
 429 247 l 1
 324 626 l 1
 272 626 l 1
EndSplineSet
Position2: "'cpsp' Capital Spacing in Lateinisch lookup 0 subtable" dx=5 dy=0 dh=10 dv=0
EndChar

StartChar: Aring
Encoding: 197 197 24
Width: 596
Flags: MW
HStem: 0 21G<24 100 24 24 496 572 496 496> 178 69<167 429 167 446 150 429> 626 66<272 315 278 315 278 324> 669 21G<208 208> 797 52<277.5 316>
VStem: 178 57<730 761 730 777.5> 359 56<730 761>
LayerCount: 2
Fore
SplineSet
415 744 m 0xde
 415 713 404 689 387 671 c 1
 572 0 l 1
 496 0 l 1
 446 178 l 1
 150 178 l 1
 100 0 l 1
 24 0 l 1
 208 669 l 1
 189 687 178 712 178 744 c 0
 178 811 229 849 297 849 c 0
 364 849 415 811 415 744 c 0xde
272 626 m 1xee
 167 247 l 1
 429 247 l 1
 324 626 l 1
 272 626 l 1xee
235 744 m 0
 235 716 250 697 278 692 c 1
 315 692 l 1
 342 697 359 716 359 744 c 0
 359 778 335 797 297 797 c 0
 258 797 235 778 235 744 c 0
EndSplineSet
Position2: "'cpsp' Capital Spacing in Lateinisch lookup 0 subtable" dx=5 dy=0 dh=10 dv=0
EndChar

StartChar: Atilde
Encoding: 195 195 25
Width: 596
Flags: MW
HStem: 0 21G<24 24 24 100 496 496 496 572> 178 69<167 429 167 446 150 429> 626 66<272 272 272 324> 803 66<361 386.5 361 398> 857 66<203 231>
VStem: 24 548<0 0>
LayerCount: 2
Fore
SplineSet
24 0 m 1xf4
 214 692 l 1
 382 692 l 1
 572 0 l 1
 496 0 l 1
 446 178 l 1
 150 178 l 1
 100 0 l 1
 24 0 l 1xf4
272 626 m 1
 167 247 l 1
 429 247 l 1
 324 626 l 1
 272 626 l 1
444 915 m 1
 462 859 l 1
 462 859 418 803 378 803 c 0xf4
 331 803 247 857 215 857 c 0
 191 857 142 809 142 809 c 1
 125 865 l 1
 125 865 173 923 214 923 c 0xec
 264 923 346 869 376 869 c 0
 397 869 444 915 444 915 c 1
EndSplineSet
Position2: "'cpsp' Capital Spacing in Lateinisch lookup 0 subtable" dx=5 dy=0 dh=10 dv=0
EndChar

StartChar: AE
Encoding: 198 198 26
Width: 876
Flags: MW
HStem: 0 73<484 829 484 829> 175 74<178 408 178 408 157 408> 320 73<484 769 484 769> 623 73<300 300 300 409 484 829 484 484>
VStem: 408.5 75.5
LayerCount: 2
Fore
SplineSet
408 0 m 1
 408 175 l 1
 157 175 l 1
 99 0 l 1
 20 0 l 1
 244 696 l 1
 829 696 l 1
 829 623 l 1
 484 623 l 1
 484 393 l 1
 769 393 l 1
 769 320 l 1
 484 320 l 1
 484 73 l 1
 829 73 l 1
 829 0 l 1
 408 0 l 1
300 623 m 1
 178 249 l 1
 408 249 l 1
 409 623 l 1
 300 623 l 1
EndSplineSet
Position2: "'cpsp' Capital Spacing in Lateinisch lookup 0 subtable" dx=5 dy=0 dh=10 dv=0
EndChar

StartChar: AEacute
Encoding: 508 508 27
Width: 876
Flags: MW
HStem: 0 73<484 829 484 829> 175 74<178 408 178 408 157 408> 320 73<484 769 484 769> 623 73<300 300 300 409 484 829 484 484>
VStem: 408.5 75.5
LayerCount: 2
Fore
SplineSet
408 0 m 1
 408 175 l 1
 157 175 l 1
 99 0 l 1
 20 0 l 1
 244 696 l 1
 829 696 l 1
 829 623 l 1
 484 623 l 1
 484 393 l 1
 769 393 l 1
 769 320 l 1
 484 320 l 1
 484 73 l 1
 829 73 l 1
 829 0 l 1
 408 0 l 1
300 623 m 1
 178 249 l 1
 408 249 l 1
 409 623 l 1
 300 623 l 1
413 831 m 1
 629 931 l 1
 655 865 l 1
 436 778 l 1
 413 831 l 1
EndSplineSet
Position2: "'cpsp' Capital Spacing in Lateinisch lookup 0 subtable" dx=5 dy=0 dh=10 dv=0
EndChar

StartChar: B
Encoding: 66 66 28
Width: 616
Flags: MW
HStem: 0 68<162 346 346 349> 318 67<162 340 340 341 162 340> 624 68<162 333 162 162>
VStem: 85 77<68 318 68 385 385 624> 463 79<471 549.5> 485 78<146 244 121 250.5>
LayerCount: 2
Fore
SplineSet
85 692 m 1xf4
 336 692 l 2
 471 692 542 639 542 516 c 0xf8
 542 426 509 383 453 357 c 1
 514 336 563 294 563 194 c 0
 563 48 479 0 349 0 c 2
 85 0 l 1
 85 692 l 1xf4
341 318 m 2
 162 318 l 1
 162 68 l 1
 346 68 l 2
 430 68 485 95 485 197 c 0xf4
 485 304 394 318 341 318 c 2
333 624 m 2
 162 624 l 1
 162 385 l 1
 340 385 l 2
 427 385 463 426 463 509 c 0xf8
 463 590 421 624 333 624 c 2
EndSplineSet
Position2: "'cpsp' Capital Spacing in Lateinisch lookup 0 subtable" dx=5 dy=0 dh=10 dv=0
EndChar

StartChar: C
Encoding: 67 67 29
Width: 544
Flags: MW
HStem: -10 69<243 345> 633 69<243 347>
VStem: 59 80<247.5 442.5 247.5 461>
LayerCount: 2
Fore
SplineSet
500 77 m 1
 503 11 l 1
 454 1 378 -10 312 -10 c 0
 105 -10 59 116 59 344 c 0
 59 578 104 702 312 702 c 0
 383 702 459 689 503 680 c 1
 500 615 l 1
 455 623 374 633 320 633 c 0
 166 633 139 541 139 344 c 0
 139 151 164 59 322 59 c 0
 378 59 452 68 500 77 c 1
EndSplineSet
Position2: "'cpsp' Capital Spacing in Lateinisch lookup 0 subtable" dx=5 dy=0 dh=10 dv=0
EndChar

StartChar: Cacute
Encoding: 262 262 30
Width: 544
Flags: MW
HStem: -10 69<243 345> 633 69<243 347>
VStem: 59 80<247.5 442.5 247.5 461>
LayerCount: 2
Fore
SplineSet
500 77 m 1
 503 11 l 1
 454 1 378 -10 312 -10 c 0
 105 -10 59 116 59 344 c 0
 59 578 104 702 312 702 c 0
 383 702 459 689 503 680 c 1
 500 615 l 1
 455 623 374 633 320 633 c 0
 166 633 139 541 139 344 c 0
 139 151 164 59 322 59 c 0
 378 59 452 68 500 77 c 1
181 831 m 1
 397 931 l 1
 423 865 l 1
 204 778 l 1
 181 831 l 1
EndSplineSet
Position2: "'cpsp' Capital Spacing in Lateinisch lookup 0 subtable" dx=5 dy=0 dh=10 dv=0
EndChar

StartChar: Ccaron
Encoding: 268 268 31
Width: 544
Flags: MW
HStem: -10 69<243 345> 633 69<243 347> 791 135<137 271 137 336>
VStem: 59 80<247.5 442.5 247.5 461>
LayerCount: 2
Fore
SplineSet
500 77 m 1
 503 11 l 1
 454 1 378 -10 312 -10 c 0
 105 -10 59 116 59 344 c 0
 59 578 104 702 312 702 c 0
 383 702 459 689 503 680 c 1
 500 615 l 1
 455 623 374 633 320 633 c 0
 166 633 139 541 139 344 c 0
 139 151 164 59 322 59 c 0
 378 59 452 68 500 77 c 1
271 791 m 1
 137 926 l 1
 221 926 l 1
 304 846 l 1
 386 926 l 1
 470 926 l 1
 336 791 l 1
 271 791 l 1
EndSplineSet
Position2: "'cpsp' Capital Spacing in Lateinisch lookup 0 subtable" dx=5 dy=0 dh=10 dv=0
EndChar

StartChar: Ccedilla
Encoding: 199 199 32
Width: 544
Flags: MW
HStem: -217 52<318 337 309.5 368> -93 44<322 323 281 359> -10 69<322 322> 633 69<243 347>
VStem: 59 80<247.5 442.5 247.5 461> 281 41<-49 -10 -49 -9 -49 -9> 367 66<-141 -114.5>
LayerCount: 2
Fore
SplineSet
433 -127 m 0
 433 -190 396 -217 340 -217 c 0
 296 -217 254 -210 254 -210 c 1
 257 -162 l 1
 257 -162 296 -165 323 -165 c 0
 351 -165 367 -155 367 -127 c 0
 367 -102 351 -93 323 -93 c 2
 281 -93 l 1
 281 -9 l 1
 100 3 59 128 59 344 c 0
 59 578 104 702 312 702 c 0
 383 702 459 689 503 680 c 1
 500 615 l 1
 455 623 374 633 320 633 c 0
 166 633 139 541 139 344 c 0
 139 151 164 59 322 59 c 0
 378 59 452 68 500 77 c 1
 503 11 l 1
 456 1 385 -9 322 -10 c 1
 322 -49 l 1
 396 -49 433 -63 433 -127 c 0
EndSplineSet
Position2: "'cpsp' Capital Spacing in Lateinisch lookup 0 subtable" dx=5 dy=0 dh=10 dv=0
EndChar

StartChar: Ccircumflex
Encoding: 264 264 33
Width: 544
Flags: MW
HStem: -10 69<243 345> 633 69<243 347> 791 135<144 343 144 343 278 393 278 477>
VStem: 59 80<247.5 442.5 247.5 461>
LayerCount: 2
Fore
SplineSet
500 77 m 1
 503 11 l 1
 454 1 378 -10 312 -10 c 0
 105 -10 59 116 59 344 c 0
 59 578 104 702 312 702 c 0
 383 702 459 689 503 680 c 1
 500 615 l 1
 455 623 374 633 320 633 c 0
 166 633 139 541 139 344 c 0
 139 151 164 59 322 59 c 0
 378 59 452 68 500 77 c 1
144 791 m 1
 278 926 l 1
 343 926 l 1
 477 791 l 1
 393 791 l 1
 311 871 l 1
 228 791 l 1
 144 791 l 1
EndSplineSet
Position2: "'cpsp' Capital Spacing in Lateinisch lookup 0 subtable" dx=5 dy=0 dh=10 dv=0
EndChar

StartChar: Cdotaccent
Encoding: 266 266 34
Width: 544
Flags: MW
HStem: -10 69<243 345> 633 69<243 347> 798 87<255 329 255 329>
VStem: 59 80<247.5 442.5 247.5 461> 255 74<798 885 798 885>
LayerCount: 2
Fore
SplineSet
500 77 m 1
 503 11 l 1
 454 1 378 -10 312 -10 c 0
 105 -10 59 116 59 344 c 0
 59 578 104 702 312 702 c 0
 383 702 459 689 503 680 c 1
 500 615 l 1
 455 623 374 633 320 633 c 0
 166 633 139 541 139 344 c 0
 139 151 164 59 322 59 c 0
 378 59 452 68 500 77 c 1
255 798 m 1
 255 885 l 1
 329 885 l 1
 329 798 l 1
 255 798 l 1
EndSplineSet
Position2: "'cpsp' Capital Spacing in Lateinisch lookup 0 subtable" dx=5 dy=0 dh=10 dv=0
EndChar

StartChar: D
Encoding: 68 68 35
Width: 645
Flags: MW
HStem: 0 68<162 332 162 332> 624 68<162 332 162 162>
VStem: 85 77<68 624 68 692 68 692> 509 79<281 431>
LayerCount: 2
Fore
SplineSet
332 0 m 2
 85 0 l 1
 85 692 l 1
 332 692 l 2
 533 692 588 552 588 356 c 0
 588 158 536 0 332 0 c 2
509 356 m 0
 509 506 476 624 332 624 c 2
 162 624 l 1
 162 68 l 1
 332 68 l 2
 476 68 509 206 509 356 c 0
EndSplineSet
Position2: "'cpsp' Capital Spacing in Lateinisch lookup 0 subtable" dx=5 dy=0 dh=10 dv=0
EndChar

StartChar: Dcaron
Encoding: 270 270 36
Width: 645
Flags: MW
HStem: 0 68<162 332 162 332> 624 68<162 332 162 162> 791 135<128 262 128 327>
VStem: 85 77<68 624 68 692 68 692> 509 79<281 431>
LayerCount: 2
Fore
SplineSet
332 0 m 2
 85 0 l 1
 85 692 l 1
 332 692 l 2
 533 692 588 552 588 356 c 0
 588 158 536 0 332 0 c 2
509 356 m 0
 509 506 476 624 332 624 c 2
 162 624 l 1
 162 68 l 1
 332 68 l 2
 476 68 509 206 509 356 c 0
262 791 m 1
 128 926 l 1
 212 926 l 1
 295 846 l 1
 377 926 l 1
 461 926 l 1
 327 791 l 1
 262 791 l 1
EndSplineSet
Position2: "'cpsp' Capital Spacing in Lateinisch lookup 0 subtable" dx=5 dy=0 dh=10 dv=0
EndChar

StartChar: Dcroat
Encoding: 272 272 37
Width: 647
Flags: MW
HStem: 0 73<164 335 164 335> 311 73<20 88 20 88 164 322> 623 73<164 335 164 164>
VStem: 88 76<73 311 73 311 73 311 384 623> 511 80<285.5 432>
LayerCount: 2
Fore
SplineSet
20 311 m 1
 20 384 l 1
 88 384 l 1
 88 696 l 1
 335 696 l 2
 535 696 591 556 591 359 c 0
 591 160 538 0 335 0 c 2
 88 0 l 1
 88 311 l 1
 20 311 l 1
511 359 m 0
 511 505 478 623 335 623 c 2
 164 623 l 1
 164 384 l 1
 322 384 l 1
 322 311 l 1
 164 311 l 1
 164 73 l 1
 335 73 l 2
 478 73 511 212 511 359 c 0
EndSplineSet
Position2: "'cpsp' Capital Spacing in Lateinisch lookup 0 subtable" dx=5 dy=0 dh=10 dv=0
EndChar

StartChar: E
Encoding: 69 69 38
Width: 553
Flags: MW
HStem: 0 68<162 506 162 506> 318 67<162 446 162 446> 624 68<162 506 162 162>
VStem: 85 77<68 318 385 624>
LayerCount: 2
Fore
SplineSet
85 0 m 1
 85 692 l 1
 506 692 l 1
 506 624 l 1
 162 624 l 1
 162 385 l 1
 446 385 l 1
 446 318 l 1
 162 318 l 1
 162 68 l 1
 506 68 l 1
 506 0 l 1
 85 0 l 1
EndSplineSet
Position2: "'cpsp' Capital Spacing in Lateinisch lookup 0 subtable" dx=5 dy=0 dh=10 dv=0
EndChar

StartChar: Eacute
Encoding: 201 201 39
Width: 553
Flags: MW
HStem: 0 68<162 506 162 506> 318 67<162 446 162 446> 624 68<162 506 162 162>
VStem: 85 77<68 318 385 624>
LayerCount: 2
Fore
SplineSet
85 0 m 1
 85 692 l 1
 506 692 l 1
 506 624 l 1
 162 624 l 1
 162 385 l 1
 446 385 l 1
 446 318 l 1
 162 318 l 1
 162 68 l 1
 506 68 l 1
 506 0 l 1
 85 0 l 1
176 831 m 1
 392 931 l 1
 418 865 l 1
 199 778 l 1
 176 831 l 1
EndSplineSet
Position2: "'cpsp' Capital Spacing in Lateinisch lookup 0 subtable" dx=5 dy=0 dh=10 dv=0
EndChar

StartChar: Ebreve
Encoding: 276 276 40
Width: 553
Flags: MW
HStem: 0 68<162 506 162 506> 318 67<162 446 162 446> 624 68<162 506 162 162> 787 56<280 328.5 280 350.5>
VStem: 85 77<68 318 385 624>
LayerCount: 2
Fore
SplineSet
85 0 m 1
 85 692 l 1
 506 692 l 1
 506 624 l 1
 162 624 l 1
 162 385 l 1
 446 385 l 1
 446 318 l 1
 162 318 l 1
 162 68 l 1
 506 68 l 1
 506 0 l 1
 85 0 l 1
147 918 m 1
 216 918 l 1
 218 873 256 843 304 843 c 0
 353 843 391 873 392 918 c 1
 462 918 l 1
 458 840 397 787 304 787 c 0
 211 787 151 840 147 918 c 1
EndSplineSet
Position2: "'cpsp' Capital Spacing in Lateinisch lookup 0 subtable" dx=5 dy=0 dh=10 dv=0
EndChar

StartChar: Ecaron
Encoding: 282 282 41
Width: 553
Flags: MW
HStem: 0 68<162 506 162 506> 318 67<162 446 162 446> 624 68<162 506 162 162> 791 135<124 258 124 323>
VStem: 85 77<68 318 385 624>
LayerCount: 2
Fore
SplineSet
85 0 m 1
 85 692 l 1
 506 692 l 1
 506 624 l 1
 162 624 l 1
 162 385 l 1
 446 385 l 1
 446 318 l 1
 162 318 l 1
 162 68 l 1
 506 68 l 1
 506 0 l 1
 85 0 l 1
258 791 m 1
 124 926 l 1
 208 926 l 1
 291 846 l 1
 373 926 l 1
 457 926 l 1
 323 791 l 1
 258 791 l 1
EndSplineSet
Position2: "'cpsp' Capital Spacing in Lateinisch lookup 0 subtable" dx=5 dy=0 dh=10 dv=0
EndChar

StartChar: Ecircumflex
Encoding: 202 202 42
Width: 553
Flags: MW
HStem: 0 68<162 506 162 506> 318 67<162 446 162 446> 624 68<162 506 162 162> 791 135<127 326 127 326 261 376 261 460>
VStem: 85 77<68 318 385 624>
LayerCount: 2
Fore
SplineSet
85 0 m 1
 85 692 l 1
 506 692 l 1
 506 624 l 1
 162 624 l 1
 162 385 l 1
 446 385 l 1
 446 318 l 1
 162 318 l 1
 162 68 l 1
 506 68 l 1
 506 0 l 1
 85 0 l 1
127 791 m 1
 261 926 l 1
 326 926 l 1
 460 791 l 1
 376 791 l 1
 294 871 l 1
 211 791 l 1
 127 791 l 1
EndSplineSet
Position2: "'cpsp' Capital Spacing in Lateinisch lookup 0 subtable" dx=5 dy=0 dh=10 dv=0
EndChar

StartChar: Edieresis
Encoding: 203 203 43
Width: 553
Flags: MW
HStem: 0 68<162 506 162 506> 318 67<162 446 162 446> 624 68<162 506 162 162> 808 90<157 230 157 230 361 433>
VStem: 85 77<68 318 385 624> 157 73<808 898 808 898> 361 72<808 898 808 898>
LayerCount: 2
Fore
SplineSet
85 0 m 1xfa
 85 692 l 1
 506 692 l 1
 506 624 l 1
 162 624 l 1
 162 385 l 1
 446 385 l 1
 446 318 l 1
 162 318 l 1
 162 68 l 1
 506 68 l 1
 506 0 l 1
 85 0 l 1xfa
157 808 m 1xf6
 157 898 l 1
 230 898 l 1
 230 808 l 1
 157 808 l 1xf6
361 808 m 1
 361 898 l 1
 433 898 l 1
 433 808 l 1
 361 808 l 1
EndSplineSet
Position2: "'cpsp' Capital Spacing in Lateinisch lookup 0 subtable" dx=5 dy=0 dh=10 dv=0
EndChar

StartChar: Edotaccent
Encoding: 278 278 44
Width: 553
Flags: MW
HStem: 0 68<162 506 162 506> 318 67<162 446 162 446> 624 68<162 506 162 162> 801 87<260 334 260 334>
VStem: 85 77<68 318 385 624> 260 74<801 888 801 888>
LayerCount: 2
Fore
SplineSet
85 0 m 1
 85 692 l 1
 506 692 l 1
 506 624 l 1
 162 624 l 1
 162 385 l 1
 446 385 l 1
 446 318 l 1
 162 318 l 1
 162 68 l 1
 506 68 l 1
 506 0 l 1
 85 0 l 1
260 801 m 1
 260 888 l 1
 334 888 l 1
 334 801 l 1
 260 801 l 1
EndSplineSet
Position2: "'cpsp' Capital Spacing in Lateinisch lookup 0 subtable" dx=5 dy=0 dh=10 dv=0
EndChar

StartChar: Egrave
Encoding: 200 200 45
Width: 553
Flags: MW
HStem: 0 68<162 506 162 506> 318 67<162 446 162 446> 624 68<162 506 162 162>
VStem: 85 77<68 318 385 624>
LayerCount: 2
Fore
SplineSet
85 0 m 1
 85 692 l 1
 506 692 l 1
 506 624 l 1
 162 624 l 1
 162 385 l 1
 446 385 l 1
 446 318 l 1
 162 318 l 1
 162 68 l 1
 506 68 l 1
 506 0 l 1
 85 0 l 1
195 931 m 1
 411 831 l 1
 388 778 l 1
 169 865 l 1
 195 931 l 1
EndSplineSet
Position2: "'cpsp' Capital Spacing in Lateinisch lookup 0 subtable" dx=5 dy=0 dh=10 dv=0
EndChar

StartChar: Emacron
Encoding: 274 274 46
Width: 553
Flags: MW
HStem: 0 68<162 506 162 506> 318 67<162 446 162 446> 624 68<162 506 162 162> 812 58<138 449 138 449>
VStem: 85 77<68 318 385 624>
LayerCount: 2
Fore
SplineSet
85 0 m 1
 85 692 l 1
 506 692 l 1
 506 624 l 1
 162 624 l 1
 162 385 l 1
 446 385 l 1
 446 318 l 1
 162 318 l 1
 162 68 l 1
 506 68 l 1
 506 0 l 1
 85 0 l 1
138 812 m 1
 138 870 l 1
 449 870 l 1
 449 812 l 1
 138 812 l 1
EndSplineSet
Position2: "'cpsp' Capital Spacing in Lateinisch lookup 0 subtable" dx=5 dy=0 dh=10 dv=0
EndChar

StartChar: Eogonek
Encoding: 280 280 47
Width: 553
Flags: MW
HStem: -206 61<436 443> 0 68<162 408 477 477 477 506> 318 67<162 446 162 446> 624 68<162 506 162 162>
VStem: 85 77<68 318 385 624> 334 73<-114.5 -95.5>
LayerCount: 2
Fore
SplineSet
85 0 m 1
 85 692 l 1
 506 692 l 1
 506 624 l 1
 162 624 l 1
 162 385 l 1
 446 385 l 1
 446 318 l 1
 162 318 l 1
 162 68 l 1
 506 68 l 1
 506 0 l 1
 477 0 l 2
 474 -3 407 -70 407 -102 c 0
 407 -127 424 -145 448 -145 c 0
 462 -145 498 -139 498 -139 c 1
 505 -197 l 1
 505 -197 460 -206 426 -206 c 0
 374 -206 334 -173 334 -119 c 0
 334 -72 386 -19 408 0 c 1
 85 0 l 1
EndSplineSet
Position2: "'cpsp' Capital Spacing in Lateinisch lookup 0 subtable" dx=5 dy=0 dh=10 dv=0
EndChar

StartChar: F
Encoding: 70 70 48
Width: 526
Flags: MW
HStem: 0 21G<85 85 85 162> 286 68<162 447 162 447> 624 68<162 499 162 162>
VStem: 85 77<0 286 354 624>
LayerCount: 2
Fore
SplineSet
85 0 m 1
 85 692 l 1
 499 692 l 1
 499 624 l 1
 162 624 l 1
 162 354 l 1
 447 354 l 1
 447 286 l 1
 162 286 l 1
 162 0 l 1
 85 0 l 1
EndSplineSet
Position2: "'cpsp' Capital Spacing in Lateinisch lookup 0 subtable" dx=5 dy=0 dh=10 dv=0
EndChar

StartChar: G
Encoding: 71 71 49
Width: 616
Flags: MW
HStem: -10 68<251 356 251 363> 285 69<359 550 359 474> 633 69<252 375.5 219 377.5>
VStem: 57 80<248 442 248 459> 474 76<72 285 285 285>
LayerCount: 2
Fore
SplineSet
359 285 m 1
 359 354 l 1
 550 354 l 1
 550 14 l 1
 529 10 401 -10 325 -10 c 0
 113 -10 57 120 57 344 c 0
 57 574 115 702 323 702 c 0
 428 702 550 676 550 676 c 1
 547 612 l 1
 547 612 423 633 332 633 c 0
 172 633 137 540 137 344 c 0
 137 152 171 58 331 58 c 0
 381 58 448 67 474 72 c 1
 474 285 l 1
 359 285 l 1
EndSplineSet
Position2: "'cpsp' Capital Spacing in Lateinisch lookup 0 subtable" dx=5 dy=0 dh=10 dv=0
EndChar

StartChar: Gbreve
Encoding: 286 286 50
Width: 616
Flags: MW
HStem: -10 68<251 356 251 363> 285 69<359 550 359 474> 633 69<252 375.5 219 377.5> 787 56<304 352.5 304 374.5>
VStem: 57 80<248 442 248 459> 474 76<72 285 285 285>
LayerCount: 2
Fore
SplineSet
359 285 m 1
 359 354 l 1
 550 354 l 1
 550 14 l 1
 529 10 401 -10 325 -10 c 0
 113 -10 57 120 57 344 c 0
 57 574 115 702 323 702 c 0
 428 702 550 676 550 676 c 1
 547 612 l 1
 547 612 423 633 332 633 c 0
 172 633 137 540 137 344 c 0
 137 152 171 58 331 58 c 0
 381 58 448 67 474 72 c 1
 474 285 l 1
 359 285 l 1
171 918 m 1
 240 918 l 1
 242 873 280 843 328 843 c 0
 377 843 415 873 416 918 c 1
 486 918 l 1
 482 840 421 787 328 787 c 0
 235 787 175 840 171 918 c 1
EndSplineSet
Position2: "'cpsp' Capital Spacing in Lateinisch lookup 0 subtable" dx=5 dy=0 dh=10 dv=0
EndChar

StartChar: Gcircumflex
Encoding: 284 284 51
Width: 616
Flags: MW
HStem: -8 68<251 356 251 363> 287 69<359 550 359 474> 635 69<252 375.5 219 377.5> 788 135<156 355 156 355 290 405 290 489>
VStem: 57 80<250 444 250 461> 474 76<74 287 287 287>
LayerCount: 2
Fore
SplineSet
359 287 m 1
 359 356 l 1
 550 356 l 1
 550 16 l 1
 529 12 401 -8 325 -8 c 0
 113 -8 57 122 57 346 c 0
 57 576 115 704 323 704 c 0
 428 704 550 678 550 678 c 1
 547 614 l 1
 547 614 423 635 332 635 c 0
 172 635 137 542 137 346 c 0
 137 154 171 60 331 60 c 0
 381 60 448 69 474 74 c 1
 474 287 l 1
 359 287 l 1
156 788 m 1
 290 923 l 1
 355 923 l 1
 489 788 l 1
 405 788 l 1
 323 868 l 1
 240 788 l 1
 156 788 l 1
EndSplineSet
Position2: "'cpsp' Capital Spacing in Lateinisch lookup 0 subtable" dx=5 dy=0 dh=10 dv=0
EndChar

StartChar: Gcommaaccent
Encoding: 290 290 52
Width: 616
Flags: MW
HStem: -10 68<251 356 251 363> 285 69<359 550 359 474> 633 69<252 375.5 219 377.5>
VStem: 57 80<248 442 248 459> 474 76<72 285 285 285>
LayerCount: 2
Fore
SplineSet
359 285 m 1
 359 354 l 1
 550 354 l 1
 550 14 l 1
 529 10 401 -10 325 -10 c 0
 113 -10 57 120 57 344 c 0
 57 574 115 702 323 702 c 0
 428 702 550 676 550 676 c 1
 547 612 l 1
 547 612 423 633 332 633 c 0
 172 633 137 540 137 344 c 0
 137 152 171 58 331 58 c 0
 381 58 448 67 474 72 c 1
 474 285 l 1
 359 285 l 1
301 -78 m 1
 260 -285 l 1
 325 -285 l 1
 375 -78 l 1
 301 -78 l 1
EndSplineSet
Position2: "'cpsp' Capital Spacing in Lateinisch lookup 0 subtable" dx=5 dy=0 dh=10 dv=0
EndChar

StartChar: Gdotaccent
Encoding: 288 288 53
Width: 616
Flags: MW
HStem: -10 68<251 356 251 363> 285 69<359 550 359 474> 633 69<252 375.5 219 377.5> 801 87<276 350 276 350>
VStem: 57 80<248 442 248 459> 276 74<801 888 801 888> 474 76<72 285 285 285>
LayerCount: 2
Fore
SplineSet
359 285 m 1
 359 354 l 1
 550 354 l 1
 550 14 l 1
 529 10 401 -10 325 -10 c 0
 113 -10 57 120 57 344 c 0
 57 574 115 702 323 702 c 0
 428 702 550 676 550 676 c 1
 547 612 l 1
 547 612 423 633 332 633 c 0
 172 633 137 540 137 344 c 0
 137 152 171 58 331 58 c 0
 381 58 448 67 474 72 c 1
 474 285 l 1
 359 285 l 1
276 801 m 1
 276 888 l 1
 350 888 l 1
 350 801 l 1
 276 801 l 1
EndSplineSet
Position2: "'cpsp' Capital Spacing in Lateinisch lookup 0 subtable" dx=5 dy=0 dh=10 dv=0
EndChar

StartChar: H
Encoding: 72 72 54
Width: 675
Flags: MW
HStem: 0 21G<85 162 85 85 514 590 514 514> 313 69<162 514 162 514>
VStem: 85 77<0 313 0 382 382 692> 514 76<0 313 313 313 382 692 0 692>
LayerCount: 2
Fore
SplineSet
514 0 m 1
 514 313 l 1
 162 313 l 1
 162 0 l 1
 85 0 l 1
 85 692 l 1
 162 692 l 1
 162 382 l 1
 514 382 l 1
 514 692 l 1
 590 692 l 1
 590 0 l 1
 514 0 l 1
EndSplineSet
Position2: "'cpsp' Capital Spacing in Lateinisch lookup 0 subtable" dx=5 dy=0 dh=10 dv=0
EndChar

StartChar: Hbar
Encoding: 294 294 55
Width: 686
Flags: MW
HStem: 0 21G<89 166 89 89 518 594 518 518> 313 69<166 518 166 518> 508 65<15 89 15 89 166 518 594 677>
VStem: 89 77<0 313 382 508 573 692> 518 76<0 313 313 313 382 508 0 508 573 692>
LayerCount: 2
Fore
SplineSet
15 508 m 1
 15 573 l 1
 89 573 l 1
 89 692 l 1
 166 692 l 1
 166 573 l 1
 518 573 l 1
 518 692 l 1
 594 692 l 1
 594 573 l 1
 677 573 l 1
 677 508 l 1
 594 508 l 1
 594 0 l 1
 518 0 l 1
 518 313 l 1
 166 313 l 1
 166 0 l 1
 89 0 l 1
 89 508 l 1
 15 508 l 1
166 382 m 1
 518 382 l 1
 518 508 l 1
 166 508 l 1
 166 382 l 1
EndSplineSet
Position2: "'cpsp' Capital Spacing in Lateinisch lookup 0 subtable" dx=5 dy=0 dh=10 dv=0
EndChar

StartChar: Hcircumflex
Encoding: 292 292 56
Width: 675
Flags: MW
HStem: 0 21G<85 162 85 85 514 590 514 514> 313 69<162 514 162 514> 791 135<172 371 172 371 306 421 306 505>
VStem: 85 77<0 313 0 382 382 692> 514 76<0 313 313 313 382 692 0 692>
LayerCount: 2
Fore
SplineSet
514 0 m 1
 514 313 l 1
 162 313 l 1
 162 0 l 1
 85 0 l 1
 85 692 l 1
 162 692 l 1
 162 382 l 1
 514 382 l 1
 514 692 l 1
 590 692 l 1
 590 0 l 1
 514 0 l 1
172 791 m 1
 306 926 l 1
 371 926 l 1
 505 791 l 1
 421 791 l 1
 339 871 l 1
 256 791 l 1
 172 791 l 1
EndSplineSet
Position2: "'cpsp' Capital Spacing in Lateinisch lookup 0 subtable" dx=5 dy=0 dh=10 dv=0
EndChar

StartChar: I
Encoding: 73 73 57
Width: 246
Flags: MW
HStem: 0 21G<85 85 85 162>
VStem: 85 77<0 692 0 692>
LayerCount: 2
Fore
SplineSet
85 0 m 1
 85 692 l 1
 162 692 l 1
 162 0 l 1
 85 0 l 1
EndSplineSet
Position2: "'cpsp' Capital Spacing in Lateinisch lookup 0 subtable" dx=5 dy=0 dh=10 dv=0
EndChar

StartChar: Iacute
Encoding: 205 205 58
Width: 246
Flags: MW
HStem: 0 21G<85 85 85 162>
VStem: 85 77<0 692 0 692>
LayerCount: 2
Fore
SplineSet
85 0 m 1
 85 692 l 1
 162 692 l 1
 162 0 l 1
 85 0 l 1
13 831 m 1
 229 931 l 1
 255 865 l 1
 36 778 l 1
 13 831 l 1
EndSplineSet
Position2: "'cpsp' Capital Spacing in Lateinisch lookup 0 subtable" dx=5 dy=0 dh=10 dv=0
EndChar

StartChar: Ibreve
Encoding: 300 300 59
Width: 246
Flags: MW
HStem: 0 21G<85 85 85 162> 787 56<107 155.5 107 177.5>
VStem: 85 77<0 692 0 692>
LayerCount: 2
Fore
SplineSet
85 0 m 1
 85 692 l 1
 162 692 l 1
 162 0 l 1
 85 0 l 1
-26 918 m 1
 43 918 l 1
 45 873 83 843 131 843 c 0
 180 843 218 873 219 918 c 1
 289 918 l 1
 285 840 224 787 131 787 c 0
 38 787 -22 840 -26 918 c 1
EndSplineSet
Position2: "'cpsp' Capital Spacing in Lateinisch lookup 0 subtable" dx=5 dy=0 dh=10 dv=0
EndChar

StartChar: Icircumflex
Encoding: 206 206 60
Width: 246
Flags: MW
HStem: 0 21G<85 85 85 162> 791 135<-47 152 -47 152 87 202 87 286>
VStem: 85 77<0 692 0 692>
LayerCount: 2
Fore
SplineSet
85 0 m 1
 85 692 l 1
 162 692 l 1
 162 0 l 1
 85 0 l 1
-47 791 m 1
 87 926 l 1
 152 926 l 1
 286 791 l 1
 202 791 l 1
 120 871 l 1
 37 791 l 1
 -47 791 l 1
EndSplineSet
Position2: "'cpsp' Capital Spacing in Lateinisch lookup 0 subtable" dx=5 dy=0 dh=10 dv=0
EndChar

StartChar: Idieresis
Encoding: 207 207 61
Width: 246
Flags: MW
HStem: 0 21G<85 85 85 162> 808 90<-15 58 -15 58 189 261>
VStem: -15 73<808 898 808 898> 85 77<0 692 0 692> 189 72<808 898 808 898>
LayerCount: 2
Fore
SplineSet
85 0 m 1
 85 692 l 1
 162 692 l 1
 162 0 l 1
 85 0 l 1
-15 808 m 1xf8
 -15 898 l 1
 58 898 l 1
 58 808 l 1
 -15 808 l 1xf8
189 808 m 1
 189 898 l 1
 261 898 l 1
 261 808 l 1
 189 808 l 1
EndSplineSet
Position2: "'cpsp' Capital Spacing in Lateinisch lookup 0 subtable" dx=5 dy=0 dh=10 dv=0
EndChar

StartChar: Idotaccent
Encoding: 304 304 62
Width: 246
Flags: MW
HStem: 0 21G<85 85 85 162> 801 87<86 160 86 160>
VStem: 85 77<0 692 0 692>
LayerCount: 2
Fore
SplineSet
85 0 m 1
 85 692 l 1
 162 692 l 1
 162 0 l 1
 85 0 l 1
86 801 m 1
 86 888 l 1
 160 888 l 1
 160 801 l 1
 86 801 l 1
EndSplineSet
Position2: "'cpsp' Capital Spacing in Lateinisch lookup 0 subtable" dx=5 dy=0 dh=10 dv=0
EndChar

StartChar: Igrave
Encoding: 204 204 63
Width: 246
Flags: MW
HStem: 0 21G<85 85 85 162>
VStem: 85 77<0 692 0 692>
LayerCount: 2
Fore
SplineSet
85 0 m 1
 85 692 l 1
 162 692 l 1
 162 0 l 1
 85 0 l 1
6 931 m 1
 222 831 l 1
 199 778 l 1
 -20 865 l 1
 6 931 l 1
EndSplineSet
Position2: "'cpsp' Capital Spacing in Lateinisch lookup 0 subtable" dx=5 dy=0 dh=10 dv=0
EndChar

StartChar: Imacron
Encoding: 298 298 64
Width: 246
Flags: MW
HStem: 0 21G<85 85 85 162> 812 58<-30 281 -30 281>
VStem: 85 77<0 692 0 692>
LayerCount: 2
Fore
SplineSet
85 0 m 1
 85 692 l 1
 162 692 l 1
 162 0 l 1
 85 0 l 1
-30 812 m 1
 -30 870 l 1
 281 870 l 1
 281 812 l 1
 -30 812 l 1
EndSplineSet
Position2: "'cpsp' Capital Spacing in Lateinisch lookup 0 subtable" dx=5 dy=0 dh=10 dv=0
EndChar

StartChar: Iogonek
Encoding: 302 302 65
Width: 246
Flags: MW
HStem: -206 61<115 123> 0 21G<85 85 85 88 162 162>
VStem: 14 72<-114.5 -95.5> 85 77<0 692 0 692>
LayerCount: 2
Fore
SplineSet
85 0 m 1xd0
 85 692 l 1
 162 692 l 1
 162 0 l 1xd0
 162 0 86 -69 86 -102 c 0
 86 -127 103 -145 127 -145 c 0
 141 -145 178 -139 178 -139 c 1
 185 -197 l 1
 185 -197 140 -206 106 -206 c 0
 53 -206 14 -173 14 -119 c 0xe0
 14 -72 66 -19 88 0 c 1
 85 0 l 1xd0
EndSplineSet
Position2: "'cpsp' Capital Spacing in Lateinisch lookup 0 subtable" dx=5 dy=0 dh=10 dv=0
EndChar

StartChar: Itilde
Encoding: 296 296 66
Width: 246
Flags: MW
HStem: 0 21G<85 85 85 162> 803 66<186 211.5 186 223> 857 66<28 56>
VStem: 85 77<0 692 0 692>
LayerCount: 2
Fore
SplineSet
85 0 m 1xb0
 85 692 l 1
 162 692 l 1
 162 0 l 1
 85 0 l 1xb0
269 915 m 1xd0
 287 859 l 1
 287 859 243 803 203 803 c 0xd0
 156 803 72 857 40 857 c 0
 16 857 -33 809 -33 809 c 1
 -50 865 l 1
 -50 865 -2 923 39 923 c 0xb0
 89 923 171 869 201 869 c 0
 222 869 269 915 269 915 c 1xd0
EndSplineSet
Position2: "'cpsp' Capital Spacing in Lateinisch lookup 0 subtable" dx=5 dy=0 dh=10 dv=0
EndChar

StartChar: J
Encoding: 74 74 67
Width: 289
Flags: MW
HStem: -72 69<18 63.5 18 84>
VStem: 131 77<20 692>
LayerCount: 2
Fore
SplineSet
207 692 m 1
 208 95 l 2
 208 -55 150 -72 18 -72 c 1
 18 -3 l 1
 109 -3 131 3 131 106 c 2
 131 692 l 1
 207 692 l 1
EndSplineSet
Position2: "'cpsp' Capital Spacing in Lateinisch lookup 0 subtable" dx=5 dy=0 dh=10 dv=0
EndChar

StartChar: Jcircumflex
Encoding: 308 308 68
Width: 289
Flags: MW
HStem: -72 69<18 63.5 18 84> 788 135<2 201 2 201 136 251 136 335>
VStem: 131 77<20 692>
LayerCount: 2
Fore
SplineSet
207 692 m 1
 208 95 l 2
 208 -55 150 -72 18 -72 c 1
 18 -3 l 1
 109 -3 131 3 131 106 c 2
 131 692 l 1
 207 692 l 1
2 788 m 1
 136 923 l 1
 201 923 l 1
 335 788 l 1
 251 788 l 1
 169 868 l 1
 86 788 l 1
 2 788 l 1
EndSplineSet
Position2: "'cpsp' Capital Spacing in Lateinisch lookup 0 subtable" dx=5 dy=0 dh=10 dv=0
EndChar

StartChar: K
Encoding: 75 75 69
Width: 569
Flags: MW
HStem: 0 21G<85 162 85 85 461 552 461 461> 304 68
VStem: 85 77<0 302 0 370 370 692>
LayerCount: 2
Fore
SplineSet
461 0 m 1
 277 306 l 1
 162 302 l 1
 162 0 l 1
 85 0 l 1
 85 692 l 1
 162 692 l 1
 162 370 l 1
 276 374 l 1
 453 692 l 1
 541 692 l 1
 343 344 l 1
 552 0 l 1
 461 0 l 1
EndSplineSet
Position2: "'cpsp' Capital Spacing in Lateinisch lookup 0 subtable" dx=5 dy=0 dh=10 dv=0
EndChar

StartChar: Kcommaaccent
Encoding: 310 310 70
Width: 568
Flags: MW
HStem: 0 21G<85 162 85 85 461 552 461 461> 304 73
VStem: 85 77<0 302 0 375 375 696>
LayerCount: 2
Fore
SplineSet
461 0 m 1
 277 306 l 1
 162 302 l 1
 162 0 l 1
 85 0 l 1
 85 696 l 1
 162 696 l 1
 162 375 l 1
 275 379 l 1
 452 696 l 1
 541 696 l 1
 343 348 l 1
 552 0 l 1
 461 0 l 1
264 -78 m 1
 224 -285 l 1
 289 -285 l 1
 338 -78 l 1
 264 -78 l 1
EndSplineSet
Position2: "'cpsp' Capital Spacing in Lateinisch lookup 0 subtable" dx=5 dy=0 dh=10 dv=0
EndChar

StartChar: L
Encoding: 76 76 71
Width: 479
Flags: MW
HStem: 0 69<162 466 162 466>
VStem: 85 77<69 692 69 692 69 692>
LayerCount: 2
Fore
SplineSet
466 0 m 1
 85 0 l 1
 85 692 l 1
 162 692 l 1
 162 69 l 1
 466 69 l 1
 466 0 l 1
EndSplineSet
Position2: "'cpsp' Capital Spacing in Lateinisch lookup 0 subtable" dx=5 dy=0 dh=10 dv=0
EndChar

StartChar: Lacute
Encoding: 313 313 72
Width: 479
Flags: MW
HStem: 0 74<162 466 162 466>
VStem: 85 77<74 696 74 696 74 696>
LayerCount: 2
Fore
SplineSet
466 0 m 1
 85 0 l 1
 85 696 l 1
 162 696 l 1
 162 74 l 1
 466 74 l 1
 466 0 l 1
134 831 m 1
 350 931 l 1
 376 865 l 1
 157 778 l 1
 134 831 l 1
EndSplineSet
Position2: "'cpsp' Capital Spacing in Lateinisch lookup 0 subtable" dx=5 dy=0 dh=10 dv=0
EndChar

StartChar: Lcaron
Encoding: 317 317 73
Width: 494
Flags: MW
HStem: 0 69<162 466 162 466> 462 234<366 439 366 439>
VStem: 85 77<69 692 69 692 69 692> 366 73<462 696 462 696>
LayerCount: 2
Fore
SplineSet
439 696 m 1
 439 462 l 1
 366 462 l 1
 366 696 l 1
 439 696 l 1
466 0 m 1
 85 0 l 1
 85 692 l 1
 162 692 l 1
 162 69 l 1
 466 69 l 1
 466 0 l 1
EndSplineSet
Position2: "'cpsp' Capital Spacing in Lateinisch lookup 0 subtable" dx=5 dy=0 dh=10 dv=0
EndChar

StartChar: Lcommaaccent
Encoding: 315 315 74
Width: 479
Flags: MW
HStem: -78 147<241 241 241 315> 0 69<162 466 162 466>
VStem: 85 77<69 692 69 692 69 692>
LayerCount: 2
Fore
SplineSet
241 -78 m 1xa0
 200 -285 l 1
 265 -285 l 1
 315 -78 l 1
 241 -78 l 1xa0
466 0 m 1x60
 85 0 l 1
 85 692 l 1
 162 692 l 1
 162 69 l 1
 466 69 l 1
 466 0 l 1x60
EndSplineSet
Position2: "'cpsp' Capital Spacing in Lateinisch lookup 0 subtable" dx=5 dy=0 dh=10 dv=0
EndChar

StartChar: Lslash
Encoding: 321 321 75
Width: 483
Flags: MW
HStem: 0 69<167 471 167 471> 483 20G<309 309>
VStem: 90 77<69 272 272 272 404 692>
LayerCount: 2
Fore
SplineSet
471 0 m 1
 90 0 l 1
 90 272 l 1
 33 232 l 1
 -4 284 l 1
 90 350 l 1
 90 692 l 1
 167 692 l 1
 167 404 l 1
 309 503 l 1
 346 452 l 1
 167 326 l 1
 167 69 l 1
 471 69 l 1
 471 0 l 1
EndSplineSet
Position2: "'cpsp' Capital Spacing in Lateinisch lookup 0 subtable" dx=5 dy=0 dh=10 dv=0
EndChar

StartChar: M
Encoding: 77 77 76
Width: 840
Flags: MW
HStem: 0 21G<85 85 85 162 678 678 678 755> 610 82<162 176 162 162 664 678 664 664>
VStem: 85 77<0 610 0 692> 678 77<0 610 610 610>
LayerCount: 2
Fore
SplineSet
85 0 m 1
 85 692 l 1
 224 692 l 1
 420 107 l 1
 616 692 l 1
 755 692 l 1
 755 0 l 1
 678 0 l 1
 678 610 l 1
 664 610 l 1
 463 25 l 1
 377 25 l 1
 176 610 l 1
 162 610 l 1
 162 0 l 1
 85 0 l 1
EndSplineSet
Position2: "'cpsp' Capital Spacing in Lateinisch lookup 0 subtable" dx=5 dy=0 dh=10 dv=0
EndChar

StartChar: N
Encoding: 78 78 77
Width: 676
Flags: MW
HStem: 0 68<450 515 494 515 494 591> 624 68<162 181 162 162>
VStem: 85 77<0 624 0 692 0 692> 515 76<68 692 0 692>
LayerCount: 2
Fore
SplineSet
85 0 m 1
 85 692 l 1
 229 692 l 1
 494 68 l 1
 515 68 l 1
 515 692 l 1
 591 692 l 1
 591 0 l 1
 450 0 l 1
 181 624 l 1
 162 624 l 1
 162 0 l 1
 85 0 l 1
EndSplineSet
Position2: "'cpsp' Capital Spacing in Lateinisch lookup 0 subtable" dx=5 dy=0 dh=10 dv=0
EndChar

StartChar: Nacute
Encoding: 323 323 78
Width: 676
Flags: MW
HStem: 0 68<450 515 494 515 494 591> 624 68<162 181 162 162>
VStem: 85 77<0 624 0 692 0 692> 515 76<68 692 0 692>
LayerCount: 2
Fore
SplineSet
85 0 m 1
 85 692 l 1
 229 692 l 1
 494 68 l 1
 515 68 l 1
 515 692 l 1
 591 692 l 1
 591 0 l 1
 450 0 l 1
 181 624 l 1
 162 624 l 1
 162 0 l 1
 85 0 l 1
220 831 m 1
 436 931 l 1
 462 865 l 1
 243 778 l 1
 220 831 l 1
EndSplineSet
Position2: "'cpsp' Capital Spacing in Lateinisch lookup 0 subtable" dx=5 dy=0 dh=10 dv=0
EndChar

StartChar: Ncaron
Encoding: 327 327 79
Width: 676
Flags: MW
HStem: 0 68<450 515 494 515 494 591> 624 68<162 181 162 162> 788 135<172 306 172 371>
VStem: 85 77<0 624 0 692 0 692> 515 76<68 692 0 692>
LayerCount: 2
Fore
SplineSet
85 0 m 1
 85 692 l 1
 229 692 l 1
 494 68 l 1
 515 68 l 1
 515 692 l 1
 591 692 l 1
 591 0 l 1
 450 0 l 1
 181 624 l 1
 162 624 l 1
 162 0 l 1
 85 0 l 1
306 788 m 1
 172 923 l 1
 256 923 l 1
 339 843 l 1
 421 923 l 1
 505 923 l 1
 371 788 l 1
 306 788 l 1
EndSplineSet
Position2: "'cpsp' Capital Spacing in Lateinisch lookup 0 subtable" dx=5 dy=0 dh=10 dv=0
EndChar

StartChar: Ncommaaccent
Encoding: 325 325 80
Width: 676
Flags: MW
HStem: 0 68<450 515 494 515 494 591> 624 68<162 181 162 162>
VStem: 85 77<0 624 0 692 0 692> 515 76<68 692 0 692>
LayerCount: 2
Fore
SplineSet
324 -78 m 1
 283 -285 l 1
 348 -285 l 1
 398 -78 l 1
 324 -78 l 1
85 0 m 1
 85 692 l 1
 229 692 l 1
 494 68 l 1
 515 68 l 1
 515 692 l 1
 591 692 l 1
 591 0 l 1
 450 0 l 1
 181 624 l 1
 162 624 l 1
 162 0 l 1
 85 0 l 1
EndSplineSet
Position2: "'cpsp' Capital Spacing in Lateinisch lookup 0 subtable" dx=5 dy=0 dh=10 dv=0
EndChar

StartChar: Ntilde
Encoding: 209 209 81
Width: 676
Flags: MW
HStem: 0 68<450 515 494 515 494 591> 624 68<162 181 162 162> 803 66<403 428.5 403 440> 857 66<245 273>
VStem: 85 77<0 624 0 692 0 692> 515 76<68 692 0 692>
LayerCount: 2
Fore
SplineSet
85 0 m 1xdc
 85 692 l 1
 229 692 l 1
 494 68 l 1
 515 68 l 1
 515 692 l 1
 591 692 l 1
 591 0 l 1
 450 0 l 1
 181 624 l 1
 162 624 l 1
 162 0 l 1
 85 0 l 1xdc
486 915 m 1xec
 504 859 l 1
 504 859 460 803 420 803 c 0xec
 373 803 289 857 257 857 c 0
 233 857 184 809 184 809 c 1
 167 865 l 1
 167 865 215 923 256 923 c 0xdc
 306 923 388 869 418 869 c 0
 439 869 486 915 486 915 c 1xec
EndSplineSet
Position2: "'cpsp' Capital Spacing in Lateinisch lookup 0 subtable" dx=5 dy=0 dh=10 dv=0
EndChar

StartChar: O
Encoding: 79 79 82
Width: 660
Flags: MW
HStem: -10 68<250 410.5 250 437.5> 634 68<250.5 409>
VStem: 57 79<248.5 437 248.5 457> 524 80<245.5 436.5>
LayerCount: 2
Fore
SplineSet
330 58 m 0
 491 58 524 148 524 343 c 0
 524 530 488 634 330 634 c 0
 171 634 136 531 136 343 c 0
 136 154 170 58 330 58 c 0
330 -10 m 0
 115 -10 57 111 57 343 c 0
 57 571 116 702 330 702 c 0
 544 702 604 573 604 343 c 0
 604 105 545 -10 330 -10 c 0
EndSplineSet
Position2: "'cpsp' Capital Spacing in Lateinisch lookup 0 subtable" dx=5 dy=0 dh=10 dv=0
EndChar

StartChar: Oacute
Encoding: 211 211 83
Width: 660
Flags: MW
HStem: -10 68<250 410.5 250 437.5> 634 68<250.5 409>
VStem: 57 79<248.5 437 248.5 457> 524 80<245.5 436.5>
LayerCount: 2
Fore
SplineSet
330 58 m 0
 491 58 524 148 524 343 c 0
 524 530 488 634 330 634 c 0
 171 634 136 531 136 343 c 0
 136 154 170 58 330 58 c 0
330 -10 m 0
 115 -10 57 111 57 343 c 0
 57 571 116 702 330 702 c 0
 544 702 604 573 604 343 c 0
 604 105 545 -10 330 -10 c 0
198 831 m 1
 414 931 l 1
 440 865 l 1
 221 778 l 1
 198 831 l 1
EndSplineSet
Position2: "'cpsp' Capital Spacing in Lateinisch lookup 0 subtable" dx=5 dy=0 dh=10 dv=0
EndChar

StartChar: Obreve
Encoding: 334 334 84
Width: 660
Flags: MW
HStem: -10 68<250 410.5 250 437.5> 634 68<250.5 409> 787 56<307 355.5 307 377.5>
VStem: 57 79<248.5 437 248.5 457> 524 80<245.5 436.5>
LayerCount: 2
Fore
SplineSet
330 58 m 0
 491 58 524 148 524 343 c 0
 524 530 488 634 330 634 c 0
 171 634 136 531 136 343 c 0
 136 154 170 58 330 58 c 0
330 -10 m 0
 115 -10 57 111 57 343 c 0
 57 571 116 702 330 702 c 0
 544 702 604 573 604 343 c 0
 604 105 545 -10 330 -10 c 0
174 918 m 1
 243 918 l 1
 245 873 283 843 331 843 c 0
 380 843 418 873 419 918 c 1
 489 918 l 1
 485 840 424 787 331 787 c 0
 238 787 178 840 174 918 c 1
EndSplineSet
Position2: "'cpsp' Capital Spacing in Lateinisch lookup 0 subtable" dx=5 dy=0 dh=10 dv=0
EndChar

StartChar: Ocircumflex
Encoding: 212 212 85
Width: 660
Flags: MW
HStem: -10 68<250 410.5 250 437.5> 634 68<250.5 409> 791 135<164 363 164 363 298 413 298 497>
VStem: 57 79<248.5 437 248.5 457> 524 80<245.5 436.5>
LayerCount: 2
Fore
SplineSet
330 58 m 0
 491 58 524 148 524 343 c 0
 524 530 488 634 330 634 c 0
 171 634 136 531 136 343 c 0
 136 154 170 58 330 58 c 0
330 -10 m 0
 115 -10 57 111 57 343 c 0
 57 571 116 702 330 702 c 0
 544 702 604 573 604 343 c 0
 604 105 545 -10 330 -10 c 0
164 791 m 1
 298 926 l 1
 363 926 l 1
 497 791 l 1
 413 791 l 1
 331 871 l 1
 248 791 l 1
 164 791 l 1
EndSplineSet
Position2: "'cpsp' Capital Spacing in Lateinisch lookup 0 subtable" dx=5 dy=0 dh=10 dv=0
EndChar

StartChar: Odieresis
Encoding: 214 214 86
Width: 660
Flags: MW
HStem: -10 68<250 410.5 250 437.5> 634 68<250.5 409> 808 90<192 265 192 265 396 468>
VStem: 57 79<248.5 437 248.5 457> 192 73<808 898 808 898> 396 72<808 898 808 898> 524 80<245.5 436.5>
LayerCount: 2
Fore
SplineSet
330 58 m 0
 491 58 524 148 524 343 c 0
 524 530 488 634 330 634 c 0
 171 634 136 531 136 343 c 0
 136 154 170 58 330 58 c 0
330 -10 m 0
 115 -10 57 111 57 343 c 0
 57 571 116 702 330 702 c 0
 544 702 604 573 604 343 c 0
 604 105 545 -10 330 -10 c 0
192 808 m 1
 192 898 l 1
 265 898 l 1
 265 808 l 1
 192 808 l 1
396 808 m 1
 396 898 l 1
 468 898 l 1
 468 808 l 1
 396 808 l 1
EndSplineSet
Position2: "'cpsp' Capital Spacing in Lateinisch lookup 0 subtable" dx=5 dy=0 dh=10 dv=0
EndChar

StartChar: Ograve
Encoding: 210 210 87
Width: 660
Flags: MW
HStem: -10 68<250 410.5 250 437.5> 634 68<250.5 409>
VStem: 57 79<248.5 437 248.5 457> 524 80<245.5 436.5>
LayerCount: 2
Fore
SplineSet
330 58 m 0
 491 58 524 148 524 343 c 0
 524 530 488 634 330 634 c 0
 171 634 136 531 136 343 c 0
 136 154 170 58 330 58 c 0
330 -10 m 0
 115 -10 57 111 57 343 c 0
 57 571 116 702 330 702 c 0
 544 702 604 573 604 343 c 0
 604 105 545 -10 330 -10 c 0
227 931 m 1
 443 831 l 1
 420 778 l 1
 201 865 l 1
 227 931 l 1
EndSplineSet
Position2: "'cpsp' Capital Spacing in Lateinisch lookup 0 subtable" dx=5 dy=0 dh=10 dv=0
EndChar

StartChar: Ohungarumlaut
Encoding: 336 336 88
Width: 660
Flags: MW
HStem: -10 68<250 410.5 250 437.5> 634 68<250.5 409>
VStem: 57 79<248.5 437 248.5 457> 524 80<245.5 436.5>
LayerCount: 2
Fore
SplineSet
330 58 m 0
 491 58 524 148 524 343 c 0
 524 530 488 634 330 634 c 0
 171 634 136 531 136 343 c 0
 136 154 170 58 330 58 c 0
330 -10 m 0
 115 -10 57 111 57 343 c 0
 57 571 116 702 330 702 c 0
 544 702 604 573 604 343 c 0
 604 105 545 -10 330 -10 c 0
348 785 m 1
 490 916 l 1
 545 881 l 1
 399 752 l 1
 348 785 l 1
151 785 m 1
 293 917 l 1
 347 882 l 1
 202 753 l 1
 151 785 l 1
EndSplineSet
Position2: "'cpsp' Capital Spacing in Lateinisch lookup 0 subtable" dx=5 dy=0 dh=10 dv=0
EndChar

StartChar: Omacron
Encoding: 332 332 89
Width: 660
Flags: MW
HStem: -10 68<250 410.5 250 437.5> 634 68<250.5 409> 812 58<174 485 174 485>
VStem: 57 79<248.5 437 248.5 457> 524 80<245.5 436.5>
LayerCount: 2
Fore
SplineSet
330 58 m 0
 491 58 524 148 524 343 c 0
 524 530 488 634 330 634 c 0
 171 634 136 531 136 343 c 0
 136 154 170 58 330 58 c 0
330 -10 m 0
 115 -10 57 111 57 343 c 0
 57 571 116 702 330 702 c 0
 544 702 604 573 604 343 c 0
 604 105 545 -10 330 -10 c 0
174 812 m 1
 174 870 l 1
 485 870 l 1
 485 812 l 1
 174 812 l 1
EndSplineSet
Position2: "'cpsp' Capital Spacing in Lateinisch lookup 0 subtable" dx=5 dy=0 dh=10 dv=0
EndChar

StartChar: Oslash
Encoding: 216 216 90
Width: 660
Flags: MW
HStem: -10 68<312 410.5 312 437.5> 634 68<250.5 349.5>
VStem: 57 79<288 437 288 457> 524 80<245.5 394.5>
LayerCount: 2
Fore
SplineSet
330 -10 m 0
 283 -10 243 -4 210 7 c 1
 153 -116 l 1
 96 -90 l 1
 155 36 l 1
 81 91 57 194 57 343 c 0
 57 571 116 702 330 702 c 0
 380 702 422 695 456 681 c 1
 512 799 l 1
 570 775 l 1
 511 648 l 1
 580 590 604 486 604 343 c 0
 604 105 545 -10 330 -10 c 0
136 343 m 0
 136 233 147 154 188 108 c 1
 426 615 l 1
 400 628 369 634 330 634 c 0
 171 634 136 531 136 343 c 0
330 58 m 0
 491 58 524 148 524 343 c 0
 524 446 513 525 476 574 c 1
 241 72 l 1
 265 62 294 58 330 58 c 0
EndSplineSet
Position2: "'cpsp' Capital Spacing in Lateinisch lookup 0 subtable" dx=5 dy=0 dh=10 dv=0
EndChar

StartChar: Oslashacute
Encoding: 510 510 91
Width: 662
Flags: MW
HStem: -10 68<313 411.5 313 438.5> 634 68<251.5 350.5>
VStem: 58 79<288 437 288 457> 525 80<245.5 394.5>
LayerCount: 2
Fore
SplineSet
331 -10 m 0
 284 -10 244 -4 211 7 c 1
 154 -116 l 1
 97 -90 l 1
 156 36 l 1
 82 91 58 194 58 343 c 0
 58 571 117 702 331 702 c 0
 381 702 423 695 457 681 c 1
 513 799 l 1
 571 775 l 1
 512 648 l 1
 581 590 605 486 605 343 c 0
 605 105 546 -10 331 -10 c 0
137 343 m 0
 137 233 148 154 189 108 c 1
 427 615 l 1
 401 628 370 634 331 634 c 0
 172 634 137 531 137 343 c 0
331 58 m 0
 492 58 525 148 525 343 c 0
 525 446 514 525 477 574 c 1
 242 72 l 1
 266 62 295 58 331 58 c 0
209 831 m 1
 425 931 l 1
 451 865 l 1
 232 778 l 1
 209 831 l 1
EndSplineSet
Position2: "'cpsp' Capital Spacing in Lateinisch lookup 0 subtable" dx=5 dy=0 dh=10 dv=0
EndChar

StartChar: Otilde
Encoding: 213 213 92
Width: 660
Flags: MW
HStem: -10 68<250 410.5 250 437.5> 634 68<250.5 409> 803 66<395 420.5 395 432> 857 66<237 265>
VStem: 57 79<248.5 437 248.5 457> 524 80<245.5 436.5>
LayerCount: 2
Fore
SplineSet
330 58 m 0xec
 491 58 524 148 524 343 c 0
 524 530 488 634 330 634 c 0
 171 634 136 531 136 343 c 0
 136 154 170 58 330 58 c 0xec
330 -10 m 0
 115 -10 57 111 57 343 c 0
 57 571 116 702 330 702 c 0
 544 702 604 573 604 343 c 0
 604 105 545 -10 330 -10 c 0
478 915 m 1
 496 859 l 1
 496 859 452 803 412 803 c 0xec
 365 803 281 857 249 857 c 0
 225 857 176 809 176 809 c 1
 159 865 l 1
 159 865 207 923 248 923 c 0xdc
 298 923 380 869 410 869 c 0
 431 869 478 915 478 915 c 1
EndSplineSet
Position2: "'cpsp' Capital Spacing in Lateinisch lookup 0 subtable" dx=5 dy=0 dh=10 dv=0
EndChar

StartChar: OE
Encoding: 338 338 93
Width: 925
Flags: MW
HStem: -10 75<250.5 340.5> -1 75<539 878 539 878 465 878> 319 74<539 818 539 818> 622 74<463 878 539 878 539 539>
VStem: 57 80<249 445 249 466> 463 76<74 319 393 622>
LayerCount: 2
Fore
SplineSet
878 -1 m 1x7c
 465 -1 l 1x7c
 424 -5 359 -10 322 -10 c 0xbc
 109 -10 57 111 57 345 c 0
 57 587 117 706 322 706 c 0
 359 706 426 702 463 696 c 1
 878 696 l 1
 878 622 l 1
 539 622 l 1
 539 393 l 1
 818 393 l 1
 818 319 l 1
 539 319 l 1
 539 74 l 1
 878 74 l 1
 878 -1 l 1x7c
332 65 m 0xbc
 354 65 429 69 463 72 c 1
 463 622 l 1
 428 625 355 631 330 631 c 0
 174 631 137 544 137 346 c 0
 137 152 169 65 332 65 c 0xbc
EndSplineSet
Position2: "'cpsp' Capital Spacing in Lateinisch lookup 0 subtable" dx=5 dy=0 dh=10 dv=0
EndChar

StartChar: P
Encoding: 80 80 94
Width: 593
Flags: MW
HStem: 0 21G<85 162 85 85> 233 68<162 337 337 338 162 337> 624 68<162 337 162 162>
VStem: 85 77<0 233 301 624> 480 79<415.5 522>
LayerCount: 2
Fore
SplineSet
338 233 m 2
 162 233 l 1
 162 0 l 1
 85 0 l 1
 85 692 l 1
 338 692 l 2
 489 692 559 619 559 469 c 0
 559 318 489 233 338 233 c 2
162 301 m 1
 337 301 l 2
 438 301 480 362 480 469 c 0
 480 575 438 624 337 624 c 2
 162 624 l 1
 162 301 l 1
EndSplineSet
Position2: "'cpsp' Capital Spacing in Lateinisch lookup 0 subtable" dx=5 dy=0 dh=10 dv=0
EndChar

StartChar: Q
Encoding: 81 81 95
Width: 660
Flags: MW
HStem: -10 68<250 346> 634 68<250.5 409>
VStem: 57 79<248 437 248 457> 524 80<261.5 436.5>
LayerCount: 2
Fore
SplineSet
502 -145 m 1
 414 -1 l 1
 392 -7 362 -10 330 -10 c 0
 115 -10 57 111 57 343 c 0
 57 571 116 702 330 702 c 0
 544 702 604 573 604 343 c 0
 604 180 576 77 489 26 c 1
 574 -111 l 1
 502 -145 l 1
330 58 m 0
 491 58 524 147 524 343 c 0
 524 530 488 634 330 634 c 0
 171 634 136 531 136 343 c 0
 136 153 170 58 330 58 c 0
EndSplineSet
Position2: "'cpsp' Capital Spacing in Lateinisch lookup 0 subtable" dx=5 dy=0 dh=10 dv=0
EndChar

StartChar: R
Encoding: 82 82 96
Width: 616
Flags: MW
HStem: 0 21G<85 162 85 85 483 483 483 568> 265 68<162 342 342 358 162 342> 624 68<162 341 162 162>
VStem: 85 77<0 265 0 333 333 624> 483 79<438.5 529.5>
LayerCount: 2
Fore
SplineSet
358 265 m 1
 162 265 l 1
 162 0 l 1
 85 0 l 1
 85 692 l 1
 341 692 l 2
 486 692 562 628 562 482 c 0
 562 380 522 309 435 281 c 1
 568 0 l 1
 483 0 l 1
 358 265 l 1
483 482 m 0
 483 577 438 624 341 624 c 2
 162 624 l 1
 162 333 l 1
 342 333 l 2
 446 333 483 395 483 482 c 0
EndSplineSet
Position2: "'cpsp' Capital Spacing in Lateinisch lookup 0 subtable" dx=5 dy=0 dh=10 dv=0
EndChar

StartChar: Racute
Encoding: 340 340 97
Width: 616
Flags: MW
HStem: 333 291<162 341 341 342 162 341> 692 21G<85 341 85 85>
VStem: 85 483<0 692 0 0> 162 321<0 265 0 265 438.5 529.5>
LayerCount: 2
Fore
SplineSet
162 265 m 1xe0
 358 265 l 1
 483 0 l 1
 568 0 l 1
 435 281 l 1
 522 309 562 380 562 482 c 0
 562 628 486 692 341 692 c 2
 85 692 l 1
 85 0 l 1
 162 0 l 1
 162 265 l 1xe0
483 482 m 0xd0
 483 395 446 333 342 333 c 2
 162 333 l 1
 162 624 l 1
 341 624 l 2
 438 624 483 577 483 482 c 0xd0
187 831 m 1
 403 931 l 1
 429 865 l 1
 210 778 l 1
 187 831 l 1
EndSplineSet
Position2: "'cpsp' Capital Spacing in Lateinisch lookup 0 subtable" dx=5 dy=0 dh=10 dv=0
EndChar

StartChar: Rcaron
Encoding: 344 344 98
Width: 616
Flags: MW
HStem: 0 21G<85 162 85 85 483 483 483 568> 265 68<162 342 342 358 162 342> 624 68<162 341 162 162> 791 135<134 268 134 333>
VStem: 85 77<0 265 0 333 333 624> 483 79<438.5 529.5>
LayerCount: 2
Fore
SplineSet
358 265 m 1
 162 265 l 1
 162 0 l 1
 85 0 l 1
 85 692 l 1
 341 692 l 2
 486 692 562 628 562 482 c 0
 562 380 522 309 435 281 c 1
 568 0 l 1
 483 0 l 1
 358 265 l 1
483 482 m 0
 483 577 438 624 341 624 c 2
 162 624 l 1
 162 333 l 1
 342 333 l 2
 446 333 483 395 483 482 c 0
268 791 m 1
 134 926 l 1
 218 926 l 1
 301 846 l 1
 383 926 l 1
 467 926 l 1
 333 791 l 1
 268 791 l 1
EndSplineSet
Position2: "'cpsp' Capital Spacing in Lateinisch lookup 0 subtable" dx=5 dy=0 dh=10 dv=0
EndChar

StartChar: Rcommaaccent
Encoding: 342 342 99
Width: 616
Flags: MW
HStem: -285 207<245 360 286 310> 0 21G<85 162 85 85 483 483 483 568> 265 68<162 342 342 358 162 342> 624 68<162 341 162 162>
VStem: 85 77<0 265 0 333 333 624> 483 79<438.5 529.5>
LayerCount: 2
Fore
SplineSet
245 -285 m 1
 286 -78 l 1
 360 -78 l 1
 310 -285 l 1
 245 -285 l 1
358 265 m 1
 162 265 l 1
 162 0 l 1
 85 0 l 1
 85 692 l 1
 341 692 l 2
 486 692 562 628 562 482 c 0
 562 380 522 309 435 281 c 1
 568 0 l 1
 483 0 l 1
 358 265 l 1
483 482 m 0
 483 577 438 624 341 624 c 2
 162 624 l 1
 162 333 l 1
 342 333 l 2
 446 333 483 395 483 482 c 0
EndSplineSet
Position2: "'cpsp' Capital Spacing in Lateinisch lookup 0 subtable" dx=5 dy=0 dh=10 dv=0
EndChar

StartChar: S
Encoding: 83 83 100
Width: 542
Flags: MW
HStem: -9 21G<232 341.5> -9 68<233.5 318 233.5 341.5> 635 68<227 305>
VStem: 48 78<477 561 477 584> 417 77<150 237>
LayerCount: 2
Fore
SplineSet
480 683 m 1x78
 473 618 l 1
 473 618 334 635 276 635 c 0
 178 635 126 600 126 522 c 0
 126 432 174 417 295 390 c 0
 433 359 494 325 494 204 c 0
 494 51 410 -9 273 -9 c 0x78
 191 -9 54 13 54 13 c 1xb8
 62 77 l 1
 62 77 198 59 269 59 c 0
 367 59 417 102 417 198 c 0
 417 276 376 298 263 320 c 0
 120 351 48 385 48 517 c 0
 48 651 136 703 271 703 c 0
 353 703 480 683 480 683 c 1x78
EndSplineSet
Position2: "'cpsp' Capital Spacing in Lateinisch lookup 0 subtable" dx=5 dy=0 dh=10 dv=0
EndChar

StartChar: Sacute
Encoding: 346 346 101
Width: 542
Flags: MW
HStem: -9 21G<232 341.5> -9 68<233.5 318 233.5 341.5> 635 68<227 305>
VStem: 48 78<477 561 477 584> 417 77<150 237>
LayerCount: 2
Fore
SplineSet
480 683 m 1x78
 473 618 l 1
 473 618 334 635 276 635 c 0
 178 635 126 600 126 522 c 0
 126 432 174 417 295 390 c 0
 433 359 494 325 494 204 c 0
 494 51 410 -9 273 -9 c 0x78
 191 -9 54 13 54 13 c 1xb8
 62 77 l 1
 62 77 198 59 269 59 c 0
 367 59 417 102 417 198 c 0
 417 276 376 298 263 320 c 0
 120 351 48 385 48 517 c 0
 48 651 136 703 271 703 c 0
 353 703 480 683 480 683 c 1x78
163 831 m 1
 379 931 l 1
 405 865 l 1
 186 778 l 1
 163 831 l 1
EndSplineSet
Position2: "'cpsp' Capital Spacing in Lateinisch lookup 0 subtable" dx=5 dy=0 dh=10 dv=0
EndChar

StartChar: Scaron
Encoding: 352 352 102
Width: 542
Flags: MW
HStem: -9 21G<232 341.5> -9 68<233.5 318 233.5 341.5> 635 68<227 305> 791 135<116 250 116 315>
VStem: 48 78<477 561 477 584> 417 77<150 237>
LayerCount: 2
Fore
SplineSet
480 683 m 1x7c
 473 618 l 1
 473 618 334 635 276 635 c 0
 178 635 126 600 126 522 c 0
 126 432 174 417 295 390 c 0
 433 359 494 325 494 204 c 0
 494 51 410 -9 273 -9 c 0x7c
 191 -9 54 13 54 13 c 1xbc
 62 77 l 1
 62 77 198 59 269 59 c 0
 367 59 417 102 417 198 c 0
 417 276 376 298 263 320 c 0
 120 351 48 385 48 517 c 0
 48 651 136 703 271 703 c 0
 353 703 480 683 480 683 c 1x7c
250 791 m 1
 116 926 l 1
 200 926 l 1
 283 846 l 1
 365 926 l 1
 449 926 l 1
 315 791 l 1
 250 791 l 1
EndSplineSet
Position2: "'cpsp' Capital Spacing in Lateinisch lookup 0 subtable" dx=5 dy=0 dh=10 dv=0
EndChar

StartChar: Scedilla
Encoding: 350 350 103
Width: 542
Flags: MW
HStem: -217 52<295 314 286.5 345> -93 44<299 300 258 336> -9 21G<258 258> -8 21G -8 67<299 299> 635 68<227 305>
VStem: 48 78<477 561 477 584> 258 41<-49 -9 -9 -9> 344 66<-141 -114.5> 417 77<150 237>
LayerCount: 2
Fore
SplineSet
410 -127 m 0xd780
 410 -190 373 -217 317 -217 c 0
 273 -217 231 -210 231 -210 c 1
 234 -162 l 1
 234 -162 273 -165 300 -165 c 0
 328 -165 344 -155 344 -127 c 0
 344 -102 328 -93 300 -93 c 2
 258 -93 l 1
 258 -9 l 1xe780
 175 -6 54 13 54 13 c 1xd740
 62 77 l 1
 62 77 198 59 269 59 c 0xcf40
 367 59 417 102 417 198 c 0
 417 276 376 298 263 320 c 0
 120 351 48 385 48 517 c 0
 48 651 136 703 271 703 c 0
 353 703 480 683 480 683 c 1
 473 618 l 1
 473 618 334 635 276 635 c 0
 178 635 126 600 126 522 c 0
 126 432 174 417 295 390 c 0
 433 359 494 325 494 204 c 0xd740
 494 61 420 0 299 -8 c 1
 299 -49 l 1
 373 -49 410 -63 410 -127 c 0xd780
EndSplineSet
Substitution2: "'locl' Localized Forms in Lateinisch lookup 0 subtable" Scommaaccent
Position2: "'cpsp' Capital Spacing in Lateinisch lookup 0 subtable" dx=5 dy=0 dh=10 dv=0
EndChar

StartChar: Scircumflex
Encoding: 348 348 104
Width: 542
Flags: MW
HStem: -9 21G<232 341.5> -9 68<233.5 318 233.5 341.5> 635 68<227 305> 788 135<108 307 108 307 242 357 242 441>
VStem: 48 78<477 561 477 584> 417 77<150 237>
LayerCount: 2
Fore
SplineSet
480 683 m 1x7c
 473 618 l 1
 473 618 334 635 276 635 c 0
 178 635 126 600 126 522 c 0
 126 432 174 417 295 390 c 0
 433 359 494 325 494 204 c 0
 494 51 410 -9 273 -9 c 0x7c
 191 -9 54 13 54 13 c 1xbc
 62 77 l 1
 62 77 198 59 269 59 c 0
 367 59 417 102 417 198 c 0
 417 276 376 298 263 320 c 0
 120 351 48 385 48 517 c 0
 48 651 136 703 271 703 c 0
 353 703 480 683 480 683 c 1x7c
108 788 m 1
 242 923 l 1
 307 923 l 1
 441 788 l 1
 357 788 l 1
 275 868 l 1
 192 788 l 1
 108 788 l 1
EndSplineSet
Position2: "'cpsp' Capital Spacing in Lateinisch lookup 0 subtable" dx=5 dy=0 dh=10 dv=0
EndChar

StartChar: Scommaaccent
Encoding: 536 536 105
Width: 542
Flags: MW
HStem: -78 137<249 249 249 318 233.5 323> -9 21G<232 341.5> -9 68<233.5 318 233.5 341.5> 635 68<227 305>
VStem: 48 78<477 561 477 584> 417 77<150 237>
LayerCount: 2
Fore
SplineSet
249 -78 m 1x9c
 209 -285 l 1
 274 -285 l 1
 323 -78 l 1
 249 -78 l 1x9c
480 683 m 1
 473 618 l 1
 473 618 334 635 276 635 c 0
 178 635 126 600 126 522 c 0
 126 432 174 417 295 390 c 0
 433 359 494 325 494 204 c 0
 494 51 410 -9 273 -9 c 0x3c
 191 -9 54 13 54 13 c 1x5c
 62 77 l 1
 62 77 198 59 269 59 c 0x3c
 367 59 417 102 417 198 c 0
 417 276 376 298 263 320 c 0
 120 351 48 385 48 517 c 0
 48 651 136 703 271 703 c 0
 353 703 480 683 480 683 c 1
EndSplineSet
Position2: "'cpsp' Capital Spacing in Lateinisch lookup 0 subtable" dx=5 dy=0 dh=10 dv=0
EndChar

StartChar: T
Encoding: 84 84 106
Width: 526
Flags: MW
HStem: 0 21G<226 302 226 226> 623 69<13 513 13 226 302 302 302 513>
VStem: 226 76<0 623 0 623>
LayerCount: 2
Fore
SplineSet
13 623 m 1
 13 692 l 1
 513 692 l 1
 513 623 l 1
 302 623 l 1
 302 0 l 1
 226 0 l 1
 226 623 l 1
 13 623 l 1
EndSplineSet
Position2: "'cpsp' Capital Spacing in Lateinisch lookup 0 subtable" dx=5 dy=0 dh=10 dv=0
EndChar

StartChar: Tbar
Encoding: 358 358 107
Width: 529
Flags: MW
HStem: 0 21G<228 304 228 228> 300 66<65 228 65 228 304 468> 623 69<15 515 15 228 304 304 304 515>
VStem: 228 76<0 300 0 300 366 623>
LayerCount: 2
Fore
SplineSet
15 623 m 1
 15 692 l 1
 515 692 l 1
 515 623 l 1
 304 623 l 1
 304 366 l 1
 468 366 l 1
 468 300 l 1
 304 300 l 1
 304 0 l 1
 228 0 l 1
 228 300 l 1
 65 300 l 1
 65 366 l 1
 228 366 l 1
 228 623 l 1
 15 623 l 1
EndSplineSet
Position2: "'cpsp' Capital Spacing in Lateinisch lookup 0 subtable" dx=5 dy=0 dh=10 dv=0
EndChar

StartChar: Tcaron
Encoding: 356 356 108
Width: 526
Flags: MW
HStem: 0 21G<226 302 226 226> 623 69<13 513 13 226 302 302 302 513> 791 135<97 231 97 296>
VStem: 226 76<0 623 0 623>
LayerCount: 2
Fore
SplineSet
13 623 m 1
 13 692 l 1
 513 692 l 1
 513 623 l 1
 302 623 l 1
 302 0 l 1
 226 0 l 1
 226 623 l 1
 13 623 l 1
231 791 m 1
 97 926 l 1
 181 926 l 1
 264 846 l 1
 346 926 l 1
 430 926 l 1
 296 791 l 1
 231 791 l 1
EndSplineSet
Position2: "'cpsp' Capital Spacing in Lateinisch lookup 0 subtable" dx=5 dy=0 dh=10 dv=0
EndChar

StartChar: Tcommaaccent
Encoding: 538 538 109
Width: 526
Flags: MW
HStem: 0 21G<226 302 226 226> 623 69<13 513 13 226 302 302 302 513>
VStem: 226 76<0 623 0 623>
LayerCount: 2
Fore
SplineSet
246 -78 m 1
 206 -285 l 1
 271 -285 l 1
 321 -78 l 1
 246 -78 l 1
13 623 m 1
 13 692 l 1
 513 692 l 1
 513 623 l 1
 302 623 l 1
 302 0 l 1
 226 0 l 1
 226 623 l 1
 13 623 l 1
EndSplineSet
Position2: "'cpsp' Capital Spacing in Lateinisch lookup 0 subtable" dx=5 dy=0 dh=10 dv=0
EndChar

StartChar: U
Encoding: 85 85 110
Width: 644
Flags: MW
HStem: -10 68<268 373 268 398>
VStem: 80 77<210 692> 488 76<208 210 210 692>
LayerCount: 2
Fore
SplineSet
157 208 m 2
 157 100 217 58 319 58 c 0
 427 58 488 100 488 208 c 2
 488 692 l 1
 564 692 l 1
 564 210 l 2
 564 52 477 -10 319 -10 c 0
 167 -10 80 51 80 210 c 2
 80 692 l 1
 157 692 l 1
 157 208 l 2
EndSplineSet
Position2: "'cpsp' Capital Spacing in Lateinisch lookup 0 subtable" dx=5 dy=0 dh=10 dv=0
EndChar

StartChar: Uacute
Encoding: 218 218 111
Width: 644
Flags: MW
HStem: -10 68<268 373 268 398>
VStem: 80 77<210 692> 488 76<208 210 210 692>
LayerCount: 2
Fore
SplineSet
157 208 m 2
 157 100 217 58 319 58 c 0
 427 58 488 100 488 208 c 2
 488 692 l 1
 564 692 l 1
 564 210 l 2
 564 52 477 -10 319 -10 c 0
 167 -10 80 51 80 210 c 2
 80 692 l 1
 157 692 l 1
 157 208 l 2
199 831 m 1
 415 931 l 1
 441 865 l 1
 222 778 l 1
 199 831 l 1
EndSplineSet
Position2: "'cpsp' Capital Spacing in Lateinisch lookup 0 subtable" dx=5 dy=0 dh=10 dv=0
EndChar

StartChar: Ubreve
Encoding: 364 364 112
Width: 644
Flags: MW
HStem: -10 68<268 373 268 398> 787 56<300 348.5 300 370.5>
VStem: 80 77<210 692> 488 76<208 210 210 692>
LayerCount: 2
Fore
SplineSet
157 208 m 2
 157 100 217 58 319 58 c 0
 427 58 488 100 488 208 c 2
 488 692 l 1
 564 692 l 1
 564 210 l 2
 564 52 477 -10 319 -10 c 0
 167 -10 80 51 80 210 c 2
 80 692 l 1
 157 692 l 1
 157 208 l 2
167 918 m 1
 236 918 l 1
 238 873 276 843 324 843 c 0
 373 843 411 873 412 918 c 1
 482 918 l 1
 478 840 417 787 324 787 c 0
 231 787 171 840 167 918 c 1
EndSplineSet
Position2: "'cpsp' Capital Spacing in Lateinisch lookup 0 subtable" dx=5 dy=0 dh=10 dv=0
EndChar

StartChar: Ucircumflex
Encoding: 219 219 113
Width: 644
Flags: MW
HStem: -10 68<268 373 268 398> 791 135<155 354 155 354 289 404 289 488>
VStem: 80 77<210 692> 488 76<208 210 210 692>
LayerCount: 2
Fore
SplineSet
157 208 m 2
 157 100 217 58 319 58 c 0
 427 58 488 100 488 208 c 2
 488 692 l 1
 564 692 l 1
 564 210 l 2
 564 52 477 -10 319 -10 c 0
 167 -10 80 51 80 210 c 2
 80 692 l 1
 157 692 l 1
 157 208 l 2
155 791 m 1
 289 926 l 1
 354 926 l 1
 488 791 l 1
 404 791 l 1
 322 871 l 1
 239 791 l 1
 155 791 l 1
EndSplineSet
Position2: "'cpsp' Capital Spacing in Lateinisch lookup 0 subtable" dx=5 dy=0 dh=10 dv=0
EndChar

StartChar: Udieresis
Encoding: 220 220 114
Width: 644
Flags: MW
HStem: -10 68<268 373 268 398> 808 90<184 257 184 257 388 460>
VStem: 80 77<210 692> 184 73<808 898 808 898> 388 72<808 898 808 898> 488 76<208 210 210 692>
LayerCount: 2
Fore
SplineSet
157 208 m 2
 157 100 217 58 319 58 c 0
 427 58 488 100 488 208 c 2
 488 692 l 1
 564 692 l 1
 564 210 l 2
 564 52 477 -10 319 -10 c 0
 167 -10 80 51 80 210 c 2
 80 692 l 1
 157 692 l 1
 157 208 l 2
184 808 m 1xfc
 184 898 l 1
 257 898 l 1
 257 808 l 1
 184 808 l 1xfc
388 808 m 1
 388 898 l 1
 460 898 l 1
 460 808 l 1
 388 808 l 1
EndSplineSet
Position2: "'cpsp' Capital Spacing in Lateinisch lookup 0 subtable" dx=5 dy=0 dh=10 dv=0
EndChar

StartChar: Ugrave
Encoding: 217 217 115
Width: 644
Flags: MW
HStem: -10 68<268 373 268 398>
VStem: 80 77<210 692> 488 76<208 210 210 692>
LayerCount: 2
Fore
SplineSet
157 208 m 2
 157 100 217 58 319 58 c 0
 427 58 488 100 488 208 c 2
 488 692 l 1
 564 692 l 1
 564 210 l 2
 564 52 477 -10 319 -10 c 0
 167 -10 80 51 80 210 c 2
 80 692 l 1
 157 692 l 1
 157 208 l 2
222 931 m 1
 438 831 l 1
 415 778 l 1
 196 865 l 1
 222 931 l 1
EndSplineSet
Position2: "'cpsp' Capital Spacing in Lateinisch lookup 0 subtable" dx=5 dy=0 dh=10 dv=0
EndChar

StartChar: Uhungarumlaut
Encoding: 368 368 116
Width: 644
Flags: MW
HStem: -10 68<268 373 268 398>
VStem: 80 77<210 692> 488 76<208 210 210 692>
LayerCount: 2
Fore
SplineSet
157 208 m 2
 157 100 217 58 319 58 c 0
 427 58 488 100 488 208 c 2
 488 692 l 1
 564 692 l 1
 564 210 l 2
 564 52 477 -10 319 -10 c 0
 167 -10 80 51 80 210 c 2
 80 692 l 1
 157 692 l 1
 157 208 l 2
352 785 m 1
 494 916 l 1
 549 881 l 1
 403 752 l 1
 352 785 l 1
155 785 m 1
 297 917 l 1
 351 882 l 1
 206 753 l 1
 155 785 l 1
EndSplineSet
Position2: "'cpsp' Capital Spacing in Lateinisch lookup 0 subtable" dx=5 dy=0 dh=10 dv=0
EndChar

StartChar: Umacron
Encoding: 362 362 117
Width: 644
Flags: MW
HStem: -10 68<268 373 268 398> 812 58<168 479 168 479>
VStem: 80 77<210 692> 488 76<208 210 210 692>
LayerCount: 2
Fore
SplineSet
157 208 m 2
 157 100 217 58 319 58 c 0
 427 58 488 100 488 208 c 2
 488 692 l 1
 564 692 l 1
 564 210 l 2
 564 52 477 -10 319 -10 c 0
 167 -10 80 51 80 210 c 2
 80 692 l 1
 157 692 l 1
 157 208 l 2
168 812 m 1
 168 870 l 1
 479 870 l 1
 479 812 l 1
 168 812 l 1
EndSplineSet
Position2: "'cpsp' Capital Spacing in Lateinisch lookup 0 subtable" dx=5 dy=0 dh=10 dv=0
EndChar

StartChar: Uogonek
Encoding: 370 370 118
Width: 645
Flags: MW
HStem: -206 61<373 380> -10 68<268 319 319 334>
VStem: 80 77<210 692> 271 73<-114.5 -98.5> 488 76<208 210 210 692>
LayerCount: 2
Fore
SplineSet
157 208 m 2
 157 100 217 58 319 58 c 0
 427 58 488 100 488 208 c 2
 488 692 l 1
 564 692 l 1
 564 210 l 2
 564 87 511 22 413 0 c 1
 409 -5 344 -70 344 -102 c 0
 344 -127 361 -145 385 -145 c 0
 399 -145 435 -139 435 -139 c 1
 442 -197 l 1
 442 -197 397 -206 363 -206 c 0
 311 -206 271 -173 271 -119 c 0
 271 -78 310 -34 334 -10 c 1
 319 -10 l 2
 167 -10 80 51 80 210 c 2
 80 692 l 1
 157 692 l 1
 157 208 l 2
EndSplineSet
Position2: "'cpsp' Capital Spacing in Lateinisch lookup 0 subtable" dx=5 dy=0 dh=10 dv=0
EndChar

StartChar: Uring
Encoding: 366 366 119
Width: 644
Flags: MW
HStem: -10 68<268 373 268 398> 740 52<304.5 343 304.5 357.5> 899 52<304.5 343>
VStem: 80 77<210 692> 205 57<829 863 829 879.5> 386 56<829 863> 488 76<208 210 210 692>
LayerCount: 2
Fore
SplineSet
157 208 m 2
 157 100 217 58 319 58 c 0
 427 58 488 100 488 208 c 2
 488 692 l 1
 564 692 l 1
 564 210 l 2
 564 52 477 -10 319 -10 c 0
 167 -10 80 51 80 210 c 2
 80 692 l 1
 157 692 l 1
 157 208 l 2
442 846 m 0
 442 778 391 740 324 740 c 0
 256 740 205 778 205 846 c 0
 205 913 256 951 324 951 c 0
 391 951 442 913 442 846 c 0
262 846 m 0
 262 812 285 792 324 792 c 0
 362 792 386 812 386 846 c 0
 386 880 362 899 324 899 c 0
 285 899 262 880 262 846 c 0
EndSplineSet
Position2: "'cpsp' Capital Spacing in Lateinisch lookup 0 subtable" dx=5 dy=0 dh=10 dv=0
EndChar

StartChar: Utilde
Encoding: 360 360 120
Width: 644
Flags: MW
HStem: -10 68<268 373 268 398> 803 66<389 414.5 389 426> 857 66<231 259>
VStem: 80 77<210 692> 488 76<208 210 210 692>
LayerCount: 2
Fore
SplineSet
157 208 m 2xd8
 157 100 217 58 319 58 c 0
 427 58 488 100 488 208 c 2
 488 692 l 1
 564 692 l 1
 564 210 l 2
 564 52 477 -10 319 -10 c 0
 167 -10 80 51 80 210 c 2
 80 692 l 1
 157 692 l 1
 157 208 l 2xd8
472 915 m 1
 490 859 l 1
 490 859 446 803 406 803 c 0xd8
 359 803 275 857 243 857 c 0
 219 857 170 809 170 809 c 1
 153 865 l 1
 153 865 201 923 242 923 c 0xb8
 292 923 374 869 404 869 c 0
 425 869 472 915 472 915 c 1
EndSplineSet
Position2: "'cpsp' Capital Spacing in Lateinisch lookup 0 subtable" dx=5 dy=0 dh=10 dv=0
EndChar

StartChar: V
Encoding: 86 86 121
Width: 582
Flags: MW
HStem: 0 68<263 319 263 377 205 319>
VStem: 24 534<692 692>
LayerCount: 2
Fore
SplineSet
478 692 m 1
 558 692 l 1
 377 0 l 1
 205 0 l 1
 24 692 l 1
 104 692 l 1
 263 68 l 1
 319 68 l 1
 478 692 l 1
EndSplineSet
Position2: "'cpsp' Capital Spacing in Lateinisch lookup 0 subtable" dx=5 dy=0 dh=10 dv=0
EndChar

StartChar: W
Encoding: 87 87 122
Width: 886
Flags: MW
HStem: 0 68<228 257 228 312 171 257 629 658>
VStem: 30 825<692 692>
LayerCount: 2
Fore
SplineSet
30 692 m 1
 110 692 l 1
 228 68 l 1
 257 68 l 1
 398 686 l 1
 488 686 l 1
 629 68 l 1
 658 68 l 1
 776 692 l 1
 855 692 l 1
 715 0 l 1
 574 0 l 1
 443 591 l 1
 312 0 l 1
 171 0 l 1
 30 692 l 1
EndSplineSet
Position2: "'cpsp' Capital Spacing in Lateinisch lookup 0 subtable" dx=5 dy=0 dh=10 dv=0
EndChar

StartChar: Wacute
Encoding: 7810 7810 123
Width: 886
Flags: MW
HStem: 0 68<228 257 228 312 171 257 629 658>
VStem: 30 825<692 692>
LayerCount: 2
Fore
SplineSet
30 692 m 1
 110 692 l 1
 228 68 l 1
 257 68 l 1
 398 686 l 1
 488 686 l 1
 629 68 l 1
 658 68 l 1
 776 692 l 1
 855 692 l 1
 715 0 l 1
 574 0 l 1
 443 591 l 1
 312 0 l 1
 171 0 l 1
 30 692 l 1
332 831 m 1
 548 931 l 1
 574 865 l 1
 355 778 l 1
 332 831 l 1
EndSplineSet
Position2: "'cpsp' Capital Spacing in Lateinisch lookup 0 subtable" dx=5 dy=0 dh=10 dv=0
EndChar

StartChar: Wcircumflex
Encoding: 372 372 124
Width: 886
Flags: MW
HStem: 0 68<228 257 228 312 171 257 629 658> 788 135<277 476 277 476 411 526 411 610>
VStem: 30 825<692 692>
LayerCount: 2
Fore
SplineSet
30 692 m 1
 110 692 l 1
 228 68 l 1
 257 68 l 1
 398 686 l 1
 488 686 l 1
 629 68 l 1
 658 68 l 1
 776 692 l 1
 855 692 l 1
 715 0 l 1
 574 0 l 1
 443 591 l 1
 312 0 l 1
 171 0 l 1
 30 692 l 1
277 788 m 1
 411 923 l 1
 476 923 l 1
 610 788 l 1
 526 788 l 1
 444 868 l 1
 361 788 l 1
 277 788 l 1
EndSplineSet
Position2: "'cpsp' Capital Spacing in Lateinisch lookup 0 subtable" dx=5 dy=0 dh=10 dv=0
EndChar

StartChar: Wdieresis
Encoding: 7812 7812 125
Width: 886
Flags: MW
HStem: 0 68<228 257 228 312 171 257 629 658> 808 90<304 377 304 377 508 580>
VStem: 304 73<808 898 808 898> 508 72<808 898 808 898>
LayerCount: 2
Fore
SplineSet
30 692 m 1
 110 692 l 1
 228 68 l 1
 257 68 l 1
 398 686 l 1
 488 686 l 1
 629 68 l 1
 658 68 l 1
 776 692 l 1
 855 692 l 1
 715 0 l 1
 574 0 l 1
 443 591 l 1
 312 0 l 1
 171 0 l 1
 30 692 l 1
304 808 m 1
 304 898 l 1
 377 898 l 1
 377 808 l 1
 304 808 l 1
508 808 m 1
 508 898 l 1
 580 898 l 1
 580 808 l 1
 508 808 l 1
EndSplineSet
Position2: "'cpsp' Capital Spacing in Lateinisch lookup 0 subtable" dx=5 dy=0 dh=10 dv=0
EndChar

StartChar: Wgrave
Encoding: 7808 7808 126
Width: 886
Flags: MW
HStem: 0 68<228 257 228 312 171 257 629 658>
VStem: 30 825<692 692>
LayerCount: 2
Fore
SplineSet
30 692 m 1
 110 692 l 1
 228 68 l 1
 257 68 l 1
 398 686 l 1
 488 686 l 1
 629 68 l 1
 658 68 l 1
 776 692 l 1
 855 692 l 1
 715 0 l 1
 574 0 l 1
 443 591 l 1
 312 0 l 1
 171 0 l 1
 30 692 l 1
346 931 m 1
 562 831 l 1
 539 778 l 1
 320 865 l 1
 346 931 l 1
EndSplineSet
Position2: "'cpsp' Capital Spacing in Lateinisch lookup 0 subtable" dx=5 dy=0 dh=10 dv=0
EndChar

StartChar: X
Encoding: 88 88 127
Width: 558
Flags: MW
HStem: 0 21G<19 102 19 19 453 540 453 453>
VStem: 19 521<0 0>
LayerCount: 2
Fore
SplineSet
106 692 m 1
 281 396 l 1
 457 692 l 1
 540 692 l 1
 327 341 l 1
 540 0 l 1
 453 0 l 1
 279 287 l 1
 102 0 l 1
 19 0 l 1
 233 339 l 1
 19 692 l 1
 106 692 l 1
EndSplineSet
Position2: "'cpsp' Capital Spacing in Lateinisch lookup 0 subtable" dx=5 dy=0 dh=10 dv=0
EndChar

StartChar: Y
Encoding: 89 89 128
Width: 538
Flags: MW
HStem: 0 21G<231 308 231 231>
VStem: 231 77<0 291 0 291>
LayerCount: 2
Fore
SplineSet
308 291 m 1
 308 0 l 1
 231 0 l 1
 231 291 l 1
 10 692 l 1
 97 692 l 1
 269 368 l 1
 441 692 l 1
 528 692 l 1
 308 291 l 1
EndSplineSet
Position2: "'cpsp' Capital Spacing in Lateinisch lookup 0 subtable" dx=5 dy=0 dh=10 dv=0
EndChar

StartChar: Yacute
Encoding: 221 221 129
Width: 538
Flags: MW
HStem: 0 21G<231 308 231 231>
VStem: 231 77<0 291 0 291>
LayerCount: 2
Fore
SplineSet
308 291 m 1
 308 0 l 1
 231 0 l 1
 231 291 l 1
 10 692 l 1
 97 692 l 1
 269 368 l 1
 441 692 l 1
 528 692 l 1
 308 291 l 1
167 831 m 1
 383 931 l 1
 409 865 l 1
 190 778 l 1
 167 831 l 1
EndSplineSet
Position2: "'cpsp' Capital Spacing in Lateinisch lookup 0 subtable" dx=5 dy=0 dh=10 dv=0
EndChar

StartChar: Ycircumflex
Encoding: 374 374 130
Width: 538
Flags: MW
HStem: 0 21G<231 308 231 231> 791 135<104 303 104 303 238 353 238 437>
VStem: 231 77<0 291 0 291>
LayerCount: 2
Fore
SplineSet
308 291 m 1
 308 0 l 1
 231 0 l 1
 231 291 l 1
 10 692 l 1
 97 692 l 1
 269 368 l 1
 441 692 l 1
 528 692 l 1
 308 291 l 1
104 791 m 1
 238 926 l 1
 303 926 l 1
 437 791 l 1
 353 791 l 1
 271 871 l 1
 188 791 l 1
 104 791 l 1
EndSplineSet
Position2: "'cpsp' Capital Spacing in Lateinisch lookup 0 subtable" dx=5 dy=0 dh=10 dv=0
EndChar

StartChar: Ydieresis
Encoding: 376 376 131
Width: 538
Flags: MW
HStem: 0 21G<231 308 231 231> 808 90<130 203 130 203 334 406>
VStem: 130 73<808 898 808 898> 231 77<0 291 0 291> 334 72<808 898 808 898>
LayerCount: 2
Fore
SplineSet
308 291 m 1
 308 0 l 1
 231 0 l 1
 231 291 l 1
 10 692 l 1
 97 692 l 1
 269 368 l 1
 441 692 l 1
 528 692 l 1
 308 291 l 1
130 808 m 1xf8
 130 898 l 1
 203 898 l 1
 203 808 l 1
 130 808 l 1xf8
334 808 m 1
 334 898 l 1
 406 898 l 1
 406 808 l 1
 334 808 l 1
EndSplineSet
Position2: "'cpsp' Capital Spacing in Lateinisch lookup 0 subtable" dx=5 dy=0 dh=10 dv=0
EndChar

StartChar: Ygrave
Encoding: 7922 7922 132
Width: 538
Flags: MW
HStem: 0 21G<231 308 231 231>
VStem: 231 77<0 291 0 291>
LayerCount: 2
Fore
SplineSet
308 291 m 1
 308 0 l 1
 231 0 l 1
 231 291 l 1
 10 692 l 1
 97 692 l 1
 269 368 l 1
 441 692 l 1
 528 692 l 1
 308 291 l 1
166 931 m 1
 382 831 l 1
 359 778 l 1
 140 865 l 1
 166 931 l 1
EndSplineSet
Position2: "'cpsp' Capital Spacing in Lateinisch lookup 0 subtable" dx=5 dy=0 dh=10 dv=0
EndChar

StartChar: Z
Encoding: 90 90 133
Width: 536
Flags: MW
HStem: -1 69<131 493 131 493> 624 68<43 493 43 404>
VStem: 43 88<68 88 68 88 68 88> 404 89<602 624 624 624>
LayerCount: 2
Fore
SplineSet
43 624 m 1
 43 692 l 1
 493 692 l 1
 493 602 l 1
 131 88 l 1
 131 68 l 1
 493 68 l 1
 493 -1 l 1
 43 -1 l 1
 43 88 l 1
 404 602 l 1
 404 624 l 1
 43 624 l 1
EndSplineSet
Position2: "'cpsp' Capital Spacing in Lateinisch lookup 0 subtable" dx=5 dy=0 dh=10 dv=0
EndChar

StartChar: Zacute
Encoding: 377 377 134
Width: 536
Flags: MW
HStem: -1 69<131 493 131 493> 624 68<43 493 43 404>
VStem: 43 88<68 88 68 88 68 88> 404 89<602 624 624 624>
LayerCount: 2
Fore
SplineSet
43 624 m 1
 43 692 l 1
 493 692 l 1
 493 602 l 1
 131 88 l 1
 131 68 l 1
 493 68 l 1
 493 -1 l 1
 43 -1 l 1
 43 88 l 1
 404 602 l 1
 404 624 l 1
 43 624 l 1
153 831 m 1
 369 931 l 1
 395 865 l 1
 176 778 l 1
 153 831 l 1
EndSplineSet
Position2: "'cpsp' Capital Spacing in Lateinisch lookup 0 subtable" dx=5 dy=0 dh=10 dv=0
EndChar

StartChar: Zcaron
Encoding: 381 381 135
Width: 536
Flags: MW
HStem: -1 69<131 493 131 493> 624 68<43 493 43 404> 791 135<109 243 109 308>
VStem: 43 88<68 88 68 88 68 88> 404 89<602 624 624 624>
LayerCount: 2
Fore
SplineSet
43 624 m 1
 43 692 l 1
 493 692 l 1
 493 602 l 1
 131 88 l 1
 131 68 l 1
 493 68 l 1
 493 -1 l 1
 43 -1 l 1
 43 88 l 1
 404 602 l 1
 404 624 l 1
 43 624 l 1
243 791 m 1
 109 926 l 1
 193 926 l 1
 276 846 l 1
 358 926 l 1
 442 926 l 1
 308 791 l 1
 243 791 l 1
EndSplineSet
Position2: "'cpsp' Capital Spacing in Lateinisch lookup 0 subtable" dx=5 dy=0 dh=10 dv=0
EndChar

StartChar: Zdotaccent
Encoding: 379 379 136
Width: 536
Flags: MW
HStem: -1 69<131 493 131 493> 624 68<43 493 43 404> 801 87<230 304 230 304>
VStem: 43 88<68 88 68 88 68 88> 230 74<801 888 801 888> 404 89<602 624 624 624>
LayerCount: 2
Fore
SplineSet
43 624 m 1
 43 692 l 1
 493 692 l 1
 493 602 l 1
 131 88 l 1
 131 68 l 1
 493 68 l 1
 493 -1 l 1
 43 -1 l 1
 43 88 l 1
 404 602 l 1
 404 624 l 1
 43 624 l 1
230 801 m 1
 230 888 l 1
 304 888 l 1
 304 801 l 1
 230 801 l 1
EndSplineSet
Position2: "'cpsp' Capital Spacing in Lateinisch lookup 0 subtable" dx=5 dy=0 dh=10 dv=0
EndChar

StartChar: g
Encoding: 103 103 139
Width: 514
Flags: MW
HStem: -235 63<209.5 316 209.5 335.5> 5 66<270.5 333.5> 170 60<235 285 204 304> 438 63 449 61<204 268 187.5 285>
VStem: 50 74<-112.5 -58.5 -112.5 -55> 56 75<299.5 378.5 299.5 400.5> 101 72<97 118.5> 358 75<299.5 365.5 274 378.5> 411 76<-112 -41>
LayerCount: 2
Fore
SplineSet
265 -235 m 0xf440
 107 -235 50 -200 50 -84 c 0xf440
 50 -26 77 1 129 40 c 1
 111 52 101 78 101 109 c 0xf140
 101 128 135 188 135 188 c 1
 93 207 56 247 56 339 c 0
 56 462 132 510 243 510 c 0xea80
 293 510 347 497 347 497 c 1
 495 501 l 1
 495 437 l 1
 400 439 l 1
 419 420 433 392 433 339 c 0
 433 209 368 170 240 170 c 0
 230 170 202 172 191 174 c 1
 191 174 173 130 173 117 c 0xf180
 173 77 181 71 294 71 c 0
 436 71 487 43 487 -76 c 0
 487 -189 406 -235 265 -235 c 0xf440
288 5 m 0
 253 5 180 10 180 10 c 1
 138 -21 124 -39 124 -78 c 0
 124 -147 153 -172 266 -172 c 0
 366 -172 411 -145 411 -79 c 0
 411 -3 379 5 288 5 c 0
243 230 m 0xea80
 327 230 358 260 358 339 c 0
 358 418 327 449 243 449 c 0
 165 449 131 418 131 339 c 0
 131 260 165 230 243 230 c 0xea80
EndSplineSet
EndChar

StartChar: h
Encoding: 104 104 140
Width: 537
Flags: MW
HStem: 0 21G<72 147 72 72 395 395 395 470> 443 67<264 334> 698 20G<72 147 147 147>
VStem: 72 75<0 413 472 718> 395 75<0 262 262 264 0 328>
LayerCount: 2
Fore
SplineSet
147 0 m 1
 72 0 l 1
 72 718 l 1
 147 718 l 1
 147 472 l 1
 147 472 227 510 301 510 c 0
 438 510 470 442 470 264 c 2
 470 0 l 1
 395 0 l 1
 395 262 l 2
 395 394 380 443 288 443 c 0
 217 443 147 413 147 413 c 1
 147 0 l 1
EndSplineSet
EndChar

StartChar: s
Encoding: 115 115 141
Width: 465
Flags: MW
HStem: -10 21G<196 288> -10 67<196 262 195.5 288> 443 67<198 261> 490 20G<179.5 262.5>
VStem: 45 75<343.5 396.5 343.5 419> 347 75<109 169>
LayerCount: 2
Fore
SplineSet
406 491 m 1x5c
 404 427 l 1
 404 427 293 443 229 443 c 0
 167 443 120 426 120 367 c 0
 120 320 144 307 250 289 c 0
 375 268 422 243 422 146 c 0
 422 29 348 -10 228 -10 c 0x6c
 164 -10 52 9 52 9 c 1xac
 56 74 l 1
 56 74 170 57 221 57 c 0
 303 57 347 75 347 143 c 0
 347 195 321 208 212 225 c 0
 99 243 45 264 45 364 c 0
 45 474 134 510 225 510 c 0x6c
 300 510 406 491 406 491 c 1x5c
EndSplineSet
EndChar

StartChar: endash
Encoding: 8211 8211 143
Width: 631
Flags: MW
HStem: 235 66<66 566 66 566>
VStem: 66 500<235 301 235 301>
LayerCount: 2
Fore
SplineSet
66 301 m 1
 566 301 l 1
 566 235 l 1
 66 235 l 1
 66 301 l 1
EndSplineSet
Substitution2: "'case' Case-Sensitive Forms in Lateinisch lookup 4 subtable" endash.cap
EndChar

StartChar: dollar
Encoding: 36 36 144
Width: 560
Flags: MW
HStem: -9 65<277 279 279 283 268 279> -6 21G<217 217> 605 65<239.5 284.5 217 286 217 296> 666 21G<355 355>
VStem: 69 74<459.5 534.5 459.5 556.5> 420 74<143 221.5>
LayerCount: 2
Fore
SplineSet
480 651 m 1x9c
 474 589 l 1
 474 589 405 597 347 602 c 1
 317 369 l 1
 439 340 494 306 494 194 c 0
 494 49 414 -9 283 -9 c 2
 268 -9 l 1x9c
 254 -124 l 1
 254 -124 203 -121 203 -117 c 2
 217 -6 l 1
 147 0 74 12 74 12 c 1
 82 73 l 1
 82 73 159 62 225 58 c 1
 258 308 l 1
 132 337 69 372 69 493 c 0
 69 620 153 670 281 670 c 0
 288 670 296 670 304 669 c 1x6c
 321 798 l 1
 372 798 l 1
 355 666 l 1
 418 660 480 651 480 651 c 1x9c
143 497 m 0
 143 422 179 401 267 380 c 1
 296 605 l 1
 286 605 l 2xac
 193 605 143 572 143 497 c 0
420 189 m 0
 420 254 389 279 308 298 c 1
 277 56 l 1
 279 56 l 2
 373 56 420 97 420 189 c 0
EndSplineSet
EndChar

StartChar: exclam
Encoding: 33 33 145
Width: 247
Flags: MW
HStem: 0 112<83 165 83 165>
VStem: 83 82<0 112 0 112> 86.5 74
LayerCount: 2
Fore
SplineSet
83 0 m 1xc0
 83 112 l 1
 165 112 l 1
 165 0 l 1
 83 0 l 1xc0
89 228 m 1xa0
 84 692 l 1
 163 692 l 1
 158 228 l 1
 89 228 l 1xa0
EndSplineSet
EndChar

StartChar: summation
Encoding: 8721 8721 146
Width: 560
Flags: MW
HStem: -163 69<124 514 124 514> 685 68<124 514 124 124>
VStem: 44 80<-94 -69 -94 -62 -94 -62 663 685>
LayerCount: 2
Fore
SplineSet
311 308 m 1
 44 654 l 1
 44 753 l 1
 514 753 l 1
 514 685 l 1
 124 685 l 1
 124 663 l 1
 381 334 l 1
 381 279 l 1
 124 -69 l 1
 124 -94 l 1
 514 -94 l 1
 514 -163 l 1
 44 -163 l 1
 44 -62 l 1
 311 308 l 1
EndSplineSet
EndChar

StartChar: a
Encoding: 97 97 147
Width: 501
Flags: MW
HStem: -10 63<167.5 226> 242 56.5 444 66<225 290>
VStem: 40 77<116 172.5 116 191> 350 75<93 249 249 249 306 349 93 384>
LayerCount: 2
Fore
SplineSet
425 349 m 2
 425 93 l 2
 427 64 451 53 483 49 c 1
 480 -10 l 1
 427 -10 391 0 361 30 c 1
 361 30 271 -10 181 -10 c 0
 90 -10 40 42 40 143 c 0
 40 239 90 281 193 291 c 2
 350 306 l 1
 350 349 l 2
 350 419 320 444 260 444 c 0
 190 444 71 431 71 431 c 1
 68 488 l 1
 68 488 178 510 264 510 c 0
 377 510 425 458 425 349 c 2
350 249 m 1
 202 235 l 2
 141 229 117 200 117 145 c 0
 117 87 142 53 193 53 c 0
 267 53 350 84 350 84 c 1
 350 249 l 1
EndSplineSet
EndChar

StartChar: o
Encoding: 111 111 148
Width: 528
Flags: MW
HStem: -10 65<205 323.5 205 348.5> 445 65<211 317.5>
VStem: 50 77<185 325.5 185 342> 401 77<185 325.5>
LayerCount: 2
Fore
SplineSet
264 510 m 0
 423 510 478 428 478 256 c 0
 478 74 433 -10 264 -10 c 0
 96 -10 50 74 50 256 c 0
 50 428 106 510 264 510 c 0
264 55 m 0
 383 55 401 114 401 256 c 0
 401 395 371 445 264 445 c 0
 158 445 127 395 127 256 c 0
 127 114 146 55 264 55 c 0
EndSplineSet
EndChar

StartChar: n
Encoding: 110 110 149
Width: 537
Flags: MW
HStem: 0 21G<72 147 72 72 396 396 396 470> 443 67<264 334.5> 465 35<72 146>
VStem: 72 75<0 406> 396 74<0 262 262 264 0 328>
LayerCount: 2
Fore
SplineSet
147 0 m 1xd8
 72 0 l 1
 72 500 l 1
 146 500 l 1xb8
 146 465 l 1
 146 465 227 510 301 510 c 0
 439 510 470 442 470 264 c 2
 470 0 l 1
 396 0 l 1
 396 262 l 2
 396 394 381 443 288 443 c 0
 216 443 147 406 147 406 c 1
 147 0 l 1xd8
EndSplineSet
EndChar

StartChar: numbersign
Encoding: 35 35 150
Width: 560
Flags: MW
HStem: 0 21G<135 203 135 135 357 425 357 357> 174 64<24 135 24 135 203 357 425 536> 424 64<24 135 24 135 203 357 425 536>
VStem: 135 68<0 174 0 174 238 424 488 666> 357 68<0 174 0 174 238 424 488 666>
LayerCount: 2
Fore
SplineSet
536 174 m 1
 425 174 l 1
 425 0 l 1
 357 0 l 1
 357 174 l 1
 203 174 l 1
 203 0 l 1
 135 0 l 1
 135 174 l 1
 24 174 l 1
 24 238 l 1
 135 238 l 1
 135 424 l 1
 24 424 l 1
 24 488 l 1
 135 488 l 1
 135 666 l 1
 203 666 l 1
 203 488 l 1
 357 488 l 1
 357 666 l 1
 425 666 l 1
 425 488 l 1
 536 488 l 1
 536 424 l 1
 425 424 l 1
 425 238 l 1
 536 238 l 1
 536 174 l 1
357 238 m 1
 357 424 l 1
 203 424 l 1
 203 238 l 1
 357 238 l 1
EndSplineSet
EndChar

StartChar: at
Encoding: 64 64 151
Width: 977
Flags: MW
HStem: -203 66<372.5 526 372.5 530> -6 63<724 789.5 724 811.5> -5 66<445.5 497.5 445.5 504> 439 66<448 517.5 415 526.5> 479 16<608 683> 657 66<377.5 631>
VStem: 51 76<113 400.5 113 426> 290 76<166.5 308 166.5 330> 608 75<280 304 304 419 419 419 479 495> 857 76<292 305 163.5 306 163.5 428>
LayerCount: 2
Fore
SplineSet
933 305 m 2xd7c0
 933 292 l 2
 933 35 865 -6 758 -6 c 0xd7c0
 658 -6 640 54 640 54 c 1
 640 54 542 -5 466 -5 c 0
 380 -5 290 27 290 246 c 0xb7c0
 290 414 337 505 493 505 c 0
 542 505 608 479 608 479 c 1
 608 495 l 1
 683 495 l 1xcfc0
 683 304 l 2
 683 80 688 57 760 57 c 0
 819 57 857 77 857 292 c 2
 857 306 l 2
 857 550 758 657 504 657 c 0
 251 657 127 540 127 261 c 0
 127 -35 241 -137 504 -137 c 0
 548 -137 647 -127 647 -127 c 1
 650 -194 l 1
 650 -194 556 -203 504 -203 c 0
 208 -203 51 -100 51 261 c 0
 51 591 216 723 504 723 c 0
 805 723 933 585 933 305 c 2xd7c0
471 61 m 0xb7c0
 524 61 608 103 617 107 c 1
 615 119 608 203 608 280 c 2
 608 419 l 1
 608 419 548 439 505 439 c 0
 391 439 366 372 366 244 c 0
 366 89 420 61 471 61 c 0xb7c0
EndSplineSet
EndChar

StartChar: ydieresis
Encoding: 255 255 152
Width: 483
Flags: MW
HStem: -222 21G<176 251 176 176> 0 65<225 241 167 258> 480 20G<25 100 100 100 384 459 459 459> 621 90<104 176 104 176 304 377>
VStem: 104 72<621 711> 304 73<621 711 621 711>
LayerCount: 2
Fore
SplineSet
25 500 m 1
 100 500 l 1
 225 65 l 1
 258 65 l 1
 384 500 l 1
 459 500 l 1
 251 -222 l 1
 176 -222 l 1
 241 0 l 1
 167 0 l 1
 25 500 l 1
104 621 m 1
 104 711 l 1
 176 711 l 1
 176 621 l 1
 104 621 l 1
304 621 m 1
 304 711 l 1
 377 711 l 1
 377 621 l 1
 304 621 l 1
EndSplineSet
EndChar

StartChar: scaron
Encoding: 353 353 153
Width: 465
Flags: MW
HStem: -10 21G<196 288> -10 67<196 262 195.5 288> 443 67<198 261> 490 20G<179.5 262.5> 592 140<93 216 93 266>
VStem: 45 75<343.5 396.5 343.5 419> 347 75<109 169>
LayerCount: 2
Fore
SplineSet
406 491 m 1x5e
 404 427 l 1
 404 427 293 443 229 443 c 0
 167 443 120 426 120 367 c 0
 120 320 144 307 250 289 c 0
 375 268 422 243 422 146 c 0
 422 29 348 -10 228 -10 c 0x6e
 164 -10 52 9 52 9 c 1xae
 56 74 l 1
 56 74 170 57 221 57 c 0
 303 57 347 75 347 143 c 0
 347 195 321 208 212 225 c 0
 99 243 45 264 45 364 c 0
 45 474 134 510 225 510 c 0x6e
 300 510 406 491 406 491 c 1x5e
216 592 m 1
 93 732 l 1
 167 732 l 1
 242 645 l 1
 316 732 l 1
 391 732 l 1
 266 592 l 1
 216 592 l 1
EndSplineSet
EndChar

StartChar: yacute
Encoding: 253 253 154
Width: 483
Flags: MW
HStem: -222 21G<176 251 176 176> 0 65<225 241 167 258> 480 20G<25 100 100 100 384 459 459 459>
VStem: 25 434<500 500>
LayerCount: 2
Fore
SplineSet
25 500 m 1
 100 500 l 1
 225 65 l 1
 258 65 l 1
 384 500 l 1
 459 500 l 1
 251 -222 l 1
 176 -222 l 1
 241 0 l 1
 167 0 l 1
 25 500 l 1
154 642 m 1
 370 740 l 1
 396 676 l 1
 175 591 l 1
 154 642 l 1
EndSplineSet
EndChar

StartChar: zcaron
Encoding: 382 382 155
Width: 455
Flags: MW
HStem: 0 67<133 413 42 42> 433 67<42 413 42 322 42 413> 592 140<82 205 82 255>
VStem: 42 371<0 67 0 67 433 500>
LayerCount: 2
Fore
SplineSet
42 433 m 1
 42 500 l 1
 413 500 l 1
 413 433 l 1
 133 67 l 1
 413 67 l 1
 413 0 l 1
 42 0 l 1
 42 67 l 1
 322 433 l 1
 42 433 l 1
205 592 m 1
 82 732 l 1
 156 732 l 1
 231 645 l 1
 305 732 l 1
 380 732 l 1
 255 592 l 1
 205 592 l 1
EndSplineSet
EndChar

StartChar: degree
Encoding: 176 176 156
Width: 560
Flags: MW
HStem: 420 48<252.5 307.5 252.5 322> 654 48<252.5 307.5>
VStem: 138 51<533 588.5 533 603> 373 49<533 588.5>
LayerCount: 2
Fore
SplineSet
138 561 m 0
 138 645 196 702 280 702 c 0
 364 702 422 645 422 561 c 0
 422 476 364 420 280 420 c 0
 196 420 138 476 138 561 c 0
189 561 m 0
 189 505 225 468 280 468 c 0
 335 468 373 505 373 561 c 0
 373 616 335 654 280 654 c 0
 225 654 189 616 189 561 c 0
EndSplineSet
EndChar

StartChar: section
Encoding: 167 167 157
Width: 499
Flags: MW
HStem: -150 65<213.5 281 213.5 308.5> 586 65<218.5 285>
VStem: 52 75<235.5 285> 66 73<462.5 526 459.5 546> 364 72<-20 45 -39 46.5> 367 76<220.5 271.5>
LayerCount: 2
Fore
SplineSet
422 634 m 1xd8
 418 571 l 1
 418 571 309 586 261 586 c 0
 176 586 139 558 139 494 c 0
 139 425 184 412 282 394 c 0
 390 373 443 348 443 249 c 0xd4
 443 192 410 134 399 118 c 1
 423 97 436 72 436 18 c 0
 436 -96 372 -150 245 -150 c 0
 181 -150 70 -133 70 -133 c 1
 77 -70 l 1
 77 -70 186 -85 241 -85 c 0
 321 -85 364 -54 364 14 c 0
 364 79 320 87 220 106 c 0
 108 127 52 157 52 255 c 0xe8
 52 315 98 371 110 381 c 1
 81 402 66 433 66 492 c 0
 66 600 136 651 258 651 c 0
 324 651 422 634 422 634 c 1xd8
252 332 m 0
 217 338 185 344 160 354 c 1
 157 349 127 305 127 266 c 0xe8
 127 205 161 187 240 173 c 0
 282 165 317 157 342 146 c 1
 346 151 367 197 367 240 c 0
 367 303 329 317 252 332 c 0
EndSplineSet
EndChar

StartChar: copyright
Encoding: 169 169 158
Width: 645
Flags: MW
HStem: 161 44<259 385.5 259 400> 276 57<305.5 344.5 305.5 346.5> 534 57<303.5 346> 664 43<259 385>
VStem: 59 44<371 497 371 511> 209 61<402 468 402 487> 542 44<370.5 497>
LayerCount: 2
Fore
SplineSet
59 434 m 0
 59 588 170 707 323 707 c 0
 478 707 586 584 586 434 c 0
 586 281 478 161 322 161 c 0
 171 161 59 282 59 434 c 0
103 434 m 0
 103 308 196 205 322 205 c 0
 449 205 542 307 542 434 c 0
 542 560 448 664 322 664 c 0
 196 664 103 560 103 434 c 0
400 340 m 1
 404 288 l 1
 404 288 367 276 326 276 c 0
 238 276 209 326 209 435 c 0
 209 539 237 591 327 591 c 0
 369 591 404 581 404 581 c 1
 400 528 l 1
 400 528 362 534 330 534 c 0
 277 534 270 501 270 435 c 0
 270 369 281 333 330 333 c 0
 359 333 400 340 400 340 c 1
EndSplineSet
EndChar

StartChar: trademark
Encoding: 8482 8482 159
Width: 677
Flags: MW
HStem: 331 299<91 322 322 374 549 549 549 601> 580 50<91 291 91 170 225 225 225 291>
VStem: 170 55<332 580 332 580> 322 52<331 555 331 630> 549 52<331 555 555 555>
LayerCount: 2
Fore
SplineSet
91 580 m 1x78
 91 630 l 1
 291 630 l 1
 291 580 l 1
 225 580 l 1
 225 332 l 1
 170 332 l 1
 170 580 l 1
 91 580 l 1x78
322 331 m 1
 322 630 l 1
 394 630 l 1x78
 460 422 l 1
 531 630 l 1
 601 630 l 1
 601 331 l 1
 549 331 l 1xb8
 549 555 l 1
 483 346 l 1
 440 346 l 1
 374 555 l 1
 374 331 l 1
 322 331 l 1
EndSplineSet
EndChar

StartChar: registered
Encoding: 174 174 160
Width: 645
Flags: MW
HStem: 161 44<259.5 385.5 259.5 400> 389 47<271 329 329 330 271 271> 538 47<270 270 270 318> 664 43<259 385>
VStem: 59 44<371 497 371 511> 213 58<282 389 282 585> 380 57<469 505> 542 44<370.5 497>
LayerCount: 2
Fore
SplineSet
59 434 m 0
 59 588 170 707 322 707 c 0
 478 707 586 584 586 434 c 0
 586 281 478 161 322 161 c 0
 171 161 59 282 59 434 c 0
103 434 m 0
 103 308 197 205 322 205 c 0
 449 205 542 307 542 434 c 0
 542 560 448 664 322 664 c 0
 196 664 103 560 103 434 c 0
380 282 m 1
 330 389 l 1
 271 389 l 1
 271 282 l 1
 213 282 l 1
 213 585 l 1
 323 585 l 2
 395 585 437 561 437 490 c 0
 437 441 424 414 386 397 c 1
 441 282 l 1
 380 282 l 1
270 538 m 1
 270 436 l 1
 329 436 l 2
 365 436 380 451 380 487 c 0
 380 523 360 538 318 538 c 2
 270 538 l 1
EndSplineSet
EndChar

StartChar: aacute
Encoding: 225 225 161
Width: 501
Flags: MW
HStem: -10 63<167.5 226> 242 56.5 444 66<225 290>
VStem: 40 77<116 172.5 116 191> 350 75<93 249 249 249 306 349 93 384>
LayerCount: 2
Fore
SplineSet
425 349 m 2
 425 93 l 2
 427 64 451 53 483 49 c 1
 480 -10 l 1
 427 -10 391 0 361 30 c 1
 361 30 271 -10 181 -10 c 0
 90 -10 40 42 40 143 c 0
 40 239 90 281 193 291 c 2
 350 306 l 1
 350 349 l 2
 350 419 320 444 260 444 c 0
 190 444 71 431 71 431 c 1
 68 488 l 1
 68 488 178 510 264 510 c 0
 377 510 425 458 425 349 c 2
350 249 m 1
 202 235 l 2
 141 229 117 200 117 145 c 0
 117 87 142 53 193 53 c 0
 267 53 350 84 350 84 c 1
 350 249 l 1
118 642 m 1
 334 740 l 1
 360 676 l 1
 139 591 l 1
 118 642 l 1
EndSplineSet
EndChar

StartChar: agrave
Encoding: 224 224 162
Width: 501
Flags: MW
HStem: -10 63<167.5 226> 242 56.5 444 66<225 290>
VStem: 40 77<116 172.5 116 191> 350 75<93 249 249 249 306 349 93 384>
LayerCount: 2
Fore
SplineSet
425 349 m 2
 425 93 l 2
 427 64 451 53 483 49 c 1
 480 -10 l 1
 427 -10 391 0 361 30 c 1
 361 30 271 -10 181 -10 c 0
 90 -10 40 42 40 143 c 0
 40 239 90 281 193 291 c 2
 350 306 l 1
 350 349 l 2
 350 419 320 444 260 444 c 0
 190 444 71 431 71 431 c 1
 68 488 l 1
 68 488 178 510 264 510 c 0
 377 510 425 458 425 349 c 2
350 249 m 1
 202 235 l 2
 141 229 117 200 117 145 c 0
 117 87 142 53 193 53 c 0
 267 53 350 84 350 84 c 1
 350 249 l 1
147 740 m 1
 363 642 l 1
 342 591 l 1
 121 676 l 1
 147 740 l 1
EndSplineSet
EndChar

StartChar: acircumflex
Encoding: 226 226 163
Width: 501
Flags: MW
HStem: -10 63<167.5 226> 242 56.5 444 66<225 290> 592 140<95 269 95 269 218 318 218 393>
VStem: 40 77<116 172.5 116 191> 350 75<93 249 249 249 306 349 93 384>
LayerCount: 2
Fore
SplineSet
425 349 m 2
 425 93 l 2
 427 64 451 53 483 49 c 1
 480 -10 l 1
 427 -10 391 0 361 30 c 1
 361 30 271 -10 181 -10 c 0
 90 -10 40 42 40 143 c 0
 40 239 90 281 193 291 c 2
 350 306 l 1
 350 349 l 2
 350 419 320 444 260 444 c 0
 190 444 71 431 71 431 c 1
 68 488 l 1
 68 488 178 510 264 510 c 0
 377 510 425 458 425 349 c 2
350 249 m 1
 202 235 l 2
 141 229 117 200 117 145 c 0
 117 87 142 53 193 53 c 0
 267 53 350 84 350 84 c 1
 350 249 l 1
95 592 m 1
 218 732 l 1
 269 732 l 1
 393 592 l 1
 318 592 l 1
 245 679 l 1
 170 592 l 1
 95 592 l 1
EndSplineSet
EndChar

StartChar: adieresis
Encoding: 228 228 164
Width: 501
Flags: MW
HStem: -10 63<167.5 226> 242 56.5 444 66<225 290> 621 90<105 177 105 177 305 378>
VStem: 40 77<116 172.5 116 191> 105 72<621 711 621 711> 305 73<621 711 621 711> 350 75<93 249 249 249 306 349 93 384>
LayerCount: 2
Fore
SplineSet
425 349 m 2xf5
 425 93 l 2
 427 64 451 53 483 49 c 1
 480 -10 l 1
 427 -10 391 0 361 30 c 1
 361 30 271 -10 181 -10 c 0
 90 -10 40 42 40 143 c 0xf9
 40 239 90 281 193 291 c 2
 350 306 l 1
 350 349 l 2
 350 419 320 444 260 444 c 0
 190 444 71 431 71 431 c 1
 68 488 l 1
 68 488 178 510 264 510 c 0
 377 510 425 458 425 349 c 2xf5
350 249 m 1
 202 235 l 2
 141 229 117 200 117 145 c 0
 117 87 142 53 193 53 c 0
 267 53 350 84 350 84 c 1
 350 249 l 1
105 621 m 1xf6
 105 711 l 1
 177 711 l 1
 177 621 l 1
 105 621 l 1xf6
305 621 m 1
 305 711 l 1
 378 711 l 1
 378 621 l 1
 305 621 l 1
EndSplineSet
EndChar

StartChar: atilde
Encoding: 227 227 165
Width: 501
Flags: MW
HStem: -10 63<167.5 226> 242 56.5 444 66<225 290> 612 61<292 317.5 292 327> 659 60<156 184> 663 21G<393 393>
VStem: 40 77<116 172.5 116 191> 350 75<93 249 249 249 306 349 93 384>
LayerCount: 2
Fore
SplineSet
425 349 m 2xeb
 425 93 l 2
 427 64 451 53 483 49 c 1
 480 -10 l 1
 427 -10 391 0 361 30 c 1
 361 30 271 -10 181 -10 c 0
 90 -10 40 42 40 143 c 0
 40 239 90 281 193 291 c 2
 350 306 l 1
 350 349 l 2
 350 419 320 444 260 444 c 0
 190 444 71 431 71 431 c 1
 68 488 l 1
 68 488 178 510 264 510 c 0
 377 510 425 458 425 349 c 2xeb
350 249 m 1
 202 235 l 2
 141 229 117 200 117 145 c 0
 117 87 142 53 193 53 c 0
 267 53 350 84 350 84 c 1
 350 249 l 1
376 711 m 1xf3
 393 663 l 1xe7
 393 663 347 612 307 612 c 0xf3
 267 612 200 659 168 659 c 0
 144 659 95 619 95 619 c 1
 77 667 l 1
 77 667 127 719 168 719 c 0xeb
 208 719 277 673 307 673 c 0
 328 673 376 711 376 711 c 1xf3
EndSplineSet
EndChar

StartChar: aring
Encoding: 229 229 166
Width: 501
Flags: MW
HStem: -10 63<167.5 226> 242 56.5 444 66<225 290> 541 47<239.5 270.5 239.5 284> 701 48<239.5 270.5>
VStem: 40 77<116 172.5 116 191> 151 49<629 660.5 629 674> 310 48<629 660.5> 350 75<93 249 249 249 306 349 93 384>
LayerCount: 2
Fore
SplineSet
425 349 m 2xfe80
 425 93 l 2
 427 64 451 53 483 49 c 1
 480 -10 l 1
 427 -10 391 0 361 30 c 1
 361 30 271 -10 181 -10 c 0
 90 -10 40 42 40 143 c 0
 40 239 90 281 193 291 c 2
 350 306 l 1
 350 349 l 2
 350 419 320 444 260 444 c 0
 190 444 71 431 71 431 c 1
 68 488 l 1
 68 488 178 510 264 510 c 0
 377 510 425 458 425 349 c 2xfe80
350 249 m 1
 202 235 l 2
 141 229 117 200 117 145 c 0
 117 87 142 53 193 53 c 0
 267 53 350 84 350 84 c 1
 350 249 l 1
151 645 m 0
 151 703 196 749 255 749 c 0
 313 749 358 703 358 645 c 0xff
 358 586 313 541 255 541 c 0
 196 541 151 586 151 645 c 0
200 645 m 0
 200 613 224 588 255 588 c 0
 286 588 310 613 310 645 c 0xff
 310 676 286 701 255 701 c 0
 224 701 200 676 200 645 c 0
EndSplineSet
EndChar

StartChar: eacute
Encoding: 233 233 167
Width: 505
Flags: MW
HStem: -10 66<208 288.5> 219 60<126 385 125 456 126 126> 447 63<216.5 303>
VStem: 50 75<279 279 279 342> 385 75<279 341>
LayerCount: 2
Fore
SplineSet
257 56 m 0
 332 56 441 65 441 65 c 1
 443 6 l 1
 443 6 329 -10 248 -10 c 0
 99 -10 50 77 50 247 c 0
 50 437 132 510 259 510 c 0
 392 510 460 440 460 276 c 1
 456 219 l 1
 126 219 l 1
 126 112 159 56 257 56 c 0
125 279 m 1
 385 279 l 1
 385 403 347 447 259 447 c 0
 174 447 126 400 125 279 c 1
145 642 m 1
 361 740 l 1
 387 676 l 1
 166 591 l 1
 145 642 l 1
EndSplineSet
EndChar

StartChar: egrave
Encoding: 232 232 168
Width: 505
Flags: MW
HStem: -10 66<208 288.5> 219 60<126 385 125 456 126 126> 447 63<216.5 303>
VStem: 50 75<279 279 279 342> 385 75<279 341>
LayerCount: 2
Fore
SplineSet
257 56 m 0
 332 56 441 65 441 65 c 1
 443 6 l 1
 443 6 329 -10 248 -10 c 0
 99 -10 50 77 50 247 c 0
 50 437 132 510 259 510 c 0
 392 510 460 440 460 276 c 1
 456 219 l 1
 126 219 l 1
 126 112 159 56 257 56 c 0
125 279 m 1
 385 279 l 1
 385 403 347 447 259 447 c 0
 174 447 126 400 125 279 c 1
147 741 m 1
 363 643 l 1
 342 592 l 1
 121 677 l 1
 147 741 l 1
EndSplineSet
EndChar

StartChar: ecircumflex
Encoding: 234 234 169
Width: 505
Flags: MW
HStem: -10 66<208 288.5> 219 60<126 385 125 456 126 126> 447 63<216.5 303> 592 140<112 286 112 286 235 335 235 410>
VStem: 50 75<279 279 279 342> 385 75<279 341>
LayerCount: 2
Fore
SplineSet
257 56 m 0
 332 56 441 65 441 65 c 1
 443 6 l 1
 443 6 329 -10 248 -10 c 0
 99 -10 50 77 50 247 c 0
 50 437 132 510 259 510 c 0
 392 510 460 440 460 276 c 1
 456 219 l 1
 126 219 l 1
 126 112 159 56 257 56 c 0
125 279 m 1
 385 279 l 1
 385 403 347 447 259 447 c 0
 174 447 126 400 125 279 c 1
112 592 m 1
 235 732 l 1
 286 732 l 1
 410 592 l 1
 335 592 l 1
 262 679 l 1
 187 592 l 1
 112 592 l 1
EndSplineSet
EndChar

StartChar: edieresis
Encoding: 235 235 170
Width: 505
Flags: MW
HStem: -10 66<208 288.5> 219 60<126 385 125 456 126 126> 447 63<216.5 303> 621 90<120 192 120 192 320 393>
VStem: 50 75<279 279 279 342> 120 72<621 711 621 711> 320 73<621 711 621 711> 385 75<279 341>
LayerCount: 2
Fore
SplineSet
257 56 m 0xf6
 332 56 441 65 441 65 c 1
 443 6 l 1
 443 6 329 -10 248 -10 c 0
 99 -10 50 77 50 247 c 0
 50 437 132 510 259 510 c 0
 392 510 460 440 460 276 c 1
 456 219 l 1
 126 219 l 1xf9
 126 112 159 56 257 56 c 0xf6
125 279 m 1xf9
 385 279 l 1
 385 403 347 447 259 447 c 0
 174 447 126 400 125 279 c 1xf9
120 621 m 1xf6
 120 711 l 1
 192 711 l 1
 192 621 l 1
 120 621 l 1xf6
320 621 m 1
 320 711 l 1
 393 711 l 1
 393 621 l 1
 320 621 l 1
EndSplineSet
EndChar

StartChar: idieresis
Encoding: 239 239 171
Width: 219
Flags: MW
HStem: 621 90<-31 41 -31 41 169 242>
VStem: -31 72<621 711 621 711> 169 73<621 711 621 711>
LayerCount: 2
Fore
SplineSet
72 500 m 1
 72 0 l 1
 147 0 l 1
 147 500 l 1
 72 500 l 1
-31 621 m 1
 -31 711 l 1
 41 711 l 1
 41 621 l 1
 -31 621 l 1
169 621 m 1
 169 711 l 1
 242 711 l 1
 242 621 l 1
 169 621 l 1
EndSplineSet
EndChar

StartChar: ntilde
Encoding: 241 241 172
Width: 537
Flags: MW
HStem: 612 61<334 359.5 334 369> 659 60<198 226> 663 21G<435 435>
VStem: 147 249<0 262 0 406 0 406>
LayerCount: 2
Fore
SplineSet
72 0 m 1x50
 147 0 l 1
 147 406 l 1
 147 406 216 443 288 443 c 0
 381 443 396 394 396 262 c 2
 396 0 l 1
 470 0 l 1
 470 264 l 2
 470 442 439 510 301 510 c 0
 227 510 146 465 146 465 c 1
 146 500 l 1
 72 500 l 1x90
 72 0 l 1x50
418 711 m 1
 435 663 l 1x30
 435 663 389 612 349 612 c 0x90
 309 612 242 659 210 659 c 0
 186 659 137 619 137 619 c 1
 119 667 l 1
 119 667 169 719 210 719 c 0x50
 250 719 319 673 349 673 c 0
 370 673 418 711 418 711 c 1
EndSplineSet
EndChar

StartChar: oacute
Encoding: 243 243 173
Width: 528
Flags: MW
HStem: -10 750<180 370>
VStem: 50 428<165 342> 127 274<185 325.5>
LayerCount: 2
Fore
SplineSet
264 510 m 0xc0
 106 510 50 428 50 256 c 0
 50 74 96 -10 264 -10 c 0
 433 -10 478 74 478 256 c 0
 478 428 423 510 264 510 c 0xc0
264 55 m 0xa0
 146 55 127 114 127 256 c 0
 127 395 158 445 264 445 c 0
 371 445 401 395 401 256 c 0
 401 114 383 55 264 55 c 0xa0
154 642 m 1
 370 740 l 1
 396 676 l 1
 175 591 l 1
 154 642 l 1
EndSplineSet
EndChar

StartChar: ograve
Encoding: 242 242 174
Width: 528
Flags: MW
HStem: -10 65<205 323.5 205 348.5> 445 65<211 317.5>
VStem: 50 77<185 325.5 185 342> 401 77<185 325.5>
LayerCount: 2
Fore
SplineSet
264 510 m 0
 423 510 478 428 478 256 c 0
 478 74 433 -10 264 -10 c 0
 96 -10 50 74 50 256 c 0
 50 428 106 510 264 510 c 0
264 55 m 0
 383 55 401 114 401 256 c 0
 401 395 371 445 264 445 c 0
 158 445 127 395 127 256 c 0
 127 114 146 55 264 55 c 0
167 740 m 1
 383 642 l 1
 362 591 l 1
 141 676 l 1
 167 740 l 1
EndSplineSet
EndChar

StartChar: ocircumflex
Encoding: 244 244 175
Width: 528
Flags: MW
HStem: 592 140<113 287 113 287 236 336 236 411>
VStem: 50 428<165 342> 127 274<185 325.5>
LayerCount: 2
Fore
SplineSet
264 510 m 0xc0
 106 510 50 428 50 256 c 0
 50 74 96 -10 264 -10 c 0
 433 -10 478 74 478 256 c 0
 478 428 423 510 264 510 c 0xc0
264 55 m 0xa0
 146 55 127 114 127 256 c 0
 127 395 158 445 264 445 c 0
 371 445 401 395 401 256 c 0
 401 114 383 55 264 55 c 0xa0
113 592 m 1
 236 732 l 1
 287 732 l 1
 411 592 l 1
 336 592 l 1
 263 679 l 1
 188 592 l 1
 113 592 l 1
EndSplineSet
EndChar

StartChar: odieresis
Encoding: 246 246 176
Width: 528
Flags: MW
HStem: 621 90<125 197 125 197 325 398>
VStem: 125 72<621 711 621 711> 127 274<185 325.5> 325 73<621 711 621 711>
LayerCount: 2
Fore
SplineSet
264 510 m 0xd0
 106 510 50 428 50 256 c 0
 50 74 96 -10 264 -10 c 0
 433 -10 478 74 478 256 c 0
 478 428 423 510 264 510 c 0xd0
264 55 m 0xa0
 146 55 127 114 127 256 c 0
 127 395 158 445 264 445 c 0
 371 445 401 395 401 256 c 0
 401 114 383 55 264 55 c 0xa0
125 621 m 1xd0
 125 711 l 1
 197 711 l 1
 197 621 l 1
 125 621 l 1xd0
325 621 m 1
 325 711 l 1
 398 711 l 1
 398 621 l 1
 325 621 l 1
EndSplineSet
EndChar

StartChar: otilde
Encoding: 245 245 177
Width: 528
Flags: MW
HStem: 612 61<320 345.5 320 355> 659 60<184 212> 663 21G<421 421>
VStem: 127 274<185 325.5>
LayerCount: 2
Fore
SplineSet
264 510 m 0x90
 106 510 50 428 50 256 c 0
 50 74 96 -10 264 -10 c 0
 433 -10 478 74 478 256 c 0
 478 428 423 510 264 510 c 0x90
264 55 m 0
 146 55 127 114 127 256 c 0
 127 395 158 445 264 445 c 0
 371 445 401 395 401 256 c 0
 401 114 383 55 264 55 c 0
404 711 m 1
 421 663 l 1x30
 421 663 375 612 335 612 c 0x90
 295 612 228 659 196 659 c 0
 172 659 123 619 123 619 c 1
 105 667 l 1
 105 667 155 719 196 719 c 0x50
 236 719 305 673 335 673 c 0
 356 673 404 711 404 711 c 1
EndSplineSet
EndChar

StartChar: uacute
Encoding: 250 250 178
Width: 531
Flags: MW
HStem: -10 750<166 371>
VStem: 142 242<240 500>
LayerCount: 2
Fore
SplineSet
459 500 m 1
 384 500 l 1
 384 94 l 1
 384 94 321 57 247 57 c 0
 154 57 142 102 142 240 c 2
 142 500 l 1
 67 500 l 1
 67 239 l 2
 67 55 96 -10 236 -10 c 0
 309 -10 384 35 384 35 c 1
 384 0 l 1
 459 0 l 1
 459 500 l 1
155 642 m 1
 371 740 l 1
 397 676 l 1
 176 591 l 1
 155 642 l 1
EndSplineSet
EndChar

StartChar: ugrave
Encoding: 249 249 179
Width: 531
Flags: MW
HStem: -10 67<200.5 272.5> 0 21G<384 459 384 384> 480 20G<67 142 142 142 384 459 459 459>
VStem: 67 75<239 240 240 500> 384 75<0 35 35 35 94 500 0 500>
LayerCount: 2
Fore
SplineSet
384 500 m 1xb8
 459 500 l 1
 459 0 l 1
 384 0 l 1x78
 384 35 l 1
 384 35 309 -10 236 -10 c 0
 96 -10 67 55 67 239 c 2
 67 500 l 1
 142 500 l 1
 142 240 l 2
 142 102 154 57 247 57 c 0
 321 57 384 94 384 94 c 1
 384 500 l 1xb8
140 740 m 1
 356 642 l 1
 335 591 l 1
 114 676 l 1
 140 740 l 1
EndSplineSet
EndChar

StartChar: ucircumflex
Encoding: 251 251 180
Width: 531
Flags: MW
HStem: 592 140<105 279 105 279 228 328 228 403>
VStem: 142 242<240 500>
LayerCount: 2
Fore
SplineSet
459 500 m 1
 384 500 l 1
 384 94 l 1
 384 94 321 57 247 57 c 0
 154 57 142 102 142 240 c 2
 142 500 l 1
 67 500 l 1
 67 239 l 2
 67 55 96 -10 236 -10 c 0
 309 -10 384 35 384 35 c 1
 384 0 l 1
 459 0 l 1
 459 500 l 1
105 592 m 1
 228 732 l 1
 279 732 l 1
 403 592 l 1
 328 592 l 1
 255 679 l 1
 180 592 l 1
 105 592 l 1
EndSplineSet
EndChar

StartChar: udieresis
Encoding: 252 252 181
Width: 531
Flags: MW
HStem: 621 90<132 204 132 204 332 405>
VStem: 132 72<621 711 621 711> 142 242<240 500> 332 73<621 711 621 711>
LayerCount: 2
Fore
SplineSet
459 500 m 1xa0
 384 500 l 1
 384 94 l 1
 384 94 321 57 247 57 c 0
 154 57 142 102 142 240 c 2
 142 500 l 1
 67 500 l 1
 67 239 l 2
 67 55 96 -10 236 -10 c 0
 309 -10 384 35 384 35 c 1
 384 0 l 1
 459 0 l 1
 459 500 l 1xa0
132 621 m 1xd0
 132 711 l 1
 204 711 l 1
 204 621 l 1
 132 621 l 1xd0
332 621 m 1
 332 711 l 1
 405 711 l 1
 405 621 l 1
 332 621 l 1
EndSplineSet
EndChar

StartChar: minus
Encoding: 8722 8722 182
Width: 560
Flags: MW
HStem: 217 68<66 494 66 494>
VStem: 66 428<217 285 217 285>
LayerCount: 2
Fore
SplineSet
66 217 m 1
 66 285 l 1
 494 285 l 1
 494 217 l 1
 66 217 l 1
EndSplineSet
EndChar

StartChar: multiply
Encoding: 215 215 183
Width: 560
Flags: MW
HStem: 42 418<119 441 441 441>
VStem: 71 418<90 90 90 411>
LayerCount: 2
Fore
SplineSet
120 459 m 1
 280 297 l 1
 441 460 l 1
 489 412 l 1
 326 251 l 1
 489 90 l 1
 441 42 l 1
 280 204 l 1
 119 42 l 1
 71 90 l 1
 233 251 l 1
 71 411 l 1
 120 459 l 1
EndSplineSet
EndChar

StartChar: dotlessi
Encoding: 305 305 184
Width: 219
Flags: MW
HStem: 0 21G<72 72 72 147> 480 20G<72 147 147 147>
VStem: 72 75<0 500 0 500>
LayerCount: 2
Fore
SplineSet
72 0 m 1
 72 500 l 1
 147 500 l 1
 147 0 l 1
 72 0 l 1
EndSplineSet
EndChar

StartChar: iacute
Encoding: 237 237 185
Width: 219
Flags: MW
HStem: 0 740<72 254 147 254>
VStem: 38 242<642 676>
LayerCount: 2
Fore
SplineSet
38 642 m 1
 254 740 l 1
 280 676 l 1
 59 591 l 1
 38 642 l 1
72 500 m 1
 72 0 l 1
 147 0 l 1
 147 500 l 1
 72 500 l 1
EndSplineSet
EndChar

StartChar: igrave
Encoding: 236 236 186
Width: 219
Flags: MW
HStem: 0 21G<72 72 72 147> 480 20G<72 147 147 147>
VStem: 72 75<0 500 0 500>
LayerCount: 2
Fore
SplineSet
72 0 m 1
 72 500 l 1
 147 500 l 1
 147 0 l 1
 72 0 l 1
-34 740 m 1
 182 642 l 1
 161 591 l 1
 -60 676 l 1
 -34 740 l 1
EndSplineSet
EndChar

StartChar: icircumflex
Encoding: 238 238 187
Width: 219
Flags: MW
HStem: 592 140<-42 132 -42 132 81 181 81 256>
VStem: -42 298<592 592>
LayerCount: 2
Fore
SplineSet
72 500 m 1
 72 0 l 1
 147 0 l 1
 147 500 l 1
 72 500 l 1
-42 592 m 1
 81 732 l 1
 132 732 l 1
 256 592 l 1
 181 592 l 1
 108 679 l 1
 33 592 l 1
 -42 592 l 1
EndSplineSet
EndChar

StartChar: germandbls
Encoding: 223 223 188
Width: 574
Flags: MW
HStem: -10 67<313.5 382 313.5 411> 0 21G<72 147 72 72> 661 21G<224 312> 708 20G<199 336.5>
VStem: 72 75<0 536> 243 78<395.5 416 395.5 425> 384 78<559.5 609.5> 461 78<130.5 194>
LayerCount: 2
Fore
SplineSet
147 0 m 1x7e
 72 0 l 1
 72 545 l 2
 72 682 130 728 268 728 c 0
 405 728 462 686 462 584 c 0x7e
 462 512 437 480 380 455 c 0
 333 434 321 426 321 406 c 0
 321 385 336 373 409 337 c 0
 503 290 539 259 539 177 c 0
 539 41 484 -10 338 -10 c 0
 288 -10 207 5 207 5 c 1
 210 68 l 1
 210 68 295 57 332 57 c 0
 432 57 461 95 461 166 c 0xbd
 461 222 440 241 352 283 c 0
 269 322 243 348 243 400 c 0
 243 450 270 473 320 495 c 0
 372 517 384 539 384 580 c 0
 384 639 356 661 268 661 c 0
 180 661 147 636 147 536 c 2
 147 0 l 1x7e
EndSplineSet
EndChar

StartChar: ccedilla
Encoding: 231 231 189
Width: 436
Flags: MW
HStem: -217 52<245 264 236.5 295> -93 44<249 250 208 286> -10 67<249 257 249 249> -7 21G<208 208> 443 67<216.5 282 184.5 293>
VStem: 51 77<185 326 185 349.5> 208 41<-49 -10 -49 -7 -49 -7> 294 66<-141 -114.5>
LayerCount: 2
Fore
SplineSet
360 -127 m 0xef
 360 -190 323 -217 267 -217 c 0
 223 -217 181 -210 181 -210 c 1
 184 -162 l 1
 184 -162 223 -165 250 -165 c 0
 278 -165 294 -155 294 -127 c 0
 294 -102 278 -93 250 -93 c 2
 208 -93 l 1
 208 -7 l 1xdf
 88 7 51 85 51 259 c 0
 51 440 110 510 259 510 c 0
 305 510 395 495 395 495 c 1
 392 434 l 1
 392 434 312 443 274 443 c 0
 159 443 128 393 128 259 c 0
 128 111 151 57 275 57 c 0
 313 57 393 66 393 66 c 1
 396 4 l 1
 396 4 303 -10 257 -10 c 2
 249 -10 l 1
 249 -49 l 1
 323 -49 360 -63 360 -127 c 0xef
EndSplineSet
EndChar

StartChar: lslash
Encoding: 322 322 190
Width: 310
Flags: MW
HStem: 0 21G<114 114 114 189> 698 20G<114 189 189 189>
VStem: 114 75<0 279 279 279 409 718>
LayerCount: 2
Fore
SplineSet
114 0 m 1
 114 279 l 1
 47 232 l 1
 10 284 l 1
 114 357 l 1
 114 718 l 1
 189 718 l 1
 189 409 l 1
 263 461 l 1
 300 409 l 1
 189 331 l 1
 189 0 l 1
 114 0 l 1
EndSplineSet
EndChar

StartChar: eth
Encoding: 240 240 191
Width: 548
Flags: MW
HStem: -9 68<217 318.5 217 347> 363 67<212 289 184.5 292> 695 21G<419 419>
VStem: 42 79<165.5 256.5 165.5 279.5> 418 78<327 327>
LayerCount: 2
Fore
SplineSet
158 520 m 1
 125 567 l 1
 220 631 l 1
 185 646 143 660 96 672 c 1
 111 728 l 1
 177 715 235 697 284 674 c 1
 385 742 l 1
 419 695 l 1
 342 643 l 1
 443 579 496 485 496 352 c 0
 496 93 429 -9 265 -9 c 0
 124 -9 42 68 42 215 c 0
 42 344 117 430 252 430 c 0
 326 430 417 394 417 394 c 1
 413 474 375 545 280 601 c 1
 158 520 l 1
256 363 m 0
 168 363 121 298 121 215 c 0
 121 116 169 59 265 59 c 0
 372 59 417 124 418 327 c 1
 418 327 328 363 256 363 c 0
EndSplineSet
EndChar

StartChar: Thorn
Encoding: 222 222 192
Width: 599
Flags: MW
HStem: 0 195<85 337 85 337> 121 74<162 337 337 338 162 337> 510 74<162 337 162 338>
VStem: 85 77<0 121 195 510 584 696> 481 79<310 412.5>
LayerCount: 2
Fore
SplineSet
337 195 m 2x78
 438 195 481 259 481 361 c 0
 481 464 438 510 337 510 c 2
 162 510 l 1
 162 195 l 1
 337 195 l 2x78
338 121 m 2
 162 121 l 1x78
 162 0 l 1
 85 0 l 1xb8
 85 696 l 1
 162 696 l 1
 162 584 l 1
 338 584 l 2
 489 584 560 512 560 361 c 0
 560 210 489 121 338 121 c 2
EndSplineSet
Position2: "'cpsp' Capital Spacing in Lateinisch lookup 0 subtable" dx=5 dy=0 dh=10 dv=0
EndChar

StartChar: oslash
Encoding: 248 248 193
Width: 528
Flags: MW
HStem: -10 65<254 323.5 254 348.5> -2 21G<188 188> 445 65<211 273.5> 482 20G<338 338>
VStem: 50 77<211.5 325.5 211.5 342> 401 77<185 297>
LayerCount: 2
Fore
SplineSet
264 510 m 0xac
 292 510 316 507 338 502 c 1
 381 606 l 1
 431 587 l 1
 388 483 l 1
 453 447 478 372 478 256 c 0
 478 74 433 -10 264 -10 c 0x9c
 235 -10 210 -7 188 -2 c 1x6c
 145 -112 l 1
 95 -94 l 1
 139 15 l 1
 71 52 50 131 50 256 c 0
 50 428 106 510 264 510 c 0xac
264 445 m 0
 158 445 127 395 127 256 c 0
 127 167 134 110 169 80 c 1
 314 439 l 1
 300 443 283 445 264 445 c 0
264 55 m 0
 383 55 401 114 401 256 c 0
 401 338 390 389 359 417 c 1
 213 60 l 1
 227 56 244 55 264 55 c 0
EndSplineSet
EndChar

StartChar: zero.pnum
Encoding: 65540 -1 194
Width: 532
Flags: MW
HStem: -9 65<223.5 310.5 223.5 329> 444 65<223.5 310.5>
VStem: 53 71<168.5 326 168.5 344> 407 71<167.5 325>
LayerCount: 2
Fore
SplineSet
265 509 m 0
 397 509 478 451 478 242 c 0
 478 45 392 -9 266 -9 c 0
 144 -9 53 45 53 243 c 0
 53 445 139 509 265 509 c 0
266 444 m 0
 181 444 124 408 124 244 c 0
 124 93 181 56 266 56 c 0
 355 56 407 93 407 242 c 0
 407 408 355 444 266 444 c 0
EndSplineSet
Substitution2: "'frac' Diagonal Fractions in Lateinisch lookup 1 subtable" zerosuperior
EndChar

StartChar: one.pnum
Encoding: 65541 -1 195
Width: 354
Flags: MW
HStem: 0 21G<207 278 207 207> 480 20G<215 278 278 278>
VStem: 207 71<0 419 419 419>
LayerCount: 2
Fore
SplineSet
26 386 m 1
 215 500 l 1
 278 500 l 1
 278 0 l 1
 207 0 l 1
 207 419 l 1
 55 329 l 1
 26 386 l 1
EndSplineSet
Substitution2: "'frac' Diagonal Fractions in Lateinisch lookup 1 subtable" onesuperior
EndChar

StartChar: two.pnum
Encoding: 65542 -1 196
Width: 473
Flags: MW
HStem: 0 65<149 423 149 423> 442 67<196 257.5>
VStem: 336 75<330.5 389.5>
LayerCount: 2
Fore
SplineSet
423 0 m 1
 52 0 l 1
 52 63 l 1
 224 204 l 2
 302 266 336 303 336 358 c 0
 336 421 301 442 214 442 c 0
 167 442 57 425 57 424 c 2
 52 488 l 1
 52 488 159 509 233 509 c 0
 343 509 411 469 411 366 c 0
 411 283 369 240 299 186 c 2
 149 65 l 1
 423 65 l 1
 423 0 l 1
EndSplineSet
Substitution2: "'frac' Diagonal Fractions in Lateinisch lookup 1 subtable" twosuperior
EndChar

StartChar: three.pnum
Encoding: 65543 -1 197
Width: 483
Flags: MW
HStem: -9 21G<202.5 300> -9 69<203.5 244 203.5 300> 229 63<120 245 120 246 120 245> 443 67<199 272>
VStem: 345 71<342 398.5> 360 71<116 178.5>
LayerCount: 2
Fore
SplineSet
57 492 m 1x74
 57 492 161 510 237 510 c 0
 349 510 416 478 416 385 c 0x78
 416 299 345 274 332 267 c 1
 379 252 431 224 431 141 c 0
 431 38 356 -9 244 -9 c 0x74
 161 -9 50 11 50 11 c 1xb4
 59 75 l 1
 59 75 163 60 244 60 c 0
 322 61 360 87 360 145 c 0x74
 360 212 303 226 246 229 c 2
 120 229 l 1
 120 292 l 1
 245 292 l 2
 293 294 345 313 345 371 c 0x78
 345 426 306 443 238 443 c 0
 157 443 64 428 64 428 c 1
 57 492 l 1x74
EndSplineSet
Substitution2: "'frac' Diagonal Fractions in Lateinisch lookup 1 subtable" threesuperior
EndChar

StartChar: four.pnum
Encoding: 65544 -1 198
Width: 473
Flags: MW
HStem: 93 68<114 314 114 314 385 438> 480 20G<192 266 266 266>
VStem: 314 71<-20 93 -20 93 161 294>
LayerCount: 2
Fore
SplineSet
314 -20 m 1
 314 93 l 1
 36 93 l 1
 36 148 l 1
 192 500 l 1
 266 500 l 1
 114 161 l 1
 314 161 l 1
 314 294 l 1
 385 294 l 1
 385 161 l 1
 438 161 l 1
 438 93 l 1
 385 93 l 1
 385 -20 l 1
 314 -20 l 1
EndSplineSet
Substitution2: "'frac' Diagonal Fractions in Lateinisch lookup 1 subtable" foursuperior
EndChar

StartChar: five.pnum
Encoding: 65545 -1 199
Width: 490
Flags: MW
HStem: -9 68<217.5 287.5 217.5 314> 251 66<229 287.5> 430 72<144 423 144 144>
VStem: 70 67 366 77<124.5 193.5>
LayerCount: 2
Fore
SplineSet
79 502 m 1
 423 502 l 1
 423 430 l 1
 144 430 l 1
 130 286 l 1
 130 286 198 317 260 317 c 0
 373 317 443 271 443 164 c 0
 443 52 373 -9 255 -9 c 0
 174 -9 54 15 54 15 c 1
 63 79 l 1
 63 79 182 59 253 59 c 0
 322 59 366 89 366 160 c 0
 366 227 322 251 253 251 c 0
 195 251 115 216 115 216 c 1
 61 228 l 1
 79 502 l 1
EndSplineSet
Substitution2: "'frac' Diagonal Fractions in Lateinisch lookup 1 subtable" fivesuperior
EndChar

StartChar: six.pnum
Encoding: 65546 -1 200
Width: 493
Flags: MW
HStem: -10 63<209 290 209 309.5> 251 66<246 299.5> 446 63<221.5 295>
VStem: 53 70<220 220 280 343.5> 377 71<120.5 190.5>
LayerCount: 2
Fore
SplineSet
420 494 m 1
 415 434 l 1
 415 434 327 446 263 446 c 0
 180 446 123 407 123 280 c 1
 162 298 223 317 269 317 c 0
 384 317 448 267 448 157 c 0
 448 49 372 -10 247 -10 c 0
 122 -10 53 69 53 254 c 0
 53 444 141 509 263 509 c 0
 339 509 420 494 420 494 c 1
259 251 m 0
 201 251 123 220 123 220 c 1
 125 109 167 53 251 53 c 0
 329 53 377 84 377 157 c 0
 377 224 340 251 259 251 c 0
EndSplineSet
Substitution2: "'frac' Diagonal Fractions in Lateinisch lookup 1 subtable" sixsuperior
EndChar

StartChar: seven.pnum
Encoding: 65547 -1 201
Width: 411
Flags: MW
HStem: -9 21G<165 165> 437 64<35 378 35 310>
VStem: 310 68<417 437 437 437>
LayerCount: 2
Fore
SplineSet
35 437 m 1
 35 501 l 1
 378 501 l 1
 378 416 l 1
 165 -9 l 1
 103 9 l 1
 310 417 l 1
 310 437 l 1
 35 437 l 1
EndSplineSet
Substitution2: "'frac' Diagonal Fractions in Lateinisch lookup 1 subtable" sevensuperior
EndChar

StartChar: eight.pnum
Encoding: 65548 -1 202
Width: 508
Flags: MW
HStem: -10 62<215 292.5 215 312> 230 58<209 292 209 292> 447 62<213.5 292.5>
VStem: 53 71<102.5 164 102.5 170.5> 63 71<348 399.5 348 425> 375 71<347 399> 384 71<104 170>
LayerCount: 2
Fore
SplineSet
253 509 m 0xec
 370 509 446 471 446 377 c 0xf4
 446 313 411 282 357 262 c 1
 411 241 455 215 455 134 c 0
 455 25 371 -10 253 -10 c 0
 137 -10 53 27 53 130 c 0xf2
 53 211 95 238 147 262 c 1
 98 282 63 313 63 378 c 0
 63 472 135 509 253 509 c 0xec
253 52 m 0xf2
 332 52 384 69 384 139 c 0
 384 201 346 216 292 230 c 1
 209 230 l 1
 155 216 124 193 124 135 c 0
 124 70 177 52 253 52 c 0xf2
253 447 m 0xec
 174 447 134 426 134 373 c 0
 134 323 159 303 209 288 c 1
 292 288 l 1
 345 301 375 322 375 372 c 0
 375 426 332 447 253 447 c 0xec
EndSplineSet
Substitution2: "'frac' Diagonal Fractions in Lateinisch lookup 1 subtable" eightsuperior
EndChar

StartChar: nine.pnum
Encoding: 65549 -1 203
Width: 486
Flags: MW
HStem: -9 21G<184 285> -9 64<188 265 188 285> 188 63<191 257.5> 447 63<194.5 276>
VStem: 46 71<314.5 379.5 314.5 396> 360 73<161 222>
LayerCount: 2
Fore
SplineSet
66 9 m 1xbc
 72 69 l 1
 72 69 153 55 223 55 c 0
 307 55 360 100 360 222 c 1
 360 222 291 188 224 188 c 0
 105 188 46 245 46 343 c 0
 46 449 120 510 235 510 c 0
 363 510 433 428 433 251 c 0
 433 58 347 -9 223 -9 c 0x7c
 145 -9 66 9 66 9 c 1xbc
229 251 m 0
 293 251 359 284 359 284 c 1
 356 392 319 447 233 447 c 0
 156 447 117 415 117 344 c 0
 117 285 153 251 229 251 c 0
EndSplineSet
Substitution2: "'frac' Diagonal Fractions in Lateinisch lookup 1 subtable" ninesuperior
EndChar

StartChar: brokenbar
Encoding: 166 166 204
Width: 234
Flags: MW
HStem: -222 21G<80 154 80 80> 698 20G<80 154 154 154>
VStem: 80 74<-222 156 -222 156 344 718>
LayerCount: 2
Fore
SplineSet
80 718 m 1
 154 718 l 1
 154 344 l 1
 80 344 l 1
 80 718 l 1
80 156 m 1
 154 156 l 1
 154 -222 l 1
 80 -222 l 1
 80 156 l 1
EndSplineSet
EndChar

StartChar: plusminus
Encoding: 177 177 205
Width: 560
Flags: MW
HStem: 38 68<55 505 55 505> 293 68<55 244 55 244 314 505>
VStem: 244 70<166 293 166 293 361 487>
LayerCount: 2
Fore
SplineSet
55 293 m 1
 55 361 l 1
 244 361 l 1
 244 487 l 1
 314 487 l 1
 314 361 l 1
 505 361 l 1
 505 293 l 1
 314 293 l 1
 314 166 l 1
 244 166 l 1
 244 293 l 1
 55 293 l 1
55 106 m 1
 505 106 l 1
 505 38 l 1
 55 38 l 1
 55 106 l 1
EndSplineSet
EndChar

StartChar: pi
Encoding: 960 960 206
Width: 560
Flags: MW
HStem: -4 65<486 521 486 521> 0 21G<99 175 99 99> 435 65<130 399 203 359 203 203>
VStem: 359 75<154 435 435 435>
LayerCount: 2
Fore
SplineSet
359 154 m 2xb0
 359 435 l 1
 203 435 l 1
 175 0 l 1
 99 0 l 1x70
 130 435 l 1
 65 434 22 422 22 422 c 1
 22 485 l 1
 22 485 81 500 164 500 c 2
 399 500 l 2
 472 500 530 514 530 514 c 1
 530 451 l 1
 530 451 502 439 434 437 c 1
 434 154 l 2
 434 79 451 61 521 61 c 1
 521 -4 l 1
 388 -4 359 26 359 154 c 2xb0
EndSplineSet
EndChar

StartChar: bullet
Encoding: 8226 8226 207
Width: 473
Flags: MW
HStem: 106 286<111 361 111 361>
VStem: 111 250<106 392 106 392>
LayerCount: 2
Fore
SplineSet
111 106 m 1
 111 392 l 1
 361 392 l 1
 361 106 l 1
 111 106 l 1
EndSplineSet
EndChar

StartChar: ordfeminine
Encoding: 170 170 208
Width: 386
Flags: MW
HStem: 357 54<144.5 166> 492.5 45.5 603 56<170 205.5>
VStem: 54 66<436.5 463.5 436.5 476.5> 238 64<428 495 495 495 541 560 423 563 423 578>
LayerCount: 2
Fore
SplineSet
302 560 m 2
 302 423 l 1
 309 414 321 409 332 406 c 1
 330 357 l 1
 275 357 262 366 247 383 c 1
 247 383 192 357 140 357 c 0
 86 357 54 393 54 449 c 0
 54 504 85 531 150 535 c 2
 238 541 l 1
 238 563 l 2
 238 593 222 603 189 603 c 0
 151 603 74 596 74 596 c 1
 72 644 l 1
 72 644 141 659 192 659 c 0
 264 659 302 636 302 560 c 2
238 495 m 1
 161 490 l 2
 132 488 120 477 120 450 c 0
 120 423 133 411 156 411 c 0
 191 411 238 428 238 428 c 1
 238 495 l 1
EndSplineSet
EndChar

StartChar: ordmasculine
Encoding: 186 186 209
Width: 380
Flags: MW
HStem: 357 61<165.5 216 165.5 236> 598 61<165.5 216>
VStem: 53 69<478 542 478 562> 257 69<478 542>
LayerCount: 2
Fore
SplineSet
191 659 m 0
 281 659 326 614 326 510 c 0
 326 406 281 357 191 357 c 0
 100 357 53 406 53 510 c 0
 53 614 100 659 191 659 c 0
191 418 m 0
 241 418 257 446 257 510 c 0
 257 574 241 598 191 598 c 0
 140 598 122 574 122 510 c 0
 122 446 140 418 191 418 c 0
EndSplineSet
EndChar

StartChar: quotedblleft
Encoding: 8220 8220 210
Width: 373
Flags: MW
HStem: 489 219<115 130 51 174 268 283 115 204>
VStem: 51 276<489 708>
LayerCount: 2
Fore
SplineSet
327 708 m 1
 283 489 l 1
 204 489 l 1
 268 708 l 1
 327 708 l 1
174 708 m 1
 130 489 l 1
 51 489 l 1
 115 708 l 1
 174 708 l 1
EndSplineSet
EndChar

StartChar: asciitilde
Encoding: 126 126 211
Width: 560
Flags: MW
HStem: 195 69<360 401.5 360 409> 257 68<162 203>
VStem: 67 428<249 272>
LayerCount: 2
Fore
SplineSet
485 310 m 1xa0
 495 249 l 1
 495 249 436 195 382 195 c 0xa0
 326 195 224 257 182 257 c 0
 142 257 78 210 78 210 c 1
 67 272 l 1
 67 272 129 325 183 325 c 0x60
 239 325 337 264 383 264 c 0
 420 264 485 310 485 310 c 1xa0
EndSplineSet
EndChar

StartChar: emdash
Encoding: 8212 8212 212
Width: 1131
Flags: MW
HStem: 235 66<66 1066 66 1066>
VStem: 66 1000<235 301 235 301>
LayerCount: 2
Fore
SplineSet
66 301 m 1
 1066 301 l 1
 1066 235 l 1
 66 235 l 1
 66 301 l 1
EndSplineSet
Substitution2: "'case' Case-Sensitive Forms in Lateinisch lookup 4 subtable" emdash.cap
EndChar

StartChar: six
Encoding: 54 54 213
Width: 560
Flags: MW
HStem: -10 68<229 335 229 359.5> 344 69<259 336> 602 68<250.5 350>
VStem: 50 79<306 306 306 452.5> 437 80<159.5 254>
LayerCount: 2
Fore
SplineSet
489 653 m 1
 482 590 l 1
 482 590 392 602 308 602 c 0
 193 602 130 520 130 374 c 0
 130 373 223 413 295 413 c 0
 441 413 517 347 517 208 c 0
 517 68 433 -10 286 -10 c 0
 122 -10 50 119 50 333 c 0
 50 572 151 670 308 670 c 0
 392 670 489 653 489 653 c 1
290 344 m 0
 213 344 129 306 129 306 c 1
 130 165 172 58 286 58 c 0
 384 58 437 111 437 208 c 0
 437 300 382 344 290 344 c 0
EndSplineSet
Substitution2: "'frac' Diagonal Fractions in Lateinisch lookup 1 subtable" sixsuperior
EndChar

StartChar: nine
Encoding: 57 57 214
Width: 560
Flags: MW
HStem: -10 21G<205 328.5> -10 68<205 307.5 205 328.5> 250 68<217 293> 602 68<223.5 328>
VStem: 41 80<404.5 497.5 404.5 518.5> 429 80<288 288>
LayerCount: 2
Fore
SplineSet
66 8 m 1xbc
 73 70 l 1
 73 70 163 58 247 58 c 0
 368 58 428 132 429 288 c 1
 429 288 329 250 257 250 c 0
 119 250 41 312 41 451 c 0
 41 586 131 670 270 670 c 0
 436 670 509 538 509 328 c 0
 509 72 410 -10 247 -10 c 0x7c
 163 -10 66 8 66 8 c 1xbc
263 318 m 0
 332 318 430 354 430 354 c 1
 428 498 386 602 270 602 c 0
 177 602 121 544 121 451 c 0
 121 358 171 318 263 318 c 0
EndSplineSet
Substitution2: "'frac' Diagonal Fractions in Lateinisch lookup 1 subtable" ninesuperior
EndChar

StartChar: yen
Encoding: 165 165 215
Width: 560
Flags: MW
HStem: 0 21G<243 320 243 243> 163 65<58 243 58 243 320 503> 315 65<57 197 57 197 57 235 366 502>
VStem: 243 77<0 163 0 163 228 296>
LayerCount: 2
Fore
SplineSet
57 315 m 1
 57 380 l 1
 197 380 l 1
 23 660 l 1
 109 660 l 1
 281 390 l 1
 451 660 l 1
 537 660 l 1
 366 380 l 1
 502 380 l 1
 502 315 l 1
 328 315 l 1
 320 296 l 1
 320 228 l 1
 503 228 l 1
 503 163 l 1
 320 163 l 1
 320 0 l 1
 243 0 l 1
 243 163 l 1
 58 163 l 1
 58 228 l 1
 243 228 l 1
 243 296 l 1
 235 315 l 1
 57 315 l 1
EndSplineSet
EndChar

StartChar: less
Encoding: 60 60 216
Width: 560
Flags: MW
HStem: 13 474<477 477>
VStem: 61 416<13 284 13 284>
LayerCount: 2
Fore
SplineSet
477 409 m 1
 138 252 l 1
 477 92 l 1
 477 13 l 1
 61 218 l 1
 61 284 l 1
 477 487 l 1
 477 409 l 1
EndSplineSet
EndChar

StartChar: greater
Encoding: 62 62 217
Width: 560
Flags: MW
HStem: 13 474<82 82>
VStem: 82 416<13 284 92 284 218 487 218 487>
LayerCount: 2
Fore
SplineSet
421 252 m 1
 82 409 l 1
 82 487 l 1
 498 284 l 1
 498 218 l 1
 82 13 l 1
 82 92 l 1
 421 252 l 1
EndSplineSet
EndChar

StartChar: bracketleft
Encoding: 91 91 218
Width: 329
Flags: MW
HStem: -123 67<155 289 155 289> 682 67<155 289 155 155>
VStem: 79 76<-56 682 -56 749 -56 749>
LayerCount: 2
Fore
SplineSet
289 749 m 1
 289 682 l 1
 155 682 l 1
 155 -56 l 1
 289 -56 l 1
 289 -123 l 1
 79 -123 l 1
 79 749 l 1
 289 749 l 1
EndSplineSet
Substitution2: "'case' Case-Sensitive Forms in Lateinisch lookup 4 subtable" bracketleft.cap
EndChar

StartChar: backslash
Encoding: 92 92 219
Width: 436
Flags: MW
HStem: -14 721<97 338>
VStem: 30 375
LayerCount: 2
Fore
SplineSet
405 14 m 1
 338 -14 l 1
 30 678 l 1
 97 707 l 1
 405 14 l 1
EndSplineSet
EndChar

StartChar: bracketright
Encoding: 93 93 220
Width: 329
Flags: MW
HStem: -123 67<40 174 40 250 40 174> 682 67<40 250 40 174>
VStem: 174 76<-56 682 682 682>
LayerCount: 2
Fore
SplineSet
40 682 m 1
 40 749 l 1
 250 749 l 1
 250 -123 l 1
 40 -123 l 1
 40 -56 l 1
 174 -56 l 1
 174 682 l 1
 40 682 l 1
EndSplineSet
Substitution2: "'case' Case-Sensitive Forms in Lateinisch lookup 4 subtable" bracketright.cap
EndChar

StartChar: bar
Encoding: 124 124 221
Width: 230
Flags: MW
HStem: -222 21G<78 78 78 152> 698 20G<78 152 152 152>
VStem: 78 74<-222 718 -222 718>
LayerCount: 2
Fore
SplineSet
78 -222 m 1
 78 718 l 1
 152 718 l 1
 152 -222 l 1
 78 -222 l 1
EndSplineSet
EndChar

StartChar: notequal
Encoding: 8800 8800 222
Width: 560
Flags: MW
HStem: -4 21G<137 137> 124 69<64 193 64 223 294 496 64 264> 309 69<64 304 64 274 64 344 374 496> 489 20G<432 432>
VStem: 64 432<124 193 124 193 309 378 124 378>
LayerCount: 2
Fore
SplineSet
64 309 m 1
 64 378 l 1
 304 378 l 1
 372 533 l 1
 432 509 l 1
 374 378 l 1
 496 378 l 1
 496 309 l 1
 344 309 l 1
 294 193 l 1
 496 193 l 1
 496 124 l 1
 264 124 l 1
 198 -28 l 1
 137 -4 l 1
 193 124 l 1
 64 124 l 1
 64 193 l 1
 223 193 l 1
 274 309 l 1
 64 309 l 1
EndSplineSet
EndChar

StartChar: mu
Encoding: 181 181 223
Width: 560
Flags: MW
HStem: -222 21G<84 159 84 84> -10 67<233 289.5> 0 21G<401 476 401 401> 480 20G<84 159 159 159 401 476 476 476>
VStem: 84 75<-222 7 171 240 240 500> 401 75<0 35 35 35 94 500 0 500>
LayerCount: 2
Fore
SplineSet
401 500 m 1xdc
 476 500 l 1
 476 0 l 1
 401 0 l 1xbc
 401 35 l 1
 401 35 326 -10 253 -10 c 0
 213 -10 182 -4 159 7 c 1
 159 -222 l 1
 84 -222 l 1
 84 500 l 1
 159 500 l 1
 159 240 l 2
 159 102 171 57 264 57 c 0
 338 57 401 94 401 94 c 1
 401 500 l 1xdc
EndSplineSet
EndChar

StartChar: ae
Encoding: 230 230 224
Width: 804
Flags: MW
HStem: -10 65<165.5 224 165.5 224.5> -10 68<513 587.5> 218 61<425 684 425 755 425 684> 239 61 438 72<228 290.5> 443 67<525 602>
VStem: 40 77<115.5 173.5 115.5 199> 348 77<214.5 218 165.5 245> 684 75<279 339>
LayerCount: 2
Fore
SplineSet
556 58 m 0x6780
 631 58 739 67 739 67 c 1
 741 6 l 1
 741 6 628 -10 547 -10 c 0
 479 -10 431 9 400 44 c 1
 368 30 l 2
 355 24 273 -10 176 -10 c 0
 87 -10 40 44 40 143 c 0
 40 255 98 281 221 294 c 2
 350 306 l 1
 350 347 l 2
 350 411 318 438 263 438 c 0
 189 438 73 428 73 428 c 1x5b80
 70 495 l 1
 70 495 189 510 267 510 c 0
 335 510 380 486 402 437 c 1
 437 490 492 510 558 510 c 0
 691 510 759 440 759 276 c 1
 755 218 l 1
 425 218 l 1
 425 113 458 58 556 58 c 0x6780
188 55 m 0x9780
 260 55 357 87 367 92 c 1
 352 132 348 184 348 245 c 1
 202 233 l 2
 144 228 117 202 117 145 c 0
 117 86 143 55 188 55 c 0x9780
425 279 m 1x6780
 684 279 l 1
 684 399 646 443 558 443 c 0
 472 443 425 396 425 279 c 1x6780
EndSplineSet
EndChar

StartChar: florin
Encoding: 402 402 225
Width: 560
Flags: MW
HStem: -235 67<116 156.5 115.5 187.5> -227 21G<39 39> 366 64<143 206 143 206 281 426> 621 68<330.5 361 282.5 375>
VStem: 206 75<-54 366 430 484 484 506>
LayerCount: 2
Fore
SplineSet
281 -55 m 2xb8
 281 -192 238 -235 137 -235 c 0xb8
 95 -235 39 -227 39 -227 c 1x78
 40 -163 l 1
 40 -163 100 -168 131 -168 c 0
 182 -168 206 -140 206 -54 c 2
 206 366 l 1
 143 366 l 1
 143 430 l 1
 206 430 l 1
 206 484 l 2
 206 596 224 689 341 689 c 0
 381 689 441 680 441 680 c 1
 440 617 l 1
 440 617 395 621 355 621 c 0
 306 621 281 586 281 506 c 2
 281 430 l 1
 426 430 l 1
 426 366 l 1
 281 366 l 1
 281 -55 l 2xb8
EndSplineSet
EndChar

StartChar: oe
Encoding: 339 339 226
Width: 857
Flags: MW
HStem: -10 67<206.5 311> 218 61<478 737 477 808 478 478> 442 68<212 309 186 313.5>
VStem: 50 77<187 325.5 187 343> 401 76<279 321.5> 737 75<279 339>
LayerCount: 2
Fore
SplineSet
609 58 m 0
 684 58 792 67 792 67 c 1
 794 6 l 1
 794 6 681 -10 600 -10 c 0
 517 -10 467 19 438 81 c 1
 409 16 357 -10 265 -10 c 0
 96 -10 50 74 50 257 c 0
 50 429 107 510 265 510 c 0
 353 510 410 481 441 405 c 1
 475 484 536 510 611 510 c 0
 744 510 812 440 812 276 c 1
 808 218 l 1
 478 218 l 1
 478 113 511 58 609 58 c 0
265 57 m 0
 383 57 401 123 401 255 c 0
 401 388 362 442 265 442 c 0
 159 442 127 394 127 257 c 0
 127 117 148 57 265 57 c 0
477 279 m 1
 737 279 l 1
 737 399 699 443 611 443 c 0
 525 443 477 395 477 279 c 1
EndSplineSet
EndChar

StartChar: daggerdbl
Encoding: 8225 8225 227
Width: 521
Flags: MW
HStem: 116 65<55 223 55 223 298 466> 434 66<55 223 55 223 298 465>
VStem: 223 75<-76 116 -76 116 181 434 500 692>
LayerCount: 2
Fore
SplineSet
223 -76 m 1
 223 116 l 1
 55 116 l 1
 55 181 l 1
 223 181 l 1
 223 434 l 1
 55 434 l 1
 55 500 l 1
 223 500 l 1
 223 692 l 1
 298 692 l 1
 298 500 l 1
 465 500 l 1
 465 434 l 1
 298 434 l 1
 298 181 l 1
 466 181 l 1
 466 116 l 1
 298 116 l 1
 298 -76 l 1
 223 -76 l 1
EndSplineSet
EndChar

StartChar: quotedbl
Encoding: 34 34 228
Width: 373
Flags: MW
HStem: 470 222<70 137 70 70 236 303 236 236>
VStem: 68 71 234 71
LayerCount: 2
Fore
SplineSet
303 470 m 1
 236 470 l 1
 232 692 l 1
 307 692 l 1
 303 470 l 1
137 470 m 1
 70 470 l 1
 66 692 l 1
 141 692 l 1
 137 470 l 1
EndSplineSet
EndChar

StartChar: quotesingle
Encoding: 39 39 229
Width: 208
Flags: MW
HStem: 470 222<70 70 70 137>
VStem: 68.5 71
LayerCount: 2
Fore
SplineSet
70 470 m 1
 67 692 l 1
 142 692 l 1
 137 470 l 1
 70 470 l 1
EndSplineSet
EndChar

StartChar: parenleft
Encoding: 40 40 230
Width: 264
Flags: MW
HStem: -125 875<155 227 155 227>
VStem: 51 81<205.5 397.5 205.5 409>
LayerCount: 2
Fore
SplineSet
155 750 m 1
 227 750 l 1
 227 750 132 494 132 301 c 0
 132 110 227 -125 227 -125 c 1
 155 -125 l 1
 155 -125 51 85 51 301 c 0
 51 517 155 750 155 750 c 1
EndSplineSet
Substitution2: "'case' Case-Sensitive Forms in Lateinisch lookup 4 subtable" parenleft.cap
EndChar

StartChar: parenright
Encoding: 41 41 231
Width: 264
Flags: MW
HStem: -125 875<37 109 37 109>
VStem: 132 81<205.5 397.5>
LayerCount: 2
Fore
SplineSet
37 750 m 1
 109 750 l 1
 109 750 213 517 213 301 c 0
 213 85 109 -125 109 -125 c 1
 37 -125 l 1
 37 -125 132 110 132 301 c 0
 132 494 37 750 37 750 c 1
EndSplineSet
Substitution2: "'case' Case-Sensitive Forms in Lateinisch lookup 4 subtable" parenright.cap
EndChar

StartChar: comma
Encoding: 44 44 232
Width: 223
Flags: MW
HStem: -123 230<34 163 80 96>
VStem: 34 129
LayerCount: 2
Fore
SplineSet
34 -123 m 1
 80 107 l 1
 163 107 l 1
 96 -123 l 1
 34 -123 l 1
EndSplineSet
EndChar

StartChar: hyphen
Encoding: 45 45 233
Width: 438
Flags: MW
HStem: 240 70<68 371 68 371>
VStem: 68 303<240 310 240 310>
LayerCount: 2
Fore
SplineSet
68 240 m 1
 68 310 l 1
 371 310 l 1
 371 240 l 1
 68 240 l 1
EndSplineSet
EndChar

StartChar: period
Encoding: 46 46 234
Width: 216
Flags: MW
HStem: 0 114<67 149 67 149>
VStem: 67 82<0 114 0 114>
LayerCount: 2
Fore
SplineSet
67 0 m 1
 67 114 l 1
 149 114 l 1
 149 0 l 1
 67 0 l 1
EndSplineSet
EndChar

StartChar: colon
Encoding: 58 58 235
Width: 217
Flags: MW
HStem: 0 114<67 149 67 149> 322 114<67 149 67 149>
VStem: 67 82<0 114 0 114 322 436>
LayerCount: 2
Fore
SplineSet
67 322 m 1
 67 436 l 1
 149 436 l 1
 149 322 l 1
 67 322 l 1
67 0 m 1
 67 114 l 1
 149 114 l 1
 149 0 l 1
 67 0 l 1
EndSplineSet
EndChar

StartChar: semicolon
Encoding: 59 59 236
Width: 248
Flags: MW
HStem: 322 114<88 169 88 169>
VStem: 88 81<322 436 322 436>
LayerCount: 2
Fore
SplineSet
93 107 m 1
 48 -123 l 1
 110 -123 l 1
 177 107 l 1
 93 107 l 1
88 322 m 1
 88 436 l 1
 169 436 l 1
 169 322 l 1
 88 322 l 1
EndSplineSet
EndChar

StartChar: equal
Encoding: 61 61 237
Width: 560
Flags: MW
HStem: 124 69<64 496 64 496> 309 69<64 496 64 496>
VStem: 64 432<124 193 124 193 309 378 124 378>
LayerCount: 2
Fore
SplineSet
64 309 m 1
 64 378 l 1
 496 378 l 1
 496 309 l 1
 64 309 l 1
64 124 m 1
 64 193 l 1
 496 193 l 1
 496 124 l 1
 64 124 l 1
EndSplineSet
EndChar

StartChar: question
Encoding: 63 63 238
Width: 447
Flags: MW
HStem: 1 112<150 232 150 232> 634 68<171 242>
VStem: 148 76<201 286.5> 150 82<1 113 1 113> 330 76<508 571.5>
LayerCount: 2
Fore
SplineSet
406 542 m 0xd8
 406 456 391 426 313 361 c 0
 254 312 224 281 224 236 c 2
 224 201 l 1
 161 201 l 1
 161 201 148 228 148 262 c 0xe8
 148 311 188 350 241 395 c 0
 313 457 330 480 330 536 c 0
 330 607 287 634 197 634 c 0
 141 634 42 611 42 611 c 1
 37 672 l 1
 37 672 138 702 204 702 c 0
 338 702 406 658 406 542 c 0xd8
150 1 m 1
 150 113 l 1
 232 113 l 1
 232 1 l 1
 150 1 l 1
EndSplineSet
EndChar

StartChar: underscore
Encoding: 95 95 239
Width: 632
Flags: MW
HStem: -158 66<102 530 102 530>
VStem: 102 428<-158 -92 -158 -92>
LayerCount: 2
Fore
SplineSet
102 -92 m 1
 530 -92 l 1
 530 -158 l 1
 102 -158 l 1
 102 -92 l 1
EndSplineSet
EndChar

StartChar: braceleft
Encoding: 123 123 240
Width: 352
Flags: MW
HStem: -128 65<310 312> 690 65<311 312>
VStem: 124 73<19.5 66.5 560.5 610>
LayerCount: 2
Fore
SplineSet
204 170 m 0
 203 135 197 90 197 54 c 0
 197 -15 219 -58 312 -63 c 1
 310 -128 l 1
 174 -123 124 -72 124 47 c 0
 124 86 131 144 131 169 c 0
 131 226 100 260 24 281 c 1
 24 342 l 1
 101 360 131 394 131 451 c 0
 131 479 124 542 124 579 c 0
 124 702 175 750 311 755 c 1
 312 690 l 1
 220 685 197 645 197 575 c 0
 197 542 204 481 204 452 c 0
 204 367 182 336 99 312 c 1
 182 288 204 253 204 170 c 0
EndSplineSet
Substitution2: "'case' Case-Sensitive Forms in Lateinisch lookup 4 subtable" braceleft.cap
EndChar

StartChar: braceright
Encoding: 125 125 241
Width: 352
Flags: MW
HStem: -128 65<40 42> 690 65<40 41>
VStem: 155 73<19.5 66.5 -12.5 72 560.5 610>
LayerCount: 2
Fore
SplineSet
148 170 m 0
 148 253 170 288 253 312 c 1
 170 336 148 367 148 452 c 0
 148 481 155 542 155 575 c 0
 155 645 132 685 40 690 c 1
 41 755 l 1
 177 750 228 702 228 579 c 0
 228 542 221 479 221 451 c 0
 221 394 251 360 328 342 c 1
 328 281 l 1
 252 260 221 226 221 169 c 0
 221 144 228 86 228 47 c 0
 228 -72 178 -123 42 -128 c 1
 40 -63 l 1
 133 -58 155 -15 155 54 c 0
 155 90 149 135 148 170 c 0
EndSplineSet
Substitution2: "'case' Case-Sensitive Forms in Lateinisch lookup 4 subtable" braceright.cap
EndChar

StartChar: cent
Encoding: 162 162 242
Width: 560
Flags: MW
HStem: 49 54 397 186<278 337>
VStem: 101 78<193.5 302 193.5 322> 278 65<-81 36 36 36 465 583>
LayerCount: 2
Fore
SplineSet
278 -81 m 1
 278 36 l 1
 159 42 101 92 101 248 c 0
 101 396 160 459 278 465 c 1
 278 583 l 1
 343 583 l 1
 343 462 l 1
 386 461 444 450 444 450 c 1
 441 390 l 1
 441 390 362 397 312 397 c 0
 213 397 179 356 179 248 c 0
 179 139 210 103 318 103 c 0
 368 103 442 110 442 110 c 1
 445 49 l 1
 445 49 385 40 343 38 c 1
 343 -81 l 1
 278 -81 l 1
EndSplineSet
EndChar

StartChar: quoteleft
Encoding: 8216 8216 243
Width: 219
Flags: MW
HStem: 489 219<115 130 51 174>
VStem: 51 123
LayerCount: 2
Fore
SplineSet
174 708 m 1
 130 489 l 1
 51 489 l 1
 115 708 l 1
 174 708 l 1
EndSplineSet
EndChar

StartChar: quoteright
Encoding: 8217 8217 244
Width: 216
Flags: MW
HStem: 489 219<53 176 97 112>
VStem: 53 123
LayerCount: 2
Fore
SplineSet
53 489 m 1
 97 708 l 1
 176 708 l 1
 112 489 l 1
 53 489 l 1
EndSplineSet
EndChar

StartChar: divide
Encoding: 247 247 245
Width: 560
Flags: MW
HStem: 30 101<242 317 242 317> 281 73<120 177 120 177 383 439>
VStem: 177 206<354 402 354 402> 242 75<30 131 30 131>
LayerCount: 2
Fore
SplineSet
120 281 m 1xd0
 120 354 l 1
 177 354 l 1
 177 402 l 1
 383 402 l 1
 383 354 l 1
 439 354 l 1
 439 281 l 1xe0
 120 281 l 1xd0
242 30 m 1xd0
 242 131 l 1
 317 131 l 1
 317 30 l 1
 242 30 l 1xd0
EndSplineSet
EndChar

StartChar: Euro
Encoding: 8364 8364 246
Width: 560
Flags: MW
HStem: -10 66<281 362.5> 222 61<30 90 30 93 30 90 170 457 170 170> 378 61<30 94 30 90 171 457> 604 66<281.5 364.5>
VStem: 90 76<283 328 283 378>
LayerCount: 2
Fore
SplineSet
30 378 m 1
 30 439 l 1
 94 439 l 1
 109 591 168 670 331 670 c 0
 399 670 471 658 513 649 c 1
 510 587 l 1
 467 595 390 604 339 604 c 0
 224 604 183 551 171 439 c 1
 457 439 l 1
 457 378 l 1
 167 378 l 1
 166 362 166 345 166 328 c 2
 166 283 l 1
 457 283 l 1
 457 222 l 1
 170 222 l 1
 182 110 222 56 340 56 c 0
 394 56 465 65 510 74 c 1
 513 11 l 1
 466 1 394 -10 331 -10 c 0
 168 -10 109 72 93 222 c 1
 30 222 l 1
 30 283 l 1
 90 283 l 1
 89 297 89 312 89 328 c 0
 89 345 89 362 90 378 c 1
 30 378 l 1
EndSplineSet
EndChar

StartChar: ampersand
Encoding: 38 38 247
Width: 688
Flags: MW
HStem: -10 68<223 319.5 223 335.5> 636 65<282.5 348.5>
VStem: 42 76<159 250.5 159 262.5> 140 75<525 574 523.5 598> 412 75<508.5 574> 513 73<371 372>
LayerCount: 2
Fore
SplineSet
314 701 m 0
 431 701 487 642 487 549 c 0xe8
 487 454 441 410 333 360 c 1
 485 210 l 1
 496 242 510 324 513 372 c 1
 586 371 l 1
 579 301 559 210 540 163 c 1
 669 41 l 1
 624 -9 l 1
 503 104 l 1
 457 28 383 -10 288 -10 c 0
 101 -10 42 71 42 203 c 0xec
 42 322 92 371 197 405 c 1
 147 462 140 496 140 554 c 0xf8
 140 642 203 701 314 701 c 0
282 58 m 0
 357 58 419 86 451 148 c 1
 240 358 l 1
 153 331 118 293 118 208 c 0
 118 110 164 58 282 58 c 0
215 542 m 0xf8
 215 505 225 470 260 433 c 2
 289 405 l 1
 377 443 412 473 412 544 c 0
 412 604 383 636 314 636 c 0
 251 636 215 606 215 542 c 0xf8
EndSplineSet
EndChar

StartChar: asterisk
Encoding: 42 42 248
Width: 420
Flags: MW
HStem: 511 50<243 373 243 373 241 373>
VStem: 54 319<458 511>
LayerCount: 2
Fore
SplineSet
373 511 m 1
 241 511 l 1
 282 386 l 1
 233 371 l 1
 192 497 l 1
 85 418 l 1
 54 458 l 1
 162 537 l 1
 56 614 l 1
 87 656 l 1
 193 578 l 1
 234 704 l 1
 283 688 l 1
 243 561 l 1
 373 561 l 1
 373 511 l 1
EndSplineSet
EndChar

StartChar: sterling
Encoding: 163 163 249
Width: 560
Flags: MW
HStem: 0 66<80 165 238 392 80 165> 352 65<98 165 98 165 238 409> 603 67<288.5 339.5 261.5 342.5>
VStem: 165 73<66 352 66 352 417 467>
LayerCount: 2
Fore
SplineSet
446 653 m 1
 445 592 l 1
 445 592 365 603 320 603 c 0
 257 603 238 574 238 467 c 2
 238 417 l 1
 409 417 l 1
 409 352 l 1
 238 352 l 1
 238 66 l 1
 392 66 l 1
 469 82 l 1
 482 18 l 1
 400 0 l 1
 80 0 l 1
 80 66 l 1
 165 66 l 1
 165 352 l 1
 98 352 l 1
 98 417 l 1
 165 417 l 1
 165 472 l 2
 165 634 210 670 313 670 c 0
 366 670 446 653 446 653 c 1
EndSplineSet
EndChar

StartChar: paragraph
Encoding: 182 182 250
Width: 593
Flags: MW
HStem: 0 21G<228 295 228 228 411 479 411 411> 627 65<295 411 295 295 479 479 479 551>
VStem: 228 67<0 324 324 324> 411 68<0 627 0 627>
LayerCount: 2
Fore
SplineSet
411 0 m 1
 411 627 l 1
 295 627 l 1
 295 0 l 1
 228 0 l 1
 228 324 l 1
 221 324 l 2
 114 324 35 398 35 507 c 0
 35 616 115 692 222 692 c 2
 551 692 l 1
 551 627 l 1
 479 627 l 1
 479 0 l 1
 411 0 l 1
EndSplineSet
EndChar

StartChar: dagger
Encoding: 8224 8224 251
Width: 478
Flags: MW
HStem: 434 66<34 202 34 202 276 444>
VStem: 204 70
LayerCount: 2
Fore
SplineSet
34 434 m 1
 34 500 l 1
 202 500 l 1
 202 692 l 1
 276 692 l 1
 276 500 l 1
 444 500 l 1
 444 434 l 1
 276 434 l 1
 272 -76 l 1
 206 -76 l 1
 202 434 l 1
 34 434 l 1
EndSplineSet
EndChar

StartChar: percent
Encoding: 37 37 252
Width: 560
Flags: MW
HStem: -10 51<404 441 404 455.5> -4 21G<155 155> 218 51<404 441> 391 51<120 156.5 120 171.5> 619 51<120 156.5> 665 21G<408 408>
VStem: 28 61<502.5 561.5 502.5 580> 188 60<502.5 561.5> 313 60<102 161 102 179.5> 472 60<101.5 160.5>
LayerCount: 2
Fore
SplineSet
155 -4 m 1x77c0
 360 681 l 1
 408 665 l 1
 203 -18 l 1
 155 -4 l 1x77c0
138 670 m 0xbbc0
 206 670 248 628 248 532 c 0
 248 435 205 391 138 391 c 0
 71 391 28 435 28 532 c 0
 28 628 70 670 138 670 c 0xbbc0
89 532 m 0
 89 473 102 442 138 442 c 0
 175 442 188 473 188 532 c 0
 188 591 175 619 138 619 c 0
 102 619 89 591 89 532 c 0
422 269 m 0
 490 269 532 227 532 131 c 0
 532 35 489 -10 422 -10 c 0
 355 -10 313 35 313 132 c 0
 313 227 354 269 422 269 c 0
373 132 m 0
 373 72 386 41 422 41 c 0
 460 41 472 72 472 131 c 0
 472 190 460 218 422 218 c 0
 386 218 373 190 373 132 c 0
EndSplineSet
EndChar

StartChar: plus
Encoding: 43 43 253
Width: 560
Flags: MW
HStem: 217 68<55 244 55 244 314 505>
VStem: 244 70<20 217 20 217 285 480>
LayerCount: 2
Fore
SplineSet
55 217 m 1
 55 285 l 1
 244 285 l 1
 244 480 l 1
 314 480 l 1
 314 285 l 1
 505 285 l 1
 505 217 l 1
 314 217 l 1
 314 20 l 1
 244 20 l 1
 244 217 l 1
 55 217 l 1
EndSplineSet
EndChar

StartChar: asciicircum
Encoding: 94 94 254
Width: 560
Flags: MW
HStem: 319 341<58 310 58 310 243 501 243 421>
VStem: 58 443<319 319>
LayerCount: 2
Fore
SplineSet
421 319 m 1
 278 586 l 1
 138 319 l 1
 58 319 l 1
 243 660 l 1
 310 660 l 1
 501 319 l 1
 421 319 l 1
EndSplineSet
EndChar

StartChar: quotedblright
Encoding: 8221 8221 255
Width: 377
Flags: MW
HStem: 490 219<53 176 97 112 257 272 97 213>
VStem: 53 283<490 709>
LayerCount: 2
Fore
SplineSet
53 490 m 1
 97 709 l 1
 176 709 l 1
 112 490 l 1
 53 490 l 1
213 490 m 1
 257 709 l 1
 336 709 l 1
 272 490 l 1
 213 490 l 1
EndSplineSet
EndChar

StartChar: zerosuperior
Encoding: 8304 8304 256
Width: 280
Flags: MW
HStem: 468 58<123 157 123 177> 742 58<121.5 158>
VStem: 21 65<591 674.5 591 696.5> 193 65<591 674>
LayerCount: 2
Fore
SplineSet
139 800 m 0
 215 800 258 759 258 634 c 0
 258 508 214 468 140 468 c 0
 66 468 21 508 21 634 c 0
 21 759 65 800 139 800 c 0
139 742 m 0
 104 742 86 715 86 634 c 0
 86 548 106 526 140 526 c 0
 174 526 193 548 193 634 c 0
 193 714 177 742 139 742 c 0
EndSplineSet
Substitution2: "Single Substitution lookup 5 subtable" zeroinferior
EndChar

StartChar: onesuperior
Encoding: 185 185 257
Width: 280
Flags: MW
HStem: 700 20G<32 32 129 129>
VStem: 129 64<478 720 720 720>
LayerCount: 2
Fore
SplineSet
32 720 m 1
 133 790 l 1
 193 790 l 1
 193 478 l 1
 129 478 l 1
 129 720 l 1
 61 673 l 1
 32 720 l 1
EndSplineSet
Substitution2: "Single Substitution lookup 5 subtable" oneinferior
EndChar

StartChar: twosuperior
Encoding: 178 178 258
Width: 280
Flags: MW
HStem: 478 58<111 239 111 239> 740 60<114 134.5>
VStem: 30 209<478 533 533 533> 169 66<688 716>
LayerCount: 2
Fore
SplineSet
239 478 m 1xa0
 30 478 l 1
 30 533 l 1xa0
 118 620 l 2
 149 650 169 673 169 703 c 0
 169 729 149 740 120 740 c 0
 91 740 35 731 35 731 c 1
 33 788 l 1
 33 788 92 800 136 800 c 0
 205 800 235 771 235 709 c 0
 235 663 216 635 174 597 c 2xd0
 111 536 l 1
 239 536 l 1
 239 478 l 1xa0
EndSplineSet
Substitution2: "Single Substitution lookup 5 subtable" twoinferior
EndChar

StartChar: threesuperior
Encoding: 179 179 259
Width: 280
Flags: MW
HStem: 468 58<118.5 151.5 112.5 176.5> 611 53<72 137 72 137> 742 58<114.5 146>
VStem: 175 66<695.5 719.5> 184 65<555.5 584>
LayerCount: 2
Fore
SplineSet
34 790 m 1xe8
 34 790 93 800 136 800 c 0
 207 800 241 774 241 716 c 0xf0
 241 667 209 647 202 643 c 1
 232 633 249 617 249 565 c 0
 249 499 210 468 143 468 c 0
 94 468 30 478 30 478 c 1
 34 534 l 1
 34 534 91 526 134 526 c 0
 169 526 184 543 184 568 c 0
 184 600 165 611 137 611 c 2xe8
 72 611 l 1
 72 664 l 1
 137 664 l 2
 155 664 175 683 175 708 c 0
 175 731 162 742 130 742 c 0xf0
 87 742 38 735 38 735 c 1
 34 790 l 1xe8
EndSplineSet
Substitution2: "Single Substitution lookup 5 subtable" threeinferior
EndChar

StartChar: foursuperior
Encoding: 8308 8308 260
Width: 280
Flags: MW
HStem: 526 58<90 165 90 165 228 255>
VStem: 167.5 60.5
LayerCount: 2
Fore
SplineSet
165 478 m 1
 165 526 l 1
 24 526 l 1
 24 580 l 1
 93 790 l 1
 163 790 l 1
 90 584 l 1
 165 584 l 1
 170 673 l 1
 228 673 l 1
 228 584 l 1
 255 584 l 1
 255 526 l 1
 228 526 l 1
 228 478 l 1
 165 478 l 1
EndSplineSet
Substitution2: "Single Substitution lookup 5 subtable" fourinferior
EndChar

StartChar: fivesuperior
Encoding: 8309 8309 261
Width: 280
Flags: MW
HStem: 470 56<121.5 155 118.5 180> 621 55<144 157> 661 21G<100 100> 734 56<105 241 105 105>
VStem: 49 53.5 186 65<559.5 593>
LayerCount: 2
Fore
SplineSet
54 790 m 1xbc
 241 790 l 1
 241 734 l 1
 105 734 l 1
 100 661 l 1xbc
 100 661 130 676 158 676 c 0
 213 676 251 652 251 578 c 0
 251 506 215 470 145 470 c 0
 98 470 38 483 38 483 c 1
 43 535 l 1
 43 535 98 526 139 526 c 0
 171 526 186 543 186 576 c 0
 186 610 168 621 146 621 c 0
 118 621 94 606 94 606 c 1
 44 612 l 1xdc
 54 790 l 1xbc
EndSplineSet
Substitution2: "Single Substitution lookup 5 subtable" fiveinferior
EndChar

StartChar: sixsuperior
Encoding: 8310 8310 262
Width: 280
Flags: MW
HStem: 468 57<125.5 160.5 125.5 178.5> 629 54<140 161> 743 57<133.5 170.5 109 171>
VStem: 29 64<612 612.5 668.5 669 612 688> 191 64<564 597>
LayerCount: 2
Fore
SplineSet
242 790 m 1
 238 736 l 1
 238 736 188 743 154 743 c 0
 113 743 94 720 93 669 c 0
 93 668 127 683 153 683 c 0
 224 683 255 646 255 580 c 0
 255 510 212 468 145 468 c 0
 66 468 29 524 29 629 c 0
 29 747 66 800 152 800 c 0
 189 800 242 790 242 790 c 1
145 629 m 0
 118 629 93 613 93 612 c 0
 95 557 108 525 143 525 c 0
 178 525 191 549 191 579 c 0
 191 615 177 629 145 629 c 0
EndSplineSet
Substitution2: "Single Substitution lookup 5 subtable" sixinferior
EndChar

StartChar: sevensuperior
Encoding: 8311 8311 263
Width: 280
Flags: MW
HStem: 728 62<30 236 30 164>
VStem: 164 72<713 728 728 728>
LayerCount: 2
Fore
SplineSet
30 728 m 1
 30 790 l 1
 236 790 l 1
 236 713 l 1
 131 469 l 1
 62 482 l 1
 164 707 l 1
 164 728 l 1
 30 728 l 1
EndSplineSet
Substitution2: "Single Substitution lookup 5 subtable" seveninferior
EndChar

StartChar: eightsuperior
Encoding: 8312 8312 264
Width: 280
Flags: MW
HStem: 468 54<123.5 157.5 123.5 176.5> 616 49<126 154 126 154> 746 54<122.5 157.5>
VStem: 22 65<550.5 579.5 550.5 588> 27 63<697 721 697 743.5> 190 63<696.5 720.5> 193 65<551.5 580>
LayerCount: 2
Fore
SplineSet
140 800 m 0xec
 215 800 253 773 253 715 c 0xf4
 253 671 236 650 210 642 c 1
 234 635 258 615 258 567 c 0
 258 495 213 468 140 468 c 0
 69 468 22 492 22 563 c 0xf2
 22 613 47 633 70 643 c 1
 48 651 27 669 27 715 c 0
 27 772 64 800 140 800 c 0xec
140 522 m 0xf2
 175 522 193 536 193 567 c 0
 193 593 180 608 154 616 c 1
 126 616 l 1
 101 608 87 594 87 565 c 0
 87 536 107 522 140 522 c 0xf2
140 746 m 0xec
 105 746 90 733 90 709 c 0
 90 685 102 674 126 665 c 1
 154 665 l 1
 180 674 190 685 190 708 c 0
 190 733 175 746 140 746 c 0xec
EndSplineSet
Substitution2: "Single Substitution lookup 5 subtable" eightinferior
EndChar

StartChar: ninesuperior
Encoding: 8313 8313 265
Width: 280
Flags: MW
HStem: 468 58<109.5 146.5 105.5 173.5> 586 52<121.5 141> 743 57<123 156.5>
VStem: 26 64<676 708 676 725.5> 190 64<652 652>
LayerCount: 2
Fore
SplineSet
38 480 m 1
 42 533 l 1
 42 533 87 526 124 526 c 0
 169 526 187 553 188 598 c 0
 188 599 155 586 127 586 c 0
 62 586 26 624 26 690 c 0
 26 761 71 800 136 800 c 0
 217 800 254 745 254 633 c 0
 254 520 217 468 130 468 c 0
 89 468 38 480 38 480 c 1
136 638 m 0
 159 638 190 652 190 652 c 1
 189 713 175 743 138 743 c 0
 108 743 90 725 90 691 c 0
 90 661 107 638 136 638 c 0
EndSplineSet
Substitution2: "Single Substitution lookup 5 subtable" nineinferior
EndChar

StartChar: questiondown
Encoding: 191 191 266
Width: 441
Flags: MW
HStem: -201 68<202 273> 388 112<212 294 212 294>
VStem: 38 76<-70.5 -7 -70.5 2> 212 82<388 500 388 500> 220 76<214.5 300 214.5 300>
LayerCount: 2
Fore
SplineSet
38 -41 m 0xf0
 38 45 53 75 131 140 c 0
 190 189 220 220 220 265 c 2
 220 300 l 1
 283 300 l 1
 283 300 296 273 296 239 c 0xe8
 296 190 256 151 203 106 c 0
 131 44 114 21 114 -35 c 0
 114 -106 157 -133 247 -133 c 0
 303 -133 402 -110 402 -110 c 1
 407 -171 l 1
 407 -171 306 -201 240 -201 c 0
 106 -201 38 -157 38 -41 c 0xf0
294 500 m 1
 294 388 l 1
 212 388 l 1
 212 500 l 1
 294 500 l 1
EndSplineSet
Substitution2: "'case' Case-Sensitive Forms in Lateinisch lookup 4 subtable" questiondown.cap
EndChar

StartChar: questiondown.cap
Encoding: 65550 -1 267
Width: 438
Flags: MW
HStem: -9 68<200 271> 580 112<210 292 210 292>
VStem: 36 76<121.5 185 121.5 194> 210 82<580 692 580 692> 218 76<406.5 492 406.5 492>
LayerCount: 2
Fore
SplineSet
36 151 m 0xf0
 36 237 51 267 129 332 c 0
 188 381 218 412 218 457 c 2
 218 492 l 1
 281 492 l 1
 281 492 294 465 294 431 c 0xe8
 294 382 254 343 201 298 c 0
 129 236 112 213 112 157 c 0
 112 86 155 59 245 59 c 0
 301 59 400 82 400 82 c 1
 405 21 l 1
 405 21 304 -9 238 -9 c 0
 104 -9 36 35 36 151 c 0xf0
292 692 m 1
 292 580 l 1
 210 580 l 1
 210 692 l 1
 292 692 l 1
EndSplineSet
EndChar

StartChar: ellipsis
Encoding: 8230 8230 268
Width: 725
Flags: MW
HStem: 0 114<67 149 67 149 322 403 576 658>
VStem: 67 82<0 114 0 114> 322 81<0 114 0 114> 576 82<0 114 0 114>
LayerCount: 2
Fore
SplineSet
67 0 m 1
 67 114 l 1
 149 114 l 1
 149 0 l 1
 67 0 l 1
322 0 m 1
 322 114 l 1
 403 114 l 1
 403 0 l 1
 322 0 l 1
576 0 m 1
 576 114 l 1
 658 114 l 1
 658 0 l 1
 576 0 l 1
EndSplineSet
EndChar

StartChar: endash.cap
Encoding: 65551 -1 269
Width: 633
Flags: MW
HStem: 265 66<67 567 67 567>
VStem: 67 500<265 331 265 331>
LayerCount: 2
Fore
SplineSet
67 331 m 1
 567 331 l 1
 567 265 l 1
 67 265 l 1
 67 331 l 1
EndSplineSet
Position2: "'cpsp' Capital Spacing in Lateinisch lookup 0 subtable" dx=5 dy=0 dh=10 dv=0
EndChar

StartChar: emdash.cap
Encoding: 65552 -1 270
Width: 1133
Flags: MW
HStem: 265 66<67 1067 67 1067>
VStem: 67 1000<265 331 265 331>
LayerCount: 2
Fore
SplineSet
67 331 m 1
 1067 331 l 1
 1067 265 l 1
 67 265 l 1
 67 331 l 1
EndSplineSet
Position2: "'cpsp' Capital Spacing in Lateinisch lookup 0 subtable" dx=5 dy=0 dh=10 dv=0
EndChar

StartChar: periodcentered
Encoding: 183 183 271
Width: 217
Flags: MW
HStem: 229 114<68 150 68 150>
VStem: 68 82<229 343 229 343>
LayerCount: 2
Fore
SplineSet
68 229 m 1
 68 343 l 1
 150 343 l 1
 150 229 l 1
 68 229 l 1
EndSplineSet
Substitution2: "'case' Case-Sensitive Forms in Lateinisch lookup 4 subtable" periodcentered.cap
EndChar

StartChar: periodcentered.cap
Encoding: 65553 -1 272
Width: 216
Flags: MW
HStem: 278 114<67 149 67 149>
VStem: 67 82<278 392 278 392>
LayerCount: 2
Fore
SplineSet
67 278 m 1
 67 392 l 1
 149 392 l 1
 149 278 l 1
 67 278 l 1
EndSplineSet
Position2: "'cpsp' Capital Spacing in Lateinisch lookup 0 subtable" dx=5 dy=0 dh=10 dv=0
EndChar

StartChar: currency
Encoding: 164 164 273
Width: 560
Flags: MW
HStem: 71 66<261.5 298> 367 66<261.5 298 261.5 311.5>
VStem: 99 66<233.5 270> 395 66<233.5 270 233.5 283.5>
LayerCount: 2
Fore
SplineSet
449 30 m 1
 379 101 l 1
 350 82 316 71 280 71 c 0
 243 71 209 82 181 101 c 1
 111 30 l 1
 58 83 l 1
 128 153 l 1
 110 181 99 215 99 252 c 0
 99 288 110 322 128 351 c 1
 58 421 l 1
 111 474 l 1
 181 403 l 1
 209 422 243 433 280 433 c 0
 316 433 350 422 379 403 c 1
 449 474 l 1
 502 421 l 1
 431 351 l 1
 450 322 461 288 461 252 c 0
 461 215 450 181 431 153 c 1
 502 83 l 1
 449 30 l 1
280 137 m 0
 343 137 395 189 395 252 c 0
 395 315 343 367 280 367 c 0
 217 367 165 315 165 252 c 0
 165 189 217 137 280 137 c 0
EndSplineSet
EndChar

StartChar: perthousand
Encoding: 8240 8240 274
Width: 835
Flags: MW
HStem: -10 51<413.5 450.5 413.5 465.5 671.5 708.5> -4 21G<165 165> 218 51<413.5 450.5 671.5 708.5> 442 177<129.5 166.5> 665 21G<418 418> 670 21G<114 181.5>
VStem: 98 99<502.5 561.5> 322 60<102 161 102 179.5> 482 60<101.5 160.5> 580 60<102 161 102 179.5> 739 60<101.5 160.5>
LayerCount: 2
Fore
SplineSet
148 619 m 0xb7e0
 185 619 197 591 197 532 c 0
 197 473 185 442 148 442 c 0
 111 442 98 473 98 532 c 0
 98 591 111 619 148 619 c 0xb7e0
165 -4 m 1x4a
 370 681 l 1
 418 665 l 1
 212 -18 l 1
 165 -4 l 1x4a
38 532 m 0
 38 435 80 391 148 391 c 0
 215 391 258 435 258 532 c 0
 258 628 215 670 148 670 c 0x06
 80 670 38 628 38 532 c 0
322 132 m 0xa1e0
 322 227 364 269 432 269 c 0
 499 269 542 227 542 131 c 0
 542 35 499 -10 432 -10 c 0
 365 -10 322 35 322 132 c 0xa1e0
382 132 m 0
 382 72 395 41 432 41 c 0
 469 41 482 72 482 131 c 0
 482 190 469 218 432 218 c 0
 395 218 382 190 382 132 c 0
580 132 m 0
 580 227 622 269 690 269 c 0
 757 269 799 227 799 131 c 0
 799 35 756 -10 690 -10 c 0
 622 -10 580 35 580 132 c 0
640 132 m 0
 640 72 653 41 690 41 c 0
 727 41 739 72 739 131 c 0
 739 190 727 218 690 218 c 0
 653 218 640 190 640 132 c 0
EndSplineSet
EndChar

StartChar: lessequal
Encoding: 8804 8804 275
Width: 560
Flags: MW
HStem: 22 68<65 488 65 488>
VStem: 65 423<22 90 22 90 22 352 22 352>
LayerCount: 2
Fore
SplineSet
488 422 m 1
 153 320 l 1
 488 210 l 1
 488 134 l 1
 65 284 l 1
 65 352 l 1
 488 497 l 1
 488 422 l 1
65 22 m 1
 65 90 l 1
 488 90 l 1
 488 22 l 1
 65 22 l 1
EndSplineSet
EndChar

StartChar: greaterequal
Encoding: 8805 8805 276
Width: 560
Flags: MW
HStem: 22 68<71 494 71 494>
VStem: 71 423<22 90 22 90 22 210 22 210 22 497 22 497>
LayerCount: 2
Fore
SplineSet
406 320 m 1
 71 422 l 1
 71 497 l 1
 494 352 l 1
 494 284 l 1
 71 134 l 1
 71 210 l 1
 406 320 l 1
494 90 m 1
 494 22 l 1
 71 22 l 1
 71 90 l 1
 494 90 l 1
EndSplineSet
EndChar

StartChar: logicalnot
Encoding: 172 172 277
Width: 560
Flags: MW
HStem: 274 68<65 423 65 493>
VStem: 423 70<117 274 274 274>
LayerCount: 2
Fore
SplineSet
65 342 m 1
 493 342 l 1
 493 117 l 1
 423 117 l 1
 423 274 l 1
 65 274 l 1
 65 342 l 1
EndSplineSet
EndChar

StartChar: Delta
Encoding: 8710 8710 278
Width: 560
Flags: MW
HStem: 0 66<130 428 130 506> 595 65<266 292 266 266>
VStem: 53 453<0 56 0 57 0 57>
LayerCount: 2
Fore
SplineSet
53 57 m 1
 212 660 l 1
 347 660 l 1
 506 56 l 1
 506 0 l 1
 53 0 l 1
 53 57 l 1
292 595 m 1
 266 595 l 1
 130 66 l 1
 428 66 l 1
 292 595 l 1
EndSplineSet
EndChar

StartChar: Omega
Encoding: 8486 8486 279
Width: 560
Flags: MW
HStem: -9 66<45 168 45 242 45 168 391 515> 602 69<217.5 341.5>
VStem: 59 79<303 439 298.5 474> 391 124<-9 57> 422 79<303 439>
LayerCount: 2
Fore
SplineSet
45 57 m 1xe8
 168 57 l 1
 168 57 59 230 59 376 c 0
 59 572 107 671 280 671 c 0
 453 671 501 572 501 376 c 0xe8
 501 230 391 57 391 57 c 1
 515 57 l 1
 515 -9 l 1xf0
 318 -9 l 1
 318 48 l 1
 318 48 422 241 422 356 c 0
 422 522 403 602 280 602 c 0
 155 602 138 522 138 356 c 0
 138 241 242 48 242 48 c 1
 242 -9 l 1
 45 -9 l 1
 45 57 l 1xe8
EndSplineSet
EndChar

StartChar: oslashacute
Encoding: 511 511 280
Width: 528
Flags: MW
HStem: -112 852<145 360>
VStem: 50 428<193.5 314 165 342>
LayerCount: 2
Fore
SplineSet
264 510 m 0
 106 510 50 428 50 256 c 0
 50 131 71 52 139 15 c 1
 95 -94 l 1
 145 -112 l 1
 188 -2 l 1
 210 -7 235 -10 264 -10 c 0
 433 -10 478 74 478 256 c 0
 478 372 453 447 388 483 c 1
 431 587 l 1
 381 606 l 1
 338 502 l 1
 316 507 292 510 264 510 c 0
264 445 m 0
 283 445 300 443 314 439 c 1
 169 80 l 1
 134 110 127 167 127 256 c 0
 127 395 158 445 264 445 c 0
264 55 m 0
 244 55 227 56 213 60 c 1
 359 417 l 1
 390 389 401 338 401 256 c 0
 401 114 383 55 264 55 c 0
144 642 m 1
 360 740 l 1
 386 676 l 1
 165 591 l 1
 144 642 l 1
EndSplineSet
EndChar

StartChar: exclamdown
Encoding: 161 161 281
Width: 228
Flags: MW
HStem: 388 112<72 154 72 154>
VStem: 72 82<388 500 388 500> 76.5 74
LayerCount: 2
Fore
SplineSet
154 500 m 1xc0
 154 388 l 1
 72 388 l 1
 72 500 l 1
 154 500 l 1xc0
148 272 m 1xa0
 153 -192 l 1
 74 -192 l 1
 79 272 l 1
 148 272 l 1xa0
EndSplineSet
Substitution2: "'case' Case-Sensitive Forms in Lateinisch lookup 4 subtable" exclamdown.cap
EndChar

StartChar: exclamdown.cap
Encoding: 65554 -1 282
Width: 247
Flags: MW
HStem: 0 21G<84 163 84 84> 580 112<82 164 82 164>
VStem: 82 82<580 692 580 692> 86.5 74
LayerCount: 2
Fore
SplineSet
164 692 m 1xe0
 164 580 l 1
 82 580 l 1
 82 692 l 1
 164 692 l 1xe0
158 464 m 1xd0
 163 0 l 1
 84 0 l 1
 89 464 l 1
 158 464 l 1xd0
EndSplineSet
EndChar

StartChar: quotesinglbase
Encoding: 8218 8218 283
Width: 218
Flags: MW
HStem: -21 43<81 84 68 93>
VStem: 68 25
LayerCount: 2
Fore
SplineSet
93 22 m 1
 84 -21 l 1
 68 -21 l 1
 81 22 l 1
 93 22 l 1
EndSplineSet
EndChar

StartChar: parenleft.cap
Encoding: 65555 -1 284
Width: 264
Flags: MW
HStem: -95 875<155 227 155 227>
VStem: 51 81<235.5 427.5 235.5 439>
LayerCount: 2
Fore
SplineSet
155 780 m 1
 227 780 l 1
 227 780 132 524 132 331 c 0
 132 140 227 -95 227 -95 c 1
 155 -95 l 1
 155 -95 51 115 51 331 c 0
 51 547 155 780 155 780 c 1
EndSplineSet
Position2: "'cpsp' Capital Spacing in Lateinisch lookup 0 subtable" dx=5 dy=0 dh=10 dv=0
EndChar

StartChar: parenright.cap
Encoding: 65556 -1 285
Width: 264
Flags: MW
HStem: -90 875<37 109 37 109>
VStem: 132 81<262.5 454.5>
LayerCount: 2
Fore
SplineSet
109 -90 m 1
 37 -90 l 1
 37 -90 132 166 132 359 c 0
 132 550 37 785 37 785 c 1
 109 785 l 1
 109 785 213 575 213 359 c 0
 213 143 109 -90 109 -90 c 1
EndSplineSet
Position2: "'cpsp' Capital Spacing in Lateinisch lookup 0 subtable" dx=5 dy=0 dh=10 dv=0
EndChar

StartChar: bracketleft.cap
Encoding: 65557 -1 286
Width: 329
Flags: MW
HStem: -93 67<155 289 155 289> 712 67<155 289 155 155>
VStem: 79 76<-26 712 -26 779 -26 779>
LayerCount: 2
Fore
SplineSet
289 779 m 1
 289 712 l 1
 155 712 l 1
 155 -26 l 1
 289 -26 l 1
 289 -93 l 1
 79 -93 l 1
 79 779 l 1
 289 779 l 1
EndSplineSet
Position2: "'cpsp' Capital Spacing in Lateinisch lookup 0 subtable" dx=5 dy=0 dh=10 dv=0
EndChar

StartChar: bracketright.cap
Encoding: 65558 -1 287
Width: 329
Flags: MW
HStem: -93 67<40 174 40 250 40 174> 712 67<40 250 40 174>
VStem: 174 76<-26 712 712 712>
LayerCount: 2
Fore
SplineSet
40 712 m 1
 40 779 l 1
 250 779 l 1
 250 -93 l 1
 40 -93 l 1
 40 -26 l 1
 174 -26 l 1
 174 712 l 1
 40 712 l 1
EndSplineSet
Position2: "'cpsp' Capital Spacing in Lateinisch lookup 0 subtable" dx=5 dy=0 dh=10 dv=0
EndChar

StartChar: braceleft.cap
Encoding: 65559 -1 288
Width: 352
Flags: MW
HStem: -98 65<311 313> 720 65<312 313>
VStem: 125 73<49.5 96.5 590.5 640>
LayerCount: 2
Fore
SplineSet
205 200 m 0
 204 165 198 120 198 84 c 0
 198 15 220 -28 313 -33 c 1
 311 -98 l 1
 175 -93 125 -42 125 77 c 0
 125 116 132 174 132 199 c 0
 132 256 101 290 25 311 c 1
 25 372 l 1
 102 390 132 424 132 481 c 0
 132 509 125 572 125 609 c 0
 125 732 176 780 312 785 c 1
 313 720 l 1
 221 715 198 675 198 605 c 0
 198 572 205 511 205 482 c 0
 205 397 183 366 100 342 c 1
 183 318 205 283 205 200 c 0
EndSplineSet
Position2: "'cpsp' Capital Spacing in Lateinisch lookup 0 subtable" dx=5 dy=0 dh=10 dv=0
EndChar

StartChar: braceright.cap
Encoding: 65560 -1 289
Width: 352
Flags: MW
HStem: -100 65<39 40> 718 65<39 41>
VStem: 154 73<45 94.5 14.5 96.5 588.5 635.5>
LayerCount: 2
Fore
SplineSet
147 485 m 0
 148 520 154 565 154 601 c 0
 154 670 132 713 39 718 c 1
 41 783 l 1
 177 778 227 727 227 608 c 0
 227 569 220 511 220 486 c 0
 220 429 251 395 327 374 c 1
 327 313 l 1
 250 295 220 261 220 204 c 0
 220 176 227 113 227 76 c 0
 227 -47 176 -95 40 -100 c 1
 39 -35 l 1
 131 -30 154 10 154 80 c 0
 154 113 147 174 147 203 c 0
 147 288 169 319 252 343 c 1
 169 367 147 402 147 485 c 0
EndSplineSet
Position2: "'cpsp' Capital Spacing in Lateinisch lookup 0 subtable" dx=5 dy=0 dh=10 dv=0
EndChar

StartChar: grave.cap
Encoding: 65561 -1 290
Width: 236
Flags: MW
HStem: 778 153
VStem: 10 242<831 865>
LayerCount: 2
Fore
SplineSet
36 931 m 1
 252 831 l 1
 229 778 l 1
 10 865 l 1
 36 931 l 1
EndSplineSet
EndChar

StartChar: acute.cap
Encoding: 65562 -1 291
Width: 236
Flags: MW
HStem: 778 153
VStem: 12 242<831 865>
LayerCount: 2
Fore
SplineSet
12 831 m 1
 228 931 l 1
 254 865 l 1
 35 778 l 1
 12 831 l 1
EndSplineSet
EndChar

StartChar: circumflex.cap
Encoding: 65563 -1 292
Width: 462
Flags: MW
HStem: 791 135<54 253 54 253 188 303 188 387>
VStem: 54 333<791 791>
LayerCount: 2
Fore
SplineSet
54 791 m 1
 188 926 l 1
 253 926 l 1
 387 791 l 1
 303 791 l 1
 221 871 l 1
 138 791 l 1
 54 791 l 1
EndSplineSet
EndChar

StartChar: caron.cap
Encoding: 65564 -1 293
Width: 236
Flags: MW
HStem: 791 135<-35 99 -35 164>
VStem: -35 333<926 926>
LayerCount: 2
Fore
SplineSet
99 791 m 1
 -35 926 l 1
 49 926 l 1
 132 846 l 1
 214 926 l 1
 298 926 l 1
 164 791 l 1
 99 791 l 1
EndSplineSet
EndChar

StartChar: tilde.cap
Encoding: 65565 -1 294
Width: 236
Flags: MW
HStem: 803 66<207 232.5 207 244> 857 66<49 77>
VStem: -29 337<859 865>
LayerCount: 2
Fore
SplineSet
290 915 m 1xa0
 308 859 l 1
 308 859 264 803 224 803 c 0xa0
 177 803 93 857 61 857 c 0
 37 857 -12 809 -12 809 c 1
 -29 865 l 1
 -29 865 19 923 60 923 c 0x60
 110 923 192 869 222 869 c 0
 243 869 290 915 290 915 c 1xa0
EndSplineSet
EndChar

StartChar: dieresis.cap
Encoding: 65566 -1 295
Width: 236
Flags: MW
HStem: 808 90<-22 51 -22 51 182 254>
VStem: -22 73<808 898 808 898> 182 72<808 898 808 898>
LayerCount: 2
Fore
SplineSet
-22 808 m 1
 -22 898 l 1
 51 898 l 1
 51 808 l 1
 -22 808 l 1
182 808 m 1
 182 898 l 1
 254 898 l 1
 254 808 l 1
 182 808 l 1
EndSplineSet
EndChar

StartChar: macron.cap
Encoding: 65567 -1 296
Width: 236
Flags: MW
HStem: 812 58<-22 289 -22 289>
VStem: -22 311<812 870 812 870>
LayerCount: 2
Fore
SplineSet
-22 812 m 1
 -22 870 l 1
 289 870 l 1
 289 812 l 1
 -22 812 l 1
EndSplineSet
EndChar

StartChar: breve.cap
Encoding: 65568 -1 297
Width: 236
Flags: MW
HStem: 787 56<112 160.5 112 182.5>
VStem: -21 315<918 918>
LayerCount: 2
Fore
SplineSet
-21 918 m 1
 48 918 l 1
 50 873 88 843 136 843 c 0
 185 843 223 873 224 918 c 1
 294 918 l 1
 290 840 229 787 136 787 c 0
 43 787 -17 840 -21 918 c 1
EndSplineSet
EndChar

StartChar: ring.cap
Encoding: 65569 -1 298
Width: 236
Flags: MW
HStem: 676 52<112.5 151 112.5 165.5> 835 52<112.5 151>
VStem: 13 57<765 799 765 815.5> 194 56<765 799>
LayerCount: 2
Fore
SplineSet
250 782 m 0
 250 714 199 676 132 676 c 0
 64 676 13 714 13 782 c 0
 13 849 64 887 132 887 c 0
 199 887 250 849 250 782 c 0
70 782 m 0
 70 748 93 728 132 728 c 0
 170 728 194 748 194 782 c 0
 194 816 170 835 132 835 c 0
 93 835 70 816 70 782 c 0
EndSplineSet
EndChar

StartChar: hungarumlaut.cap
Encoding: 65570 -1 299
Width: 236
Flags: MW
HStem: 752 165<102 208>
VStem: -40 394<785 881>
LayerCount: 2
Fore
SplineSet
157 785 m 1
 299 916 l 1
 354 881 l 1
 208 752 l 1
 157 785 l 1
-40 785 m 1
 102 917 l 1
 156 882 l 1
 11 753 l 1
 -40 785 l 1
EndSplineSet
EndChar

StartChar: dotaccent.cap
Encoding: 65571 -1 300
Width: 236
Flags: MW
HStem: 801 87<81 155 81 155>
VStem: 81 74<801 888 801 888>
LayerCount: 2
Fore
SplineSet
81 801 m 1
 81 888 l 1
 155 888 l 1
 155 801 l 1
 81 801 l 1
EndSplineSet
EndChar

StartChar: Aringacute
Encoding: 506 506 301
Width: 596
Flags: MW
HStem: 0 21G<24 100 24 24 496 572 496 496> 178 69<167 429 167 446 150 429> 626 66<272 317 278.5 317 278.5 324> 799 52<278.5 317>
VStem: 179 57<730 763 729 779.5> 360 56<730.5 763>
LayerCount: 2
Fore
SplineSet
416 746 m 0
 416 715 405 690 387 672 c 1
 572 0 l 1
 496 0 l 1
 446 178 l 1
 150 178 l 1
 100 0 l 1
 24 0 l 1
 208 671 l 1
 190 689 179 714 179 746 c 0
 179 813 230 851 298 851 c 0
 365 851 416 813 416 746 c 0
272 626 m 1
 167 247 l 1
 429 247 l 1
 324 626 l 1
 272 626 l 1
170 924 m 1
 386 1024 l 1
 412 958 l 1
 193 871 l 1
 170 924 l 1
236 746 m 0
 236 712 259 692 298 692 c 0
 336 692 360 712 360 746 c 0
 360 780 336 799 298 799 c 0
 259 799 236 780 236 746 c 0
EndSplineSet
Position2: "'cpsp' Capital Spacing in Lateinisch lookup 0 subtable" dx=5 dy=0 dh=10 dv=0
EndChar

StartChar: Eng
Encoding: 330 330 302
Width: 676
Flags: MW
HStem: -189 69<402 447.5 402 468> 0 68<450 515 494 515 494 515> 624 68<162 181 162 162>
VStem: 85 77<0 624 0 692 0 692> 515 77<-97 0 -97 0>
LayerCount: 2
Fore
SplineSet
85 0 m 1
 85 692 l 1
 229 692 l 1
 494 68 l 1
 515 68 l 1
 515 692 l 1
 591 692 l 1
 591 575 l 1
 592 -22 l 2
 592 -172 534 -189 402 -189 c 1
 402 -120 l 1
 493 -120 515 -114 515 -11 c 2
 515 0 l 1
 450 0 l 1
 181 624 l 1
 162 624 l 1
 162 0 l 1
 85 0 l 1
EndSplineSet
Position2: "'cpsp' Capital Spacing in Lateinisch lookup 0 subtable" dx=5 dy=0 dh=10 dv=0
EndChar

StartChar: amacron
Encoding: 257 257 303
Width: 501
Flags: MW
HStem: -10 63<167.5 226> 242 56.5 444 66<225 290> 624 59<112 387 112 387>
VStem: 40 77<116 172.5 116 191> 350 75<93 249 249 249 306 349 93 384>
LayerCount: 2
Fore
SplineSet
425 349 m 2
 425 93 l 2
 427 64 451 53 483 49 c 1
 480 -10 l 1
 427 -10 391 0 361 30 c 1
 361 30 271 -10 181 -10 c 0
 90 -10 40 42 40 143 c 0
 40 239 90 281 193 291 c 2
 350 306 l 1
 350 349 l 2
 350 419 320 444 260 444 c 0
 190 444 71 431 71 431 c 1
 68 488 l 1
 68 488 178 510 264 510 c 0
 377 510 425 458 425 349 c 2
350 249 m 1
 202 235 l 2
 141 229 117 200 117 145 c 0
 117 87 142 53 193 53 c 0
 267 53 350 84 350 84 c 1
 350 249 l 1
112 624 m 1
 112 683 l 1
 387 683 l 1
 387 624 l 1
 112 624 l 1
EndSplineSet
EndChar

StartChar: abreve
Encoding: 259 259 304
Width: 503
Flags: MW
HStem: 55 184 298.5 139.5 591 67<226.5 278.5 226.5 302>
VStem: 117 233<116 170.5>
LayerCount: 2
Fore
SplineSet
425 101 m 2
 425 347 l 2
 425 460 372 510 267 510 c 0
 189 510 69 490 69 490 c 1
 72 425 l 1
 72 425 190 438 263 438 c 0
 319 438 350 410 350 347 c 2
 350 306 l 1
 193 291 l 2
 89 282 40 239 40 143 c 0
 40 45 90 -10 176 -10 c 0
 272 -10 361 28 361 28 c 1
 387 1 419 -10 480 -10 c 1
 482 55 l 1
 451 59 426 69 425 101 c 2
202 233 m 2
 350 245 l 1
 350 85 l 1
 350 85 263 55 188 55 c 0
 143 55 117 87 117 145 c 0
 117 196 141 227 202 233 c 2
92 733 m 1
 169 733 l 1
 171 688 201 658 252 658 c 0
 305 658 335 688 336 733 c 1
 413 733 l 1
 409 651 352 591 252 591 c 0
 153 591 96 651 92 733 c 1
EndSplineSet
EndChar

StartChar: aringacute
Encoding: 507 507 305
Width: 501
Flags: MW
HStem: -10 63<167.5 226> 242 56.5 444 66<225 290> 541 47<230.5 261.5 230.5 275> 701 48<230.5 261.5>
VStem: 40 77<116 172.5 116 191> 142 49<629 660.5 629 674> 301 48<629 660.5> 350 75<93 249 249 249 306 349 93 384>
LayerCount: 2
Fore
SplineSet
425 349 m 2
 425 93 l 2
 427 64 451 53 483 49 c 1
 480 -10 l 1
 427 -10 391 0 361 30 c 1
 361 30 271 -10 181 -10 c 0
 90 -10 40 42 40 143 c 0
 40 239 90 281 193 291 c 2
 350 306 l 1
 350 349 l 2
 350 419 320 444 260 444 c 0
 190 444 71 431 71 431 c 1
 68 488 l 1
 68 488 178 510 264 510 c 0
 377 510 425 458 425 349 c 2
350 249 m 1
 202 235 l 2
 141 229 117 200 117 145 c 0
 117 87 142 53 193 53 c 0
 267 53 350 84 350 84 c 1
 350 249 l 1
142 645 m 0xff
 142 703 187 749 246 749 c 0
 304 749 349 703 349 645 c 0
 349 586 304 541 246 541 c 0
 187 541 142 586 142 645 c 0xff
191 645 m 0
 191 613 215 588 246 588 c 0
 277 588 301 613 301 645 c 0
 301 676 277 701 246 701 c 0
 215 701 191 676 191 645 c 0
132 824 m 1
 348 922 l 1
 374 858 l 1
 153 773 l 1
 132 824 l 1
EndSplineSet
EndChar

StartChar: aogonek
Encoding: 261 261 306
Width: 500
Flags: MW
HStem: -206 61<414 421> -10 63<167.5 226> 242 56.5 444 66<225 290>
VStem: 40 77<116 172.5 116 191> 312 73<-114.5 -92> 350 75<93 249 249 249 306 349 93 384>
LayerCount: 2
Fore
SplineSet
425 349 m 2xfa
 425 93 l 2
 427 64 451 53 483 49 c 1
 480 -10 l 1xfa
 468 -10 457 -9 446 -8 c 1
 428 -27 385 -75 385 -102 c 0
 385 -127 402 -145 426 -145 c 0
 440 -145 476 -139 476 -139 c 1
 483 -197 l 1
 483 -197 438 -206 404 -206 c 0
 352 -206 312 -173 312 -119 c 0
 312 -65 381 -3 393 6 c 1xfc
 381 12 371 20 361 30 c 1
 361 30 271 -10 181 -10 c 0
 90 -10 40 42 40 143 c 0
 40 239 90 281 193 291 c 2
 350 306 l 1
 350 349 l 2
 350 419 320 444 260 444 c 0
 190 444 71 431 71 431 c 1
 68 488 l 1
 68 488 178 510 264 510 c 0
 377 510 425 458 425 349 c 2xfa
350 249 m 1
 202 235 l 2
 141 229 117 200 117 145 c 0
 117 87 142 53 193 53 c 0
 267 53 350 84 350 84 c 1
 350 249 l 1
EndSplineSet
EndChar

StartChar: aeacute
Encoding: 509 509 307
Width: 804
Flags: MW
HStem: -10 65<165.5 224 165.5 224.5> -10 68<513 587.5> 218 61<425 684 425 755 425 684> 239 61 438 72<228 290.5> 443 67<525 602>
VStem: 40 77<115.5 173.5 115.5 199> 348 77<214.5 218 165.5 245> 684 75<279 339>
LayerCount: 2
Fore
SplineSet
556 58 m 0x6780
 631 58 739 67 739 67 c 1
 741 6 l 1
 741 6 628 -10 547 -10 c 0
 479 -10 431 9 400 44 c 1
 368 30 l 2
 355 24 273 -10 176 -10 c 0
 87 -10 40 44 40 143 c 0
 40 255 98 281 221 294 c 2
 350 306 l 1
 350 347 l 2
 350 411 318 438 263 438 c 0
 189 438 73 428 73 428 c 1x5b80
 70 495 l 1
 70 495 189 510 267 510 c 0
 335 510 380 486 402 437 c 1
 437 490 492 510 558 510 c 0
 691 510 759 440 759 276 c 1
 755 218 l 1
 425 218 l 1
 425 113 458 58 556 58 c 0x6780
188 55 m 0x9780
 260 55 357 87 367 92 c 1
 352 132 348 184 348 245 c 1
 202 233 l 2
 144 228 117 202 117 145 c 0
 117 86 143 55 188 55 c 0x9780
425 279 m 1x6780
 684 279 l 1
 684 399 646 443 558 443 c 0
 472 443 425 396 425 279 c 1x6780
290 642 m 1
 506 740 l 1
 532 676 l 1
 311 591 l 1
 290 642 l 1
EndSplineSet
EndChar

StartChar: cacute
Encoding: 263 263 308
Width: 436
Flags: MW
HStem: -10 67<213 280> 443 67<216.5 282 184.5 293>
VStem: 51 77<185 326 185 349.5>
LayerCount: 2
Fore
SplineSet
259 510 m 0
 305 510 395 495 395 495 c 1
 392 434 l 1
 392 434 312 443 274 443 c 0
 159 443 128 393 128 259 c 0
 128 111 151 57 275 57 c 0
 313 57 393 66 393 66 c 1
 396 4 l 1
 396 4 303 -10 257 -10 c 0
 98 -10 51 63 51 259 c 0
 51 440 110 510 259 510 c 0
126 642 m 1
 342 740 l 1
 368 676 l 1
 147 591 l 1
 126 642 l 1
EndSplineSet
EndChar

StartChar: ccircumflex
Encoding: 265 265 309
Width: 436
Flags: MW
HStem: -10 67<213 280> 443 67<216.5 282 184.5 293> 592 140<83 257 83 257 206 306 206 381>
VStem: 51 77<185 326 185 349.5>
LayerCount: 2
Fore
SplineSet
259 510 m 0
 305 510 395 495 395 495 c 1
 392 434 l 1
 392 434 312 443 274 443 c 0
 159 443 128 393 128 259 c 0
 128 111 151 57 275 57 c 0
 313 57 393 66 393 66 c 1
 396 4 l 1
 396 4 303 -10 257 -10 c 0
 98 -10 51 63 51 259 c 0
 51 440 110 510 259 510 c 0
83 592 m 1
 206 732 l 1
 257 732 l 1
 381 592 l 1
 306 592 l 1
 233 679 l 1
 158 592 l 1
 83 592 l 1
EndSplineSet
EndChar

StartChar: ccaron
Encoding: 269 269 310
Width: 436
Flags: MW
HStem: -10 67<213 280> 443 67<216.5 282 184.5 293> 592 140<91 214 91 264>
VStem: 51 77<185 326 185 349.5>
LayerCount: 2
Fore
SplineSet
259 510 m 0
 305 510 395 495 395 495 c 1
 392 434 l 1
 392 434 312 443 274 443 c 0
 159 443 128 393 128 259 c 0
 128 111 151 57 275 57 c 0
 313 57 393 66 393 66 c 1
 396 4 l 1
 396 4 303 -10 257 -10 c 0
 98 -10 51 63 51 259 c 0
 51 440 110 510 259 510 c 0
214 592 m 1
 91 732 l 1
 165 732 l 1
 240 645 l 1
 314 732 l 1
 389 732 l 1
 264 592 l 1
 214 592 l 1
EndSplineSet
EndChar

StartChar: cdotaccent
Encoding: 267 267 311
Width: 436
Flags: MW
HStem: -10 67<213 280> 443 67<216.5 282 184.5 293> 609 87<214 288 214 288>
VStem: 51 77<185 326 185 349.5> 214 74<609 696 609 696>
LayerCount: 2
Fore
SplineSet
259 510 m 0
 305 510 395 495 395 495 c 1
 392 434 l 1
 392 434 312 443 274 443 c 0
 159 443 128 393 128 259 c 0
 128 111 151 57 275 57 c 0
 313 57 393 66 393 66 c 1
 396 4 l 1
 396 4 303 -10 257 -10 c 0
 98 -10 51 63 51 259 c 0
 51 440 110 510 259 510 c 0
214 609 m 1
 214 696 l 1
 288 696 l 1
 288 609 l 1
 214 609 l 1
EndSplineSet
EndChar

StartChar: dcaron
Encoding: 271 271 312
Width: 575
Flags: MW
HStem: -10 67<209.5 267.5> 0 21G<382 456 382 382> 445 65<210.5 280.5 183 283.5> 683 35 698 20G<382 456 456 456>
VStem: 50 77<165 311 165 334> 382 74<0 34 34 34 94 433 433 433 497 718 0 718>
LayerCount: 2
Fore
SplineSet
558 683 m 1xb6
 518 476 l 1
 583 476 l 1
 632 683 l 1
 558 683 l 1xb6
456 718 m 1
 456 0 l 1
 382 0 l 1x6e
 382 34 l 1
 382 34 305 -10 230 -10 c 0
 132 -10 50 30 50 246 c 0
 50 422 107 510 259 510 c 0
 302 510 367 500 382 497 c 1
 382 718 l 1
 456 718 l 1
239 57 m 0xae
 310 57 382 94 382 94 c 1
 382 433 l 1
 366 436 304 445 263 445 c 0
 158 445 127 376 127 246 c 0
 127 84 180 57 239 57 c 0xae
EndSplineSet
EndChar

StartChar: dcroat
Encoding: 273 273 313
Width: 529
Flags: MW
HStem: -10 67<209.5 267.5> 0 21G<382 456 382 382> 445 65<210.5 280.5 183 283.5> 622 66<188 382 188 382 456 479> 622 96<188 456 382 479 382 456>
VStem: 50 77<165 311 165 334> 382 74<0 34 34 34 94 433 433 433 497 622 0 622 688 718>
LayerCount: 2
Fore
SplineSet
456 718 m 1xae
 456 688 l 1
 479 688 l 1xb6
 479 622 l 1
 456 622 l 1
 456 0 l 1
 382 0 l 1x6e
 382 34 l 1
 382 34 305 -10 230 -10 c 0
 132 -10 50 30 50 246 c 0
 50 422 107 510 259 510 c 0
 302 510 367 500 382 497 c 1
 382 622 l 1
 188 622 l 1xae
 188 688 l 1
 382 688 l 1xb6
 382 718 l 1
 456 718 l 1xae
239 57 m 0
 310 57 382 94 382 94 c 1
 382 433 l 1
 366 436 304 445 263 445 c 0
 158 445 127 376 127 246 c 0
 127 84 180 57 239 57 c 0
EndSplineSet
EndChar

StartChar: ecaron
Encoding: 283 283 314
Width: 505
Flags: MW
HStem: -10 66<208 288.5> 219 60<126 385 125 456 126 126> 447 63<216.5 303> 592 140<104 227 104 277>
VStem: 50 75<279 279 279 342> 385 75<279 341>
LayerCount: 2
Fore
SplineSet
257 56 m 0
 332 56 441 65 441 65 c 1
 443 6 l 1
 443 6 329 -10 248 -10 c 0
 99 -10 50 77 50 247 c 0
 50 437 132 510 259 510 c 0
 392 510 460 440 460 276 c 1
 456 219 l 1
 126 219 l 1
 126 112 159 56 257 56 c 0
125 279 m 1
 385 279 l 1
 385 403 347 447 259 447 c 0
 174 447 126 400 125 279 c 1
227 592 m 1
 104 732 l 1
 178 732 l 1
 253 645 l 1
 327 732 l 1
 402 732 l 1
 277 592 l 1
 227 592 l 1
EndSplineSet
EndChar

StartChar: emacron
Encoding: 275 275 315
Width: 505
Flags: MW
HStem: -10 66<208 288.5> 219 60<126 385 125 456 126 126> 447 63<216.5 303> 624 59<123 398 123 398>
VStem: 50 75<279 279 279 342> 385 75<279 341>
LayerCount: 2
Fore
SplineSet
257 56 m 0
 332 56 441 65 441 65 c 1
 443 6 l 1
 443 6 329 -10 248 -10 c 0
 99 -10 50 77 50 247 c 0
 50 437 132 510 259 510 c 0
 392 510 460 440 460 276 c 1
 456 219 l 1
 126 219 l 1
 126 112 159 56 257 56 c 0
125 279 m 1
 385 279 l 1
 385 403 347 447 259 447 c 0
 174 447 126 400 125 279 c 1
123 624 m 1
 123 683 l 1
 398 683 l 1
 398 624 l 1
 123 624 l 1
EndSplineSet
EndChar

StartChar: ebreve
Encoding: 277 277 316
Width: 505
Flags: MW
HStem: -10 66<208 288.5> 219 60<126 385 125 456 126 126> 447 63<216.5 303> 586 56<229.5 283.5 229.5 301.5> 586 140<108 301.5>
VStem: 50 75<279 279 279 342> 385 75<279 341>
LayerCount: 2
Fore
SplineSet
257 56 m 0xee
 332 56 441 65 441 65 c 1
 443 6 l 1
 443 6 329 -10 248 -10 c 0
 99 -10 50 77 50 247 c 0
 50 437 132 510 259 510 c 0
 392 510 460 440 460 276 c 1
 456 219 l 1
 126 219 l 1
 126 112 159 56 257 56 c 0xee
125 279 m 1
 385 279 l 1
 385 403 347 447 259 447 c 0
 174 447 126 400 125 279 c 1
108 726 m 1
 169 726 l 1xee
 171 677 203 642 256 642 c 0xf6
 311 642 342 677 343 726 c 1
 405 726 l 1
 401 649 347 586 256 586 c 0
 166 586 112 649 108 726 c 1
EndSplineSet
EndChar

StartChar: edotaccent
Encoding: 279 279 317
Width: 505
Flags: MW
HStem: -10 66<208 288.5> 219 60<126 385 125 456 126 126> 447 63<216.5 303> 609 87<217 291 217 291>
VStem: 50 75<279 279 279 342> 217 74<609 696 609 696> 385 75<279 341>
LayerCount: 2
Fore
SplineSet
257 56 m 0
 332 56 441 65 441 65 c 1
 443 6 l 1
 443 6 329 -10 248 -10 c 0
 99 -10 50 77 50 247 c 0
 50 437 132 510 259 510 c 0
 392 510 460 440 460 276 c 1
 456 219 l 1
 126 219 l 1
 126 112 159 56 257 56 c 0
125 279 m 1
 385 279 l 1
 385 403 347 447 259 447 c 0
 174 447 126 400 125 279 c 1
217 609 m 1
 217 696 l 1
 291 696 l 1
 291 609 l 1
 217 609 l 1
EndSplineSet
EndChar

StartChar: eogonek
Encoding: 281 281 318
Width: 506
Flags: MW
HStem: -206 61<372 379> -10 66<208 262.5> 6 50 219 60<126 385 125 456 126 126> 447 63<216.5 303>
VStem: 50 75<279 279 279 342> 270 73<-114.5 -97.5> 385 75<279 341> 414 28
LayerCount: 2
Fore
SplineSet
414 1 m 1x3e80
 414 1 343 -69 343 -102 c 0
 343 -127 360 -145 384 -145 c 0
 398 -145 434 -139 434 -139 c 1
 441 -197 l 1
 441 -197 396 -206 362 -206 c 0
 310 -206 270 -173 270 -119 c 0
 270 -76 314 -28 338 -5 c 1
 307 -8 277 -10 248 -10 c 0
 99 -10 50 77 50 247 c 0
 50 437 132 510 259 510 c 0
 392 510 460 440 460 276 c 1
 456 219 l 1xdf
 126 219 l 1
 126 112 159 56 257 56 c 0
 332 56 441 65 441 65 c 1x5e80
 443 6 l 1
 443 6 427 4 408 1 c 2
 414 1 l 1x3e80
125 279 m 1x5f
 385 279 l 1
 385 403 347 447 259 447 c 0
 174 447 126 400 125 279 c 1x5f
EndSplineSet
EndChar

StartChar: gcircumflex
Encoding: 285 285 319
Width: 514
Flags: MW
HStem: -235 63<209.5 316 209.5 335.5> 5 66<270.5 333.5> 170 60<235 285 204 304> 438 63 449 61<204 268 187.5 285> 592 140<113 287 113 287 236 336 236 411>
VStem: 50 74<-112.5 -58.5 -112.5 -55> 56 75<299.5 378.5 299.5 400.5> 101 72<97 118.5> 358 75<299.5 365.5 274 378.5> 411 76<-112 -41>
LayerCount: 2
Fore
SplineSet
265 -235 m 0xf620
 107 -235 50 -200 50 -84 c 0xf620
 50 -26 77 1 129 40 c 1
 111 52 101 78 101 109 c 0xf4a0
 101 128 135 188 135 188 c 1
 93 207 56 247 56 339 c 0
 56 462 132 510 243 510 c 0xed40
 293 510 347 497 347 497 c 1
 495 501 l 1
 495 437 l 1
 400 439 l 1
 419 420 433 392 433 339 c 0
 433 209 368 170 240 170 c 0
 230 170 202 172 191 174 c 1
 191 174 173 130 173 117 c 0xf4c0
 173 77 181 71 294 71 c 0
 436 71 487 43 487 -76 c 0
 487 -189 406 -235 265 -235 c 0xf620
288 5 m 0
 253 5 180 10 180 10 c 1
 138 -21 124 -39 124 -78 c 0
 124 -147 153 -172 266 -172 c 0
 366 -172 411 -145 411 -79 c 0
 411 -3 379 5 288 5 c 0
243 230 m 0xed40
 327 230 358 260 358 339 c 0
 358 418 327 449 243 449 c 0
 165 449 131 418 131 339 c 0
 131 260 165 230 243 230 c 0xed40
113 592 m 1
 236 732 l 1
 287 732 l 1
 411 592 l 1
 336 592 l 1
 263 679 l 1
 188 592 l 1
 113 592 l 1
EndSplineSet
EndChar

StartChar: gbreve
Encoding: 287 287 320
Width: 514
Flags: MW
HStem: -235 63<209.5 316 209.5 335.5> 5 66<270.5 333.5> 170 60<235 285 204 304> 438 63 449 61<204 268 187.5 285> 586 56<234.5 288.5 234.5 306.5> 586 140<113 306.5>
VStem: 50 74<-112.5 -58.5 -112.5 -55> 56 75<299.5 378.5 299.5 400.5> 101 72<97 118.5> 358 75<299.5 365.5 274 378.5> 411 76<-112 -41>
LayerCount: 2
Fore
SplineSet
265 -235 m 0xf310
 107 -235 50 -200 50 -84 c 0xf310
 50 -26 77 1 129 40 c 1
 111 52 101 78 101 109 c 0xf250
 101 128 135 188 135 188 c 1
 93 207 56 247 56 339 c 0
 56 462 132 510 243 510 c 0xeaa0
 293 510 347 497 347 497 c 1
 495 501 l 1
 495 437 l 1
 400 439 l 1
 419 420 433 392 433 339 c 0
 433 209 368 170 240 170 c 0
 230 170 202 172 191 174 c 1
 191 174 173 130 173 117 c 0xf260
 173 77 181 71 294 71 c 0
 436 71 487 43 487 -76 c 0
 487 -189 406 -235 265 -235 c 0xf310
288 5 m 0
 253 5 180 10 180 10 c 1
 138 -21 124 -39 124 -78 c 0
 124 -147 153 -172 266 -172 c 0
 366 -172 411 -145 411 -79 c 0
 411 -3 379 5 288 5 c 0
243 230 m 0xeaa0
 327 230 358 260 358 339 c 0
 358 418 327 449 243 449 c 0
 165 449 131 418 131 339 c 0
 131 260 165 230 243 230 c 0xeaa0
113 726 m 1
 174 726 l 1xf290
 176 677 208 642 261 642 c 0xf4a0
 316 642 347 677 348 726 c 1
 410 726 l 1
 406 649 352 586 261 586 c 0
 171 586 117 649 113 726 c 1
EndSplineSet
EndChar

StartChar: gdotaccent
Encoding: 289 289 321
Width: 514
Flags: MW
HStem: -235 63<209.5 316 209.5 335.5> 5 66<270.5 333.5> 170 60<235 285 204 304> 438 63 449 61<204 268 187.5 285> 609 87<224 298 224 298>
VStem: 50 74<-112.5 -58.5 -112.5 -55> 56 75<299.5 378.5 299.5 400.5> 101 72<97 118.5> 224 74<609 696 609 696> 358 75<299.5 365.5 274 378.5> 411 76<-112 -41>
LayerCount: 2
Fore
SplineSet
265 -235 m 0xf650
 107 -235 50 -200 50 -84 c 0xf650
 50 -26 77 1 129 40 c 1
 111 52 101 78 101 109 c 0xf4d0
 101 128 135 188 135 188 c 1
 93 207 56 247 56 339 c 0
 56 462 132 510 243 510 c 0xed60
 293 510 347 497 347 497 c 1
 495 501 l 1
 495 437 l 1
 400 439 l 1
 419 420 433 392 433 339 c 0
 433 209 368 170 240 170 c 0
 230 170 202 172 191 174 c 1
 191 174 173 130 173 117 c 0xf4e0
 173 77 181 71 294 71 c 0
 436 71 487 43 487 -76 c 0
 487 -189 406 -235 265 -235 c 0xf650
288 5 m 0
 253 5 180 10 180 10 c 1
 138 -21 124 -39 124 -78 c 0
 124 -147 153 -172 266 -172 c 0
 366 -172 411 -145 411 -79 c 0
 411 -3 379 5 288 5 c 0
243 230 m 0xed60
 327 230 358 260 358 339 c 0
 358 418 327 449 243 449 c 0
 165 449 131 418 131 339 c 0
 131 260 165 230 243 230 c 0xed60
224 609 m 1
 224 696 l 1
 298 696 l 1
 298 609 l 1
 224 609 l 1
EndSplineSet
EndChar

StartChar: gcommaaccent
Encoding: 291 291 322
Width: 514
Flags: MW
HStem: -235 63<209.5 316 209.5 335.5> 5 66<270.5 333.5> 170 60<235 285 204 304> 438 63 449 61<204 268 187.5 285> 589 207<242 266 192 307>
VStem: 50 74<-112.5 -58.5 -112.5 -55> 56 75<299.5 378.5 299.5 400.5> 101 72<97 118.5> 358 75<299.5 365.5 274 378.5> 411 76<-112 -41>
LayerCount: 2
Fore
SplineSet
307 796 m 1xf520
 266 589 l 1
 192 589 l 1
 242 796 l 1
 307 796 l 1xf520
265 -235 m 0xf620
 107 -235 50 -200 50 -84 c 0xf620
 50 -26 77 1 129 40 c 1
 111 52 101 78 101 109 c 0xf4a0
 101 128 135 188 135 188 c 1
 93 207 56 247 56 339 c 0
 56 462 132 510 243 510 c 0xed40
 293 510 347 497 347 497 c 1
 495 501 l 1
 495 437 l 1
 400 439 l 1
 419 420 433 392 433 339 c 0
 433 209 368 170 240 170 c 0
 230 170 202 172 191 174 c 1
 191 174 173 130 173 117 c 0xf4c0
 173 77 181 71 294 71 c 0
 436 71 487 43 487 -76 c 0
 487 -189 406 -235 265 -235 c 0xf620
288 5 m 0
 253 5 180 10 180 10 c 1
 138 -21 124 -39 124 -78 c 0
 124 -147 153 -172 266 -172 c 0
 366 -172 411 -145 411 -79 c 0
 411 -3 379 5 288 5 c 0
243 230 m 0xed40
 327 230 358 260 358 339 c 0
 358 418 327 449 243 449 c 0
 165 449 131 418 131 339 c 0
 131 260 165 230 243 230 c 0xed40
EndSplineSet
EndChar

StartChar: hcircumflex
Encoding: 293 293 323
Width: 537
Flags: MW
HStem: 0 21G<72 147 72 72 395 395 395 470> 443 67<264 334> 698 20G<72 147 147 147> 774 140<118 292 118 292 241 341 241 416>
VStem: 72 75<0 413 472 718> 395 75<0 262 262 264 0 328>
LayerCount: 2
Fore
SplineSet
147 0 m 1
 72 0 l 1
 72 718 l 1
 147 718 l 1
 147 472 l 1
 147 472 227 510 301 510 c 0
 438 510 470 442 470 264 c 2
 470 0 l 1
 395 0 l 1
 395 262 l 2
 395 394 380 443 288 443 c 0
 217 443 147 413 147 413 c 1
 147 0 l 1
118 774 m 1
 241 914 l 1
 292 914 l 1
 416 774 l 1
 341 774 l 1
 268 861 l 1
 193 774 l 1
 118 774 l 1
EndSplineSet
EndChar

StartChar: hbar
Encoding: 295 295 324
Width: 537
Flags: MW
HStem: 0 21G<72 147 72 72 395 470 395 395> 443 67<264 334> 580 66<10 72 10 72 147 301> 580 138<10 147 10 147 72 147 72 301>
VStem: 72 75<0 413 472 580 646 718> 395 75<0 262 262 264 0 328>
LayerCount: 2
Fore
SplineSet
10 580 m 1xdc
 10 646 l 1
 72 646 l 1xec
 72 718 l 1
 147 718 l 1xdc
 147 646 l 1
 301 646 l 1xec
 301 580 l 1
 147 580 l 1
 147 472 l 1
 147 472 227 510 301 510 c 0
 438 510 470 442 470 264 c 2
 470 0 l 1
 395 0 l 1
 395 262 l 2
 395 394 380 443 288 443 c 0
 217 443 147 413 147 413 c 1
 147 0 l 1
 72 0 l 1
 72 580 l 1
 10 580 l 1xdc
EndSplineSet
EndChar

StartChar: itilde
Encoding: 297 297 325
Width: 219
Flags: MW
HStem: 612 61<168 193.5 168 203> 659 60<32 60> 663 21G<269 269>
VStem: -47 316<663 667>
LayerCount: 2
Fore
SplineSet
72 500 m 1x50
 72 0 l 1
 147 0 l 1
 147 500 l 1
 72 500 l 1x50
252 711 m 1x90
 269 663 l 1x30
 269 663 223 612 183 612 c 0x90
 143 612 76 659 44 659 c 0
 20 659 -29 619 -29 619 c 1
 -47 667 l 1
 -47 667 3 719 44 719 c 0x50
 84 719 153 673 183 673 c 0
 204 673 252 711 252 711 c 1x90
EndSplineSet
EndChar

StartChar: imacron
Encoding: 299 299 326
Width: 219
Flags: MW
HStem: 624 59<-28 247 -28 247>
VStem: -28 100 147 100
LayerCount: 2
Fore
SplineSet
72 500 m 1
 72 0 l 1
 147 0 l 1
 147 500 l 1
 72 500 l 1
-28 624 m 1
 -28 683 l 1
 247 683 l 1
 247 624 l 1
 -28 624 l 1
EndSplineSet
EndChar

StartChar: ibreve
Encoding: 301 301 327
Width: 219
Flags: MW
HStem: 586 56<82.5 136.5 82.5 154.5> 586 140<-39 154.5>
VStem: -39 111 -39 297<726 726>
LayerCount: 2
Fore
SplineSet
72 500 m 1xa0
 72 0 l 1
 147 0 l 1
 147 500 l 1
 72 500 l 1xa0
-39 726 m 1x60
 22 726 l 1x60
 24 677 56 642 109 642 c 0x90
 164 642 195 677 196 726 c 1
 258 726 l 1
 254 649 200 586 109 586 c 0
 19 586 -35 649 -39 726 c 1x60
EndSplineSet
EndChar

StartChar: iogonek
Encoding: 303 303 328
Width: 219
Flags: MW
HStem: -206 61<100 108> 0 21G<72 72 72 76 147 147> 480 20G<72 147 147 147> 613 87<72 147 72 147>
VStem: -1 72<-114.5 -95.5> 72 75<0 500 0 500 613 700>
LayerCount: 2
Fore
SplineSet
72 0 m 1
 72 500 l 1
 147 500 l 1
 147 0 l 1xf4
 147 0 71 -68 71 -102 c 0
 71 -127 88 -145 112 -145 c 0
 127 -145 163 -139 163 -139 c 1
 170 -197 l 1
 170 -197 125 -206 91 -206 c 0
 38 -206 -1 -173 -1 -119 c 0xf8
 -1 -72 54 -19 76 0 c 1
 72 0 l 1
72 613 m 1
 72 700 l 1
 147 700 l 1
 147 613 l 1
 72 613 l 1
EndSplineSet
EndChar

StartChar: jcircumflex
Encoding: 309 309 329
Width: 219
Flags: MW
HStem: -223 21G<-19 -19> 480 20G<73 147 147 147> 592 140<-41 133 -41 133 82 182 82 257>
VStem: 73 74<13 500>
LayerCount: 2
Fore
SplineSet
73 13 m 2
 73 500 l 1
 147 500 l 1
 147 12 l 2
 147 -111 114 -155 -19 -223 c 1
 -49 -165 l 1
 52 -106 73 -80 73 13 c 2
-41 592 m 1
 82 732 l 1
 133 732 l 1
 257 592 l 1
 182 592 l 1
 109 679 l 1
 34 592 l 1
 -41 592 l 1
EndSplineSet
EndChar

StartChar: kcommaaccent
Encoding: 311 311 330
Width: 479
Flags: MW
HStem: -285 207<100 215 140 165> 0 21G<72 147 72 72 375 375 375 460> 230.5 65.5 480 20G<368 453 453 453> 698 20G<72 147 147 147>
VStem: 72 75<0 229 294 718>
LayerCount: 2
Fore
SplineSet
100 -285 m 1
 140 -78 l 1
 215 -78 l 1
 165 -285 l 1
 100 -285 l 1
147 0 m 1
 72 0 l 1
 72 718 l 1
 147 718 l 1
 147 294 l 1
 225 298 l 1
 368 500 l 1
 453 500 l 1
 290 270 l 1
 460 0 l 1
 375 0 l 1
 226 232 l 1
 147 229 l 1
 147 0 l 1
EndSplineSet
EndChar

StartChar: lacute
Encoding: 314 314 331
Width: 231
Flags: MW
HStem: 0 21G<78 78 78 153> 698 20G<78 153 153 153>
VStem: 78 75<0 718 0 718>
LayerCount: 2
Fore
SplineSet
78 0 m 1
 78 718 l 1
 153 718 l 1
 153 0 l 1
 78 0 l 1
52 846 m 1
 268 944 l 1
 294 880 l 1
 73 795 l 1
 52 846 l 1
EndSplineSet
EndChar

StartChar: lcaron
Encoding: 318 318 332
Width: 270
Flags: MW
HStem: 0 21G<78 78 78 153> 683 35
VStem: 78 75<0 718 0 718>
LayerCount: 2
Fore
SplineSet
255 683 m 1
 214 476 l 1
 280 476 l 1
 329 683 l 1
 255 683 l 1
78 0 m 1
 78 718 l 1
 153 718 l 1
 153 0 l 1
 78 0 l 1
EndSplineSet
EndChar

StartChar: lcommaaccent
Encoding: 316 316 333
Width: 231
Flags: MW
HStem: 0 21G<78 78 78 153> 698 20G<78 153 153 153>
VStem: 78 75<0 718 0 718>
LayerCount: 2
Fore
SplineSet
78 0 m 1
 78 718 l 1
 153 718 l 1
 153 0 l 1
 78 0 l 1
74 -78 m 1
 33 -285 l 1
 98 -285 l 1
 148 -78 l 1
 74 -78 l 1
EndSplineSet
EndChar

StartChar: nacute
Encoding: 324 324 334
Width: 537
Flags: MW
HStem: 0 740<72 376 147 376 376 470 376 470>
VStem: 147 249<0 262 0 406 0 406>
LayerCount: 2
Fore
SplineSet
72 0 m 1
 147 0 l 1
 147 406 l 1
 147 406 216 443 288 443 c 0
 381 443 396 394 396 262 c 2
 396 0 l 1
 470 0 l 1
 470 264 l 2
 470 442 439 510 301 510 c 0
 227 510 146 465 146 465 c 1
 146 500 l 1
 72 500 l 1
 72 0 l 1
160 642 m 1
 376 740 l 1
 402 676 l 1
 181 591 l 1
 160 642 l 1
EndSplineSet
EndChar

StartChar: ncaron
Encoding: 328 328 335
Width: 537
Flags: MW
HStem: 0 21G<72 147 72 72 396 396 396 470> 443 67<264 334.5> 465 35<72 146> 592 140<119 242 119 292>
VStem: 72 75<0 406> 396 74<0 262 262 264 0 328>
LayerCount: 2
Fore
SplineSet
147 0 m 1xdc
 72 0 l 1
 72 500 l 1
 146 500 l 1xbc
 146 465 l 1
 146 465 227 510 301 510 c 0
 439 510 470 442 470 264 c 2
 470 0 l 1
 396 0 l 1
 396 262 l 2
 396 394 381 443 288 443 c 0
 216 443 147 406 147 406 c 1
 147 0 l 1xdc
242 592 m 1
 119 732 l 1
 193 732 l 1
 268 645 l 1
 342 732 l 1
 417 732 l 1
 292 592 l 1
 242 592 l 1
EndSplineSet
EndChar

StartChar: ncommaaccent
Encoding: 326 326 336
Width: 537
Flags: MW
HStem: -285 207<127 242 168 193> 0 21G<72 147 72 72 396 396 396 470> 443 67<264 334.5> 465 35<72 146>
VStem: 72 75<0 406> 396 74<0 262 262 264 0 328>
LayerCount: 2
Fore
SplineSet
127 -285 m 1xec
 168 -78 l 1
 242 -78 l 1
 193 -285 l 1
 127 -285 l 1xec
147 0 m 1
 72 0 l 1
 72 500 l 1
 146 500 l 1xdc
 146 465 l 1
 146 465 227 510 301 510 c 0
 439 510 470 442 470 264 c 2
 470 0 l 1
 396 0 l 1
 396 262 l 2
 396 394 381 443 288 443 c 0
 216 443 147 406 147 406 c 1
 147 0 l 1
EndSplineSet
EndChar

StartChar: omacron
Encoding: 333 333 337
Width: 528
Flags: MW
HStem: 636 59<128 403 128 403>
VStem: 50 428<165 342> 127 274<185 325.5>
LayerCount: 2
Fore
SplineSet
264 510 m 0xc0
 106 510 50 428 50 256 c 0
 50 74 96 -10 264 -10 c 0
 433 -10 478 74 478 256 c 0
 478 428 423 510 264 510 c 0xc0
264 55 m 0xa0
 146 55 127 114 127 256 c 0
 127 395 158 445 264 445 c 0
 371 445 401 395 401 256 c 0
 401 114 383 55 264 55 c 0xa0
128 636 m 1
 128 695 l 1
 403 695 l 1
 403 636 l 1
 128 636 l 1
EndSplineSet
EndChar

StartChar: obreve
Encoding: 335 335 338
Width: 528
Flags: MW
HStem: 586 56<239.5 293.5 239.5 311.5> 586 140<118 311.5>
VStem: 127 274<185 325.5>
LayerCount: 2
Fore
SplineSet
264 510 m 0xa0
 106 510 50 428 50 256 c 0
 50 74 96 -10 264 -10 c 0
 433 -10 478 74 478 256 c 0
 478 428 423 510 264 510 c 0xa0
264 55 m 0
 146 55 127 114 127 256 c 0
 127 395 158 445 264 445 c 0
 371 445 401 395 401 256 c 0
 401 114 383 55 264 55 c 0
118 726 m 1x60
 179 726 l 1x60
 181 677 213 642 266 642 c 0xa0
 321 642 352 677 353 726 c 1
 415 726 l 1
 411 649 357 586 266 586 c 0
 176 586 122 649 118 726 c 1x60
EndSplineSet
EndChar

StartChar: ohungarumlaut
Encoding: 337 337 339
Width: 528
Flags: MW
HStem: 700 20G<292 292 485 485>
VStem: 50 435<165 720> 127 274<185 325.5>
LayerCount: 2
Fore
SplineSet
264 510 m 0xc0
 106 510 50 428 50 256 c 0
 50 74 96 -10 264 -10 c 0
 433 -10 478 74 478 256 c 0
 478 428 423 510 264 510 c 0xc0
264 55 m 0xa0
 146 55 127 114 127 256 c 0
 127 395 158 445 264 445 c 0
 371 445 401 395 401 256 c 0
 401 114 383 55 264 55 c 0xa0
286 624 m 1
 431 763 l 1
 485 720 l 1
 337 582 l 1
 286 624 l 1
93 624 m 1
 238 762 l 1
 292 720 l 1
 145 582 l 1
 93 624 l 1
EndSplineSet
EndChar

StartChar: racute
Encoding: 341 341 340
Width: 346
Flags: MW
HStem: 0 21G<72 72 72 147> 432 68<72 146> 480 20G<72 146 146 146>
VStem: 72 75<0 367 0 500>
LayerCount: 2
Fore
SplineSet
72 0 m 1xb0
 72 500 l 1
 146 500 l 1
 146 432 l 1
 146 432 233 492 329 511 c 1
 329 435 l 1
 235 416 147 367 147 367 c 1xd0
 147 0 l 1
 72 0 l 1xb0
67 642 m 1
 283 740 l 1
 309 676 l 1
 88 591 l 1
 67 642 l 1
EndSplineSet
EndChar

StartChar: rcommaaccent
Encoding: 343 343 341
Width: 346
Flags: MW
HStem: 0 21G<72 72 72 147> 432 68<72 146> 480 20G<72 146 146 146>
VStem: 72 75<0 367 0 500>
LayerCount: 2
Fore
SplineSet
72 -78 m 1xb0
 32 -285 l 1
 97 -285 l 1
 146 -78 l 1
 72 -78 l 1xb0
72 0 m 1
 72 500 l 1
 146 500 l 1
 146 432 l 1
 146 432 233 492 329 511 c 1
 329 435 l 1
 235 416 147 367 147 367 c 1xd0
 147 0 l 1
 72 0 l 1
EndSplineSet
EndChar

StartChar: rcaron
Encoding: 345 345 342
Width: 346
Flags: MW
HStem: 0 21G<72 72 72 147> 432 68<72 146> 480 20G<72 146 146 146> 592 140<26 149 26 199>
VStem: 72 75<0 367 0 500>
LayerCount: 2
Fore
SplineSet
72 0 m 1xb8
 72 500 l 1
 146 500 l 1
 146 432 l 1
 146 432 233 492 329 511 c 1
 329 435 l 1
 235 416 147 367 147 367 c 1xd8
 147 0 l 1
 72 0 l 1xb8
149 592 m 1
 26 732 l 1
 100 732 l 1
 175 645 l 1
 249 732 l 1
 324 732 l 1
 199 592 l 1
 149 592 l 1
EndSplineSet
EndChar

StartChar: sacute
Encoding: 347 347 343
Width: 465
Flags: MW
HStem: -10 21G<196 288> -10 67<196 262 195.5 288> 443 67<198 261> 490 20G<179.5 262.5>
VStem: 45 75<343.5 396.5 343.5 419> 347 75<109 169>
LayerCount: 2
Fore
SplineSet
406 491 m 1x5c
 404 427 l 1
 404 427 293 443 229 443 c 0
 167 443 120 426 120 367 c 0
 120 320 144 307 250 289 c 0
 375 268 422 243 422 146 c 0
 422 29 348 -10 228 -10 c 0x6c
 164 -10 52 9 52 9 c 1xac
 56 74 l 1
 56 74 170 57 221 57 c 0
 303 57 347 75 347 143 c 0
 347 195 321 208 212 225 c 0
 99 243 45 264 45 364 c 0
 45 474 134 510 225 510 c 0x6c
 300 510 406 491 406 491 c 1x5c
114 642 m 1
 330 740 l 1
 356 676 l 1
 135 591 l 1
 114 642 l 1
EndSplineSet
EndChar

StartChar: scircumflex
Encoding: 349 349 344
Width: 465
Flags: MW
HStem: -10 21G<196 288> -10 67<196 262 195.5 288> 443 67<198 261> 490 20G<179.5 262.5> 592 140<85 259 85 259 208 308 208 383>
VStem: 45 75<343.5 396.5 343.5 419> 347 75<109 169>
LayerCount: 2
Fore
SplineSet
406 491 m 1x5e
 404 427 l 1
 404 427 293 443 229 443 c 0
 167 443 120 426 120 367 c 0
 120 320 144 307 250 289 c 0
 375 268 422 243 422 146 c 0
 422 29 348 -10 228 -10 c 0x6e
 164 -10 52 9 52 9 c 1xae
 56 74 l 1
 56 74 170 57 221 57 c 0
 303 57 347 75 347 143 c 0
 347 195 321 208 212 225 c 0
 99 243 45 264 45 364 c 0
 45 474 134 510 225 510 c 0x6e
 300 510 406 491 406 491 c 1x5e
85 592 m 1
 208 732 l 1
 259 732 l 1
 383 592 l 1
 308 592 l 1
 235 679 l 1
 160 592 l 1
 85 592 l 1
EndSplineSet
EndChar

StartChar: scedilla
Encoding: 351 351 345
Width: 465
Flags: MW
HStem: -217 52<241 260 232.5 291> -93 44<245 246 204 282> -10 67<245 245> -9 21G<204 204> 443 67<198 261> 490 20G<179.5 262.5>
VStem: 45 75<343.5 396.5 343.5 419> 204 41<-49 -10 -49 -9 -49 -9> 290 66<-141 -114.5> 347 75<109 169>
LayerCount: 2
Fore
SplineSet
356 -127 m 0xeb80
 356 -190 319 -217 263 -217 c 0
 219 -217 177 -210 177 -210 c 1
 180 -162 l 1
 180 -162 219 -165 246 -165 c 0
 274 -165 290 -155 290 -127 c 0
 290 -102 274 -93 246 -93 c 2
 204 -93 l 1
 204 -9 l 1xeb80
 139 -6 52 9 52 9 c 1xdb40
 56 74 l 1
 56 74 170 57 221 57 c 0
 303 57 347 75 347 143 c 0
 347 195 321 208 212 225 c 0
 99 243 45 264 45 364 c 0
 45 474 134 510 225 510 c 0xeb40
 300 510 406 491 406 491 c 1xe740
 404 427 l 1
 404 427 293 443 229 443 c 0
 167 443 120 426 120 367 c 0
 120 320 144 307 250 289 c 0
 375 268 422 243 422 146 c 0xeb40
 422 34 355 -6 245 -10 c 1
 245 -49 l 1
 319 -49 356 -63 356 -127 c 0xeb80
EndSplineSet
Substitution2: "'locl' Localized Forms in Lateinisch lookup 0 subtable" scommaaccent
EndChar

StartChar: scommaaccent
Encoding: 537 537 346
Width: 465
Flags: MW
HStem: -78 135<151 262 195.5 226> -10 21G<196 288> -10 67<196 262 195.5 288> 443 67<198 261> 490 20G<179.5 262.5>
VStem: 45 75<343.5 396.5 343.5 419> 347 75<109 169>
LayerCount: 2
Fore
SplineSet
151 -78 m 1x8e
 111 -285 l 1
 176 -285 l 1
 226 -78 l 1
 151 -78 l 1x8e
406 491 m 1
 404 427 l 1
 404 427 293 443 229 443 c 0
 167 443 120 426 120 367 c 0
 120 320 144 307 250 289 c 0
 375 268 422 243 422 146 c 0
 422 29 348 -10 228 -10 c 0x36
 164 -10 52 9 52 9 c 1x56
 56 74 l 1
 56 74 170 57 221 57 c 0
 303 57 347 75 347 143 c 0
 347 195 321 208 212 225 c 0
 99 243 45 264 45 364 c 0
 45 474 134 510 225 510 c 0x36
 300 510 406 491 406 491 c 1
EndSplineSet
EndChar

StartChar: tcaron
Encoding: 357 357 347
Width: 432
Flags: MW
HStem: -11 71<212 254.5> 0 60 432 68<27 98 27 98 173 331> 462 38
VStem: 98 75<172 199 199 432 500 653> 370 72<462 696 462 696>
LayerCount: 2
Fore
SplineSet
331 432 m 1x6c
 173 432 l 1
 173 199 l 2
 173 90 179 60 245 60 c 0
 273 60 334 65 334 65 c 1x6c
 338 0 l 1
 338 0 272 -11 237 -11 c 0xac
 134 -11 98 28 98 172 c 2
 98 432 l 1
 27 432 l 1
 27 500 l 1
 98 500 l 1
 98 653 l 1
 173 653 l 1
 173 500 l 1
 331 500 l 1
 331 432 l 1x6c
442 696 m 1
 442 462 l 1
 370 462 l 1x5c
 370 696 l 1
 442 696 l 1
EndSplineSet
EndChar

StartChar: tcommaaccent
Encoding: 539 539 348
Width: 351
Flags: MW
HStem: -11 67<211.5 253.5> 0 56 435 65<27 98 27 98 172 331>
VStem: 98 74<172 196 196 435 500 653>
LayerCount: 2
Fore
SplineSet
141 -78 m 1xb0
 101 -285 l 1
 166 -285 l 1
 216 -78 l 1
 141 -78 l 1xb0
331 435 m 1
 172 435 l 1
 172 196 l 2
 172 87 179 56 244 56 c 0
 272 56 333 62 333 62 c 1x70
 338 0 l 1
 338 0 271 -11 236 -11 c 0
 133 -11 98 28 98 172 c 2
 98 435 l 1
 27 435 l 1
 27 500 l 1
 98 500 l 1
 98 653 l 1
 172 653 l 1
 172 500 l 1
 331 500 l 1
 331 435 l 1
EndSplineSet
EndChar

StartChar: tbar
Encoding: 359 359 349
Width: 354
Flags: MW
HStem: -11 71<214 256.5> 0 60 253 59<45 100 45 100 175 309> 432 68<29 100 29 100 175 333>
VStem: 100 75<172 199 199 253 144.5 253 312 432 500 653>
LayerCount: 2
Fore
SplineSet
333 432 m 1x78
 175 432 l 1
 175 312 l 1
 309 312 l 1
 309 253 l 1
 175 253 l 1
 175 199 l 2
 175 90 181 60 247 60 c 0
 275 60 336 65 336 65 c 1x78
 340 0 l 1
 340 0 274 -11 239 -11 c 0xb8
 136 -11 100 28 100 172 c 2
 100 253 l 1
 45 253 l 1
 45 312 l 1
 100 312 l 1
 100 432 l 1
 29 432 l 1
 29 500 l 1
 100 500 l 1
 100 653 l 1
 175 653 l 1
 175 500 l 1
 333 500 l 1
 333 432 l 1x78
EndSplineSet
EndChar

StartChar: utilde
Encoding: 361 361 350
Width: 531
Flags: MW
HStem: 612 61<320 345.5 320 355> 659 60<184 212> 663 21G<421 421>
VStem: 142 242<240 500>
LayerCount: 2
Fore
SplineSet
459 500 m 1x50
 384 500 l 1
 384 94 l 1
 384 94 321 57 247 57 c 0
 154 57 142 102 142 240 c 2
 142 500 l 1
 67 500 l 1
 67 239 l 2
 67 55 96 -10 236 -10 c 0
 309 -10 384 35 384 35 c 1
 384 0 l 1
 459 0 l 1
 459 500 l 1x50
404 711 m 1x90
 421 663 l 1x30
 421 663 375 612 335 612 c 0x90
 295 612 228 659 196 659 c 0
 172 659 123 619 123 619 c 1
 105 667 l 1
 105 667 155 719 196 719 c 0x50
 236 719 305 673 335 673 c 0
 356 673 404 711 404 711 c 1x90
EndSplineSet
EndChar

StartChar: umacron
Encoding: 363 363 351
Width: 531
Flags: MW
HStem: 624 59<126 401 126 401>
VStem: 142 242<240 500>
LayerCount: 2
Fore
SplineSet
459 500 m 1
 384 500 l 1
 384 94 l 1
 384 94 321 57 247 57 c 0
 154 57 142 102 142 240 c 2
 142 500 l 1
 67 500 l 1
 67 239 l 2
 67 55 96 -10 236 -10 c 0
 309 -10 384 35 384 35 c 1
 384 0 l 1
 459 0 l 1
 459 500 l 1
126 624 m 1
 126 683 l 1
 401 683 l 1
 401 624 l 1
 126 624 l 1
EndSplineSet
EndChar

StartChar: ubreve
Encoding: 365 365 352
Width: 531
Flags: MW
HStem: 586 56<232.5 286.5 232.5 304.5> 586 140<111 304.5>
VStem: 142 242<240 500>
LayerCount: 2
Fore
SplineSet
459 500 m 1x60
 384 500 l 1
 384 94 l 1
 384 94 321 57 247 57 c 0
 154 57 142 102 142 240 c 2
 142 500 l 1
 67 500 l 1
 67 239 l 2
 67 55 96 -10 236 -10 c 0
 309 -10 384 35 384 35 c 1
 384 0 l 1
 459 0 l 1
 459 500 l 1x60
111 726 m 1
 172 726 l 1x60
 174 677 206 642 259 642 c 0xa0
 314 642 345 677 346 726 c 1
 408 726 l 1
 404 649 350 586 259 586 c 0
 169 586 115 649 111 726 c 1
EndSplineSet
EndChar

StartChar: uring
Encoding: 367 367 353
Width: 531
Flags: MW
HStem: 541 47<249.5 280.5 249.5 294> 701 48<249.5 280.5>
VStem: 142 242<240 500> 161 49<629 660.5 629 674> 320 48<629 660.5>
LayerCount: 2
Fore
SplineSet
459 500 m 1xe0
 384 500 l 1
 384 94 l 1
 384 94 321 57 247 57 c 0
 154 57 142 102 142 240 c 2
 142 500 l 1
 67 500 l 1
 67 239 l 2
 67 55 96 -10 236 -10 c 0
 309 -10 384 35 384 35 c 1
 384 0 l 1
 459 0 l 1
 459 500 l 1xe0
161 645 m 0xd8
 161 703 206 749 265 749 c 0
 323 749 368 703 368 645 c 0
 368 586 323 541 265 541 c 0
 206 541 161 586 161 645 c 0xd8
210 645 m 0
 210 613 234 588 265 588 c 0
 296 588 320 613 320 645 c 0
 320 676 296 701 265 701 c 0
 234 701 210 676 210 645 c 0
EndSplineSet
EndChar

StartChar: uhungarumlaut
Encoding: 369 369 354
Width: 531
Flags: MW
HStem: 700 20G<307 307 500 500>
VStem: 142 242<240 500>
LayerCount: 2
Fore
SplineSet
459 500 m 1
 384 500 l 1
 384 94 l 1
 384 94 321 57 247 57 c 0
 154 57 142 102 142 240 c 2
 142 500 l 1
 67 500 l 1
 67 239 l 2
 67 55 96 -10 236 -10 c 0
 309 -10 384 35 384 35 c 1
 384 0 l 1
 459 0 l 1
 459 500 l 1
301 624 m 1
 446 763 l 1
 500 720 l 1
 352 582 l 1
 301 624 l 1
108 624 m 1
 253 762 l 1
 307 720 l 1
 160 582 l 1
 108 624 l 1
EndSplineSet
EndChar

StartChar: uogonek
Encoding: 371 371 355
Width: 531
Flags: MW
HStem: -206 61<411 419> -10 67<200.5 271> 0 21G<384 388 384 384 459 459> 480 20G<67 142 142 142 384 459 459 459>
VStem: 67 75<239 240 240 500> 310 72<-114.5 -95.5> 384 75<0 32 32 32 94 500 0 500>
LayerCount: 2
Fore
SplineSet
384 500 m 1xda
 459 500 l 1
 459 0 l 1xba
 459 0 382 -65 382 -102 c 0
 382 -127 399 -145 423 -145 c 0
 437 -145 474 -139 474 -139 c 1
 481 -197 l 1
 481 -197 436 -206 402 -206 c 0
 349 -206 310 -173 310 -119 c 0xdc
 310 -72 365 -19 388 0 c 1
 384 0 l 1xba
 384 32 l 1
 384 32 306 -10 236 -10 c 0
 96 -10 67 54 67 239 c 2
 67 500 l 1
 142 500 l 1
 142 240 l 2
 142 102 154 57 247 57 c 0
 314 57 384 94 384 94 c 1
 384 500 l 1xda
EndSplineSet
EndChar

StartChar: wgrave
Encoding: 7809 7809 356
Width: 762
Flags: MW
HStem: 0 65<207 223 207 275 150 223 539 556> 480 20G<31 106 106 106 656 731 731 731>
VStem: 31 700<500 500>
LayerCount: 2
Fore
SplineSet
31 500 m 1
 106 500 l 1
 207 65 l 1
 223 65 l 1
 342 490 l 1
 420 490 l 1
 539 65 l 1
 556 65 l 1
 656 500 l 1
 731 500 l 1
 612 0 l 1
 487 0 l 1
 381 391 l 1
 275 0 l 1
 150 0 l 1
 31 500 l 1
265 740 m 1
 481 642 l 1
 460 591 l 1
 239 676 l 1
 265 740 l 1
EndSplineSet
EndChar

StartChar: wacute
Encoding: 7811 7811 357
Width: 762
Flags: MW
HStem: 0 65<207 223 207 275 150 223 539 556> 480 20G<31 106 106 106 656 731 731 731>
VStem: 31 700<500 500>
LayerCount: 2
Fore
SplineSet
31 500 m 1
 106 500 l 1
 207 65 l 1
 223 65 l 1
 342 490 l 1
 420 490 l 1
 539 65 l 1
 556 65 l 1
 656 500 l 1
 731 500 l 1
 612 0 l 1
 487 0 l 1
 381 391 l 1
 275 0 l 1
 150 0 l 1
 31 500 l 1
277 642 m 1
 493 740 l 1
 519 676 l 1
 298 591 l 1
 277 642 l 1
EndSplineSet
EndChar

